<?xml version="1.0" standalone="no"?>
<!DOCTYPE svg PUBLIC "-//W3C//DTD SVG 1.1//EN" "http://www.w3.org/Graphics/SVG/1.1/DTD/svg11.dtd" >
<svg>
<metadata>
Created by FontForge 20090622 at Fri Jul 15 15:51:09 2016
 By deploy user
Copyright (c) 1992 Adobe Systems Incorporated.  All Rights Reserved.Myriad is a trademark of Adobe Systems Incorporated.
</metadata>
<defs>
<font id="MyriadSetPro-Medium" horiz-adv-x="300" >
  <font-face 
    font-family="Myriad Set Pro"
    font-weight="500"
    font-stretch="normal"
    units-per-em="1000"
    panose-1="2 11 6 3 3 4 3 2 2 4"
    ascent="800"
    descent="-200"
    x-height="485"
    bbox="-610 -250 1182 966"
    underline-thickness="50"
    underline-position="-50"
    unicode-range="U+0009-U+FE48"
  />
<missing-glyph horiz-adv-x="500" 
d="M62 750h376v-750h-376v750zM375 62v626h-250v-626h250z" />
    <glyph glyph-name="f_f" unicode="ff" horiz-adv-x="559" 
d="M82 419h-67v66h67v20q0 92 50.5 151t147.5 59q66 0 137 -33q45 38 106 38q59 0 96 -18l-18 -64q-31 11 -71 11q-46 0 -68.5 -34.5t-22.5 -104.5v-25h114v-66h-114v-419h-86v419h-185v-419h-86v419zM353 485v30q0 69 21 107q-18 12 -44 18t-52 6q-57 0 -83.5 -37
t-26.5 -109v-15h185z" />
    <glyph glyph-name="fi" unicode="fi" horiz-adv-x="516" 
d="M82 419h-67v66h67v26q0 97 55 153t154 56q32 0 65.5 -9t55.5 -23l-24 -66q-42 27 -101 27q-119 0 -119 -141v-23h276v-485h-86v419h-190v-419h-86v419z" />
    <glyph glyph-name="fl" unicode="fl" horiz-adv-x="516" 
d="M82 419h-67v66h67v20q0 98 56 156.5t164 58.5q37 0 75.5 -8.5t66.5 -23.5v-688h-86v639q-25 13 -70 13q-120 0 -120 -143v-24h110v-66h-110v-419h-86v419z" />
    <glyph glyph-name="f_f_i" unicode="ffi" horiz-adv-x="787" 
d="M82 419h-67v66h67v20q0 93 50.5 151.5t151.5 58.5q71 0 137 -37q24 18 57.5 30t68.5 12t74 -9t62 -23l-24 -66q-23 13 -52.5 20t-58.5 7q-57 0 -83 -34.5t-26 -106.5v-23h276v-485h-86v419h-190v-419h-86v419h-185v-419h-86v419zM353 485v30q0 66 21 107q-37 24 -92 24
q-59 0 -86.5 -37t-27.5 -109v-15h185z" />
    <glyph glyph-name="f_f_l" unicode="ffl" horiz-adv-x="787" 
d="M82 419h-67v66h67v20q0 93 50.5 151.5t151.5 58.5q67 0 137 -35q52 40 144 40q39 0 79.5 -9t70.5 -23v-688h-86v639q-31 13 -78 13q-58 0 -85 -34t-27 -109v-24h110v-66h-110v-419h-86v419h-185v-419h-86v419zM353 485v20q0 38 5 65.5t17 51.5q-43 24 -93 24
q-59 0 -86.5 -37t-27.5 -109v-15h185z" />
    <glyph glyph-name=".notdef" horiz-adv-x="500" 
d="M62 750h376v-750h-376v750zM375 62v626h-250v-626h250z" />
    <glyph glyph-name="NULL" horiz-adv-x="0" 
 />
    <glyph glyph-name="nonmarkingreturn" unicode="&#xd;" horiz-adv-x="239" 
 />
    <glyph glyph-name="space" unicode=" " horiz-adv-x="239" 
 />
    <glyph glyph-name="HT" unicode="&#x9;" horiz-adv-x="239" 
 />
    <glyph glyph-name="LF" unicode="&#xa;" horiz-adv-x="239" 
 />
    <glyph glyph-name="exclam" unicode="!" horiz-adv-x="235" 
d="M70 674h95l-14 -480h-67zM75 7q-16 18 -16 45q0 28 16.5 45.5t42.5 17.5t42 -17.5t16 -45.5t-16 -45.5t-43 -17.5q-26 0 -42 18z" />
    <glyph glyph-name="quotedbl" unicode="&#x22;" horiz-adv-x="337" 
d="M52 685h87l-17 -240h-54zM198 685h87l-17 -240h-54z" />
    <glyph glyph-name="numbersign" unicode="#" horiz-adv-x="489" 
d="M117 197h-81v57h90l19 147h-85v57h94l25 192h59l-25 -192h102l25 192h59l-25 -192h79v-57h-88l-19 -147h84v-57h-93l-26 -197h-59l26 197h-102l-26 -197h-59zM287 254l19 147h-102l-19 -147h102z" />
    <glyph glyph-name="dollar" unicode="$" horiz-adv-x="505" 
d="M214 15q-88 1 -150 43l24 67q65 -44 141 -44q51 0 83.5 28.5t32.5 71.5q0 74 -110 119q-88 36 -125.5 76t-37.5 97q0 62 40.5 106t108.5 55v100h62v-97q71 -1 127 -34l-24 -66q-59 34 -123 34q-47 0 -75.5 -23.5t-28.5 -62.5q0 -35 25.5 -60.5t95.5 -54.5q80 -34 116 -76
t36 -106q0 -63 -42 -110t-113 -59v-103h-63v99z" />
    <glyph glyph-name="percent" unicode="%" horiz-adv-x="783" 
d="M72.5 316.5q-40.5 54.5 -40.5 141.5q0 59 19.5 105t54.5 72t81 26q69 0 108 -53t39 -141q0 -93 -41.5 -149t-111.5 -56q-68 0 -108.5 54.5zM553 661h55l-380 -672h-55zM266 463q0 145 -84 145q-37 0 -59.5 -42.5t-22.5 -107.5q0 -64 22.5 -103.5t60.5 -39.5q83 0 83 148z
M489.5 47.5q-40.5 54.5 -40.5 141.5q0 59 19.5 105t54.5 72t81 26q69 0 108 -53t39 -141q0 -93 -41.5 -149t-111.5 -56q-68 0 -108.5 54.5zM683 194q0 145 -84 145q-37 0 -59.5 -42.5t-22.5 -107.5q0 -64 22.5 -103.5t60.5 -39.5q83 0 83 148z" />
    <glyph glyph-name="ampersand" unicode="&#x26;" horiz-adv-x="601" 
d="M126.5 13.5q-46.5 24.5 -72.5 67.5t-26 97q0 61 33 111.5t98 87.5q-57 72 -57 142q0 47 22 85t60.5 59.5t86.5 21.5q64 0 105.5 -39.5t41.5 -103.5q0 -53 -37 -98.5t-110 -82.5l163 -190q43 67 63 197h79q-27 -167 -95 -249l110 -119h-103l-62 66q-83 -77 -193 -77
q-60 0 -106.5 24.5zM343 538q0 38 -21.5 62.5t-56.5 24.5q-38 0 -60 -28.5t-22 -69.5q0 -56 50 -121q110 63 110 132zM383 116l-186 212q-86 -56 -86 -137q0 -59 38.5 -98t98.5 -39q79 0 135 62z" />
    <glyph glyph-name="quotesingle" unicode="'" horiz-adv-x="188" 
d="M52 685h84l-16 -239h-52z" />
    <glyph glyph-name="parenleft" unicode="(" horiz-adv-x="280" 
d="M64 285q1 238 130 410h68q-126 -169 -126 -410q0 -125 33.5 -224t92.5 -182h-68q-130 171 -130 406z" />
    <glyph glyph-name="parenright" unicode=")" horiz-adv-x="280" 
d="M110.5 61q33.5 99 33.5 224q0 241 -126 410h68q129 -172 130 -410q0 -235 -130 -406h-68q59 83 92.5 182z" />
    <glyph glyph-name="asterisk" unicode="*" horiz-adv-x="409" 
d="M80 372l95 121v3l-147 -19v67l147 -20v2l-94 123l60 35l62 -138h2l60 139l60 -34l-93 -124v-2l149 19v-67l-150 18v-3l95 -120l-62 -35l-61 139h-2l-64 -140z" />
    <glyph glyph-name="plus" unicode="+" horiz-adv-x="596" 
d="M266 237h-226v60h226v235h64v-235h226v-60h-226v-237h-64v237z" />
    <glyph glyph-name="comma" unicode="," horiz-adv-x="205" 
d="M50.5 -9q17.5 70 25.5 125l96 10q-17 -63 -45.5 -135t-49.5 -108l-61 -6q17 44 34.5 114z" />
    <glyph glyph-name="hyphen" unicode="-" horiz-adv-x="305" 
d="M30 302h245v-64h-245v64z" />
    <glyph glyph-name="period" unicode="." horiz-adv-x="205" 
d="M66 7q-16 18 -16 45q0 28 16.5 45.5t42.5 17.5t42 -17.5t16 -45.5t-16 -45.5t-43 -17.5q-26 0 -42 18z" />
    <glyph glyph-name="slash" unicode="/" horiz-adv-x="341" 
d="M279 685h67l-284 -725h-67z" />
    <glyph glyph-name="zero" unicode="0" horiz-adv-x="505" 
d="M133.5 32q-47.5 42 -72.5 117t-25 174q0 104 27 180t77.5 117t118.5 41q101 0 155.5 -86.5t54.5 -243.5q0 -163 -56.5 -252t-164.5 -89q-67 0 -114.5 42zM382 328q0 265 -129 265q-61 0 -95.5 -73t-34.5 -197t34.5 -194.5t94.5 -70.5q130 0 130 270z" />
    <glyph glyph-name="one" unicode="1" horiz-adv-x="505" 
d="M233 569h-2l-113 -61l-17 66l142 76h74v-650h-84v569z" />
    <glyph glyph-name="two" unicode="2" horiz-adv-x="505" 
d="M44 53l68 68l29 29q92 89 150 164.5t58 147.5q0 127 -126 127q-68 0 -135 -54l-28 61q77 65 180 65q87 0 141.5 -50.5t54.5 -137.5q0 -63 -30.5 -122t-73.5 -107.5t-115 -119.5l-51 -50v-2h286v-72h-408v53z" />
    <glyph glyph-name="three" unicode="3" horiz-adv-x="505" 
d="M41 33l24 66q63 -39 140 -39q67 0 106 34.5t39 91.5q0 61 -45.5 95.5t-119.5 34.5h-48v66h47q61 0 102 31t41 79q0 47 -30 72.5t-82 25.5q-67 0 -126 -42l-24 63q67 49 167 49q83 0 133.5 -42.5t50.5 -111.5q0 -54 -29 -92t-89 -61v-2q64 -13 103 -58t39 -109
q0 -57 -29 -101t-82 -68.5t-123 -24.5q-101 0 -165 43z" />
    <glyph glyph-name="four" unicode="4" horiz-adv-x="505" 
d="M312 177h-297v58l285 415h94v-405h89v-68h-89v-177h-82v177zM312 245v216q0 68 3 103l-2 1q-14 -29 -25.5 -50.5t-30.5 -48.5l-153 -219v-2h208z" />
    <glyph glyph-name="five" unicode="5" horiz-adv-x="505" 
d="M41 27l22 68q60 -36 136 -36q41 0 76 18t55.5 49.5t20.5 71.5q0 149 -185 149q-44 0 -87 -6l42 309h305v-72h-243l-24 -166q25 3 50 3q68 0 120 -25.5t80.5 -71.5t28.5 -107q0 -63 -30.5 -114t-85 -79.5t-122.5 -28.5q-97 0 -159 38z" />
    <glyph glyph-name="six" unicode="6" horiz-adv-x="505" 
d="M140 23.5q-51 34.5 -79 97t-28 144.5q0 115 45 204.5t130 140t201 50.5l1 -71q-118 0 -195 -63.5t-92 -172.5h3q57 75 153 75q56 0 100 -26.5t68.5 -74.5t24.5 -109q0 -65 -27.5 -117.5t-76.5 -82t-109 -29.5q-68 0 -119 34.5zM350 100q35 44 35 112q0 69 -36 109t-96 40
q-30 0 -61 -15.5t-51.5 -42.5t-20.5 -59q0 -87 38 -137.5t102 -50.5q55 0 90 44z" />
    <glyph glyph-name="seven" unicode="7" horiz-adv-x="505" 
d="M368 578h-312v72h403v-57l-278 -593h-90z" />
    <glyph glyph-name="eight" unicode="8" horiz-adv-x="505" 
d="M141.5 12q-48.5 22 -76.5 61.5t-28 90.5q0 119 127 176l-1 3q-102 48 -102 148q0 49 26 88t71 60.5t101 21.5q52 0 95 -19.5t67.5 -56t24.5 -84.5q0 -101 -107 -152v-3q129 -52 129 -168q0 -55 -28.5 -97.5t-78 -66.5t-111.5 -24q-60 0 -108.5 22zM362 493
q0 48 -28.5 76.5t-77.5 28.5t-80 -28t-31 -75q0 -86 122 -121q95 34 95 119zM345 84.5q36 31.5 36 84.5q0 101 -140 142q-117 -35 -117 -137q0 -53 37 -87t93 -34q55 0 91 31.5z" />
    <glyph glyph-name="nine" unicode="9" horiz-adv-x="505" 
d="M95 -9v70q10 -1 30 -1q102 1 170.5 63t87.5 178h-3q-58 -70 -151 -70q-55 0 -98 26t-66.5 72t-23.5 102q0 62 28 115t77.5 84t112.5 31q64 0 112 -33.5t73.5 -94t25.5 -140.5q0 -133 -46.5 -223.5t-127.5 -135t-183 -44.5q-12 0 -18 1zM320.5 314q30.5 16 46.5 39t16 45
q0 92 -34.5 144t-96.5 52q-55 0 -89.5 -44.5t-34.5 -113.5q0 -62 33.5 -100t88.5 -38q40 0 70.5 16z" />
    <glyph glyph-name="colon" unicode=":" horiz-adv-x="205" 
d="M66 359q-16 18 -16 45q0 28 16.5 45.5t42.5 17.5t42 -17.5t16 -45.5t-16 -45.5t-43 -17.5q-26 0 -42 18zM66 7q-16 18 -16 45q0 28 16.5 45.5t42.5 17.5t42 -17.5t16 -45.5t-16 -45.5t-43 -17.5q-26 0 -42 18z" />
    <glyph glyph-name="semicolon" unicode=";" horiz-adv-x="205" 
d="M76 359q-16 18 -16 45q0 28 16.5 45.5t42.5 17.5t42 -17.5t16 -45.5t-16 -45.5t-43 -17.5q-26 0 -42 18zM50.5 -9q17.5 70 25.5 125l96 10q-17 -63 -45.5 -135t-49.5 -108l-61 -6q17 44 34.5 114z" />
    <glyph glyph-name="less" unicode="&#x3c;" horiz-adv-x="596" 
d="M66 239v54l464 239v-69l-391 -196v-2l391 -196v-69z" />
    <glyph glyph-name="equal" unicode="=" horiz-adv-x="596" 
d="M40 397h516v-60h-516v60zM40 201h516v-60h-516v60z" />
    <glyph glyph-name="greater" unicode="&#x3e;" horiz-adv-x="596" 
d="M66 69l394 196v2l-394 196v69l464 -238v-56l-464 -238v69z" />
    <glyph glyph-name="question" unicode="?" horiz-adv-x="396" 
d="M134 239q0 75 63 151q36 43 53 74t17 63q0 39 -24.5 62.5t-70.5 24.5q-27 0 -54.5 -8.5t-46.5 -22.5l-24 62q25 18 63.5 29t78.5 11q81 0 123.5 -42.5t42.5 -104.5q0 -46 -21 -84t-65 -90q-30 -36 -43.5 -67.5t-13.5 -66.5l1 -39h-76q-3 33 -3 48zM131 7q-16 18 -16 45
q0 28 16.5 45.5t42.5 17.5t42 -17.5t16 -45.5t-16 -45.5t-43 -17.5q-26 0 -42 18z" />
    <glyph glyph-name="at" unicode="@" horiz-adv-x="727" 
d="M184.5 -64q-68.5 40 -106.5 111t-38 160q0 106 45.5 194t128 139.5t188.5 51.5q85 0 149.5 -37t100 -102t35.5 -146q0 -70 -22.5 -125t-61.5 -86t-86 -31q-39 0 -59 22.5t-20 64.5h-2q-26 -43 -60.5 -65t-74.5 -22q-49 0 -80 34t-31 91q0 63 31 117.5t85 87.5t119 33
q60 0 105 -20l-35 -183q-6 -33 -6 -56q0 -56 36 -56q28 0 52.5 24.5t39 67.5t14.5 94q0 112 -63 180t-174 68q-86 0 -153.5 -43t-105 -119.5t-37.5 -172.5q0 -81 31.5 -142t89 -94.5t131.5 -33.5q86 0 149 36l16 -43q-75 -39 -176 -39q-86 0 -154.5 40zM368.5 137.5
q25.5 19.5 45 50.5t25.5 65l22 115q-22 8 -48 8q-42 0 -78.5 -25t-58 -67.5t-21.5 -90.5q0 -75 64 -75q24 0 49.5 19.5z" />
    <glyph glyph-name="A" unicode="A" horiz-adv-x="600" 
d="M249 674h104l224 -674h-92l-70 211h-233l-68 -211h-89zM398 279l-62 192q-9 26 -18 57.5l-13 46.5l-6 21h-2q-15 -64 -35 -124l-63 -193h199z" />
    <glyph glyph-name="B" unicode="B" horiz-adv-x="534" 
d="M75 1v664q67 14 156 14q114 0 176 -44t62 -124q0 -49 -30.5 -89t-83.5 -58v-3q63 -15 101 -61t38 -108q0 -92 -70 -145t-216 -53q-73 0 -133 7zM230 389q70 0 110.5 31.5t40.5 82.5q0 110 -145 110q-51 0 -75 -7v-217h69zM358.5 96q44.5 35 44.5 97t-46.5 96.5
t-125.5 34.5h-70v-259q20 -4 71 -4q82 0 126.5 35z" />
    <glyph glyph-name="C" unicode="C" horiz-adv-x="566" 
d="M193 31.5q-76 41.5 -116.5 118.5t-40.5 181q0 106 44 186t122 124t178 44t155 -29l-21 -70q-55 27 -131 27q-78 0 -136 -34t-89 -97t-31 -148q0 -126 67 -199t185 -73q83 0 138 27l17 -69q-61 -30 -161 -30q-104 0 -180 41.5z" />
    <glyph glyph-name="D" unicode="D" horiz-adv-x="651" 
d="M75 1v664q89 14 179 14q181 0 271 -86t90 -240q0 -167 -99 -263t-288 -96q-94 0 -153 7zM452 138q72 74 72 212q0 127 -67.5 193t-197.5 66q-59 0 -98 -7v-534q21 -4 84 -4q135 0 207 74z" />
    <glyph glyph-name="E" unicode="E" horiz-adv-x="482" 
d="M75 674h357v-72h-271v-214h256v-72h-256v-244h286v-72h-372v674z" />
    <glyph glyph-name="F" unicode="F" horiz-adv-x="477" 
d="M75 674h356v-72h-270v-225h249v-72h-249v-305h-86v674z" />
    <glyph glyph-name="G" unicode="G" horiz-adv-x="632" 
d="M193.5 34q-76.5 41 -117 117.5t-40.5 180.5q0 102 44.5 181.5t125 123.5t187.5 44q101 0 164 -30l-22 -70q-60 28 -144 28q-78 0 -137.5 -33t-93 -94.5t-33.5 -144.5q0 -127 68 -199.5t185 -72.5q76 0 112 17v202h-134v70h218v-326q-96 -35 -201 -35t-181.5 41z" />
    <glyph glyph-name="H" unicode="H" horiz-adv-x="640" 
d="M75 674h86v-283h318v283h86v-674h-86v317h-318v-317h-86v674z" />
    <glyph glyph-name="I" unicode="I" horiz-adv-x="236" 
d="M75 674h86v-674h-86v674z" />
    <glyph glyph-name="J" unicode="J" horiz-adv-x="363" 
d="M4 3l12 71q33 -12 72 -12q65 0 93 39.5t28 126.5v446h86v-443q0 -122 -50 -182t-151 -60q-51 0 -90 14z" />
    <glyph glyph-name="K" unicode="K" horiz-adv-x="533" 
d="M75 674h86v-325h3q14 20 55 73l198 252h106l-238 -287l257 -387h-102l-216 330l-63 -73v-257h-86v674z" />
    <glyph glyph-name="L" unicode="L" horiz-adv-x="463" 
d="M75 674h86v-602h282v-72h-368v674z" />
    <glyph glyph-name="M" unicode="M" horiz-adv-x="790" 
d="M104 674h109l110 -325q50 -150 69 -227h3q20 78 72 227l115 325h110l41 -674h-84l-16 296q-12 234 -11 289h-2q-36 -121 -84 -255l-117 -326h-63l-107 320q-55 166 -77 261h-2q-4 -129 -14 -296l-17 -289h-82z" />
    <glyph glyph-name="N" unicode="N" horiz-adv-x="645" 
d="M75 674h94l208 -339q72 -117 119 -220h2q-9 95 -9 279v280h81v-674h-87l-207 340q-82 134 -124 226l-2 -1q6 -106 6 -280v-285h-81v674z" />
    <glyph glyph-name="O" unicode="O" horiz-adv-x="672" 
d="M176 32.5q-67 43.5 -103.5 121.5t-36.5 177q0 103 38.5 183.5t107.5 125.5t159 45q87 0 154 -43t104 -121t37 -178q0 -105 -37.5 -185t-106.5 -124.5t-161 -44.5q-88 0 -155 43.5zM445 95q48 36 74 100t26 144q0 79 -26.5 142t-74 98.5t-108.5 35.5q-62 0 -109.5 -36.5
t-73.5 -100.5t-26 -145q0 -78 26 -140.5t73.5 -98t108.5 -35.5q62 0 110 36z" />
    <glyph glyph-name="P" unicode="P" horiz-adv-x="524" 
d="M75 666q71 13 164 13q119 0 182 -52.5t63 -144.5q0 -103 -70 -160t-185 -57q-45 0 -68 6v-271h-86v666zM353 371.5q44 37.5 44 106.5q0 63 -41.5 98t-114.5 35q-51 0 -80 -7v-263q24 -7 69 -7q79 0 123 37.5z" />
    <glyph glyph-name="Q" unicode="Q" horiz-adv-x="672" 
d="M361 -19q-24 8 -36 8q-80 3 -146 43.5t-104.5 116.5t-38.5 182t39 186.5t108.5 124t158.5 43.5q88 0 154.5 -43.5t103 -121t36.5 -176.5q0 -126 -50.5 -209.5t-136.5 -113.5v-4q108 -28 193 -43l-26 -72q-114 31 -255 79zM447.5 97q47.5 38 72.5 102t25 141
q0 70 -23.5 133t-70 102.5t-112.5 39.5q-68 0 -116 -39.5t-72 -103.5t-24 -139q0 -73 25 -135.5t72 -100.5t111 -38q65 0 112.5 38z" />
    <glyph glyph-name="R" unicode="R" horiz-adv-x="530" 
d="M75 665q73 14 163 14q106 0 175.5 -42t69.5 -141q0 -61 -34.5 -107t-92.5 -66v-2q75 -26 100 -137q34 -154 51 -184h-90q-16 30 -44 162q-15 70 -45.5 100.5t-87.5 30.5h-79v-293h-86v665zM246 358q69 0 109.5 35t40.5 93q0 127 -152 127q-53 0 -83 -8v-247h85z" />
    <glyph glyph-name="S" unicode="S" horiz-adv-x="484" 
d="M41 32l22 72q67 -43 152 -43q63 0 102 31.5t39 83.5q0 47 -30 78.5t-97 56.5q-175 66 -175 192q0 52 27.5 93.5t77 65t111.5 23.5q89 0 145 -32l-24 -71q-53 32 -124 32q-55 0 -91 -28t-36 -73q0 -44 28.5 -72t104.5 -59q88 -36 128.5 -82.5t40.5 -116.5
q0 -58 -28.5 -101.5t-81 -67.5t-123.5 -24q-105 0 -168 42z" />
    <glyph glyph-name="T" unicode="T" horiz-adv-x="487" 
d="M200 602h-201v72h489v-72h-202v-602h-86v602z" />
    <glyph glyph-name="U" unicode="U" horiz-adv-x="635" 
d="M135 62q-60 73 -60 212v400h86v-403q0 -100 40 -156t113 -56q79 0 119.5 54.5t40.5 157.5v403h86v-396q0 -139 -65 -214t-184 -75q-116 0 -176 73z" />
    <glyph glyph-name="V" unicode="V" horiz-adv-x="549" 
d="M4 674h94l102 -331q40 -126 71 -252h2q21 92 75 251l111 332h92l-235 -674h-95z" />
    <glyph glyph-name="W" unicode="W" horiz-adv-x="832" 
d="M15 674h92l78 -340q28 -118 49 -234h2q12 72 54 235l89 339h88l80 -340q37 -160 48 -232h2q16 91 53 233l86 339h88l-187 -674h-90l-83 349q-34 142 -44 221h-2q-14 -86 -50 -221l-94 -349h-91z" />
    <glyph glyph-name="X" unicode="X" horiz-adv-x="559" 
d="M226 342l-194 332h99l88 -158q48 -88 61 -114h2q21 45 60 114l89 158h99l-201 -328l206 -346h-100l-84 150l-27 47q-41 70 -49 85h-2q-30 -62 -69 -133l-81 -149h-99z" />
    <glyph glyph-name="Y" unicode="Y" horiz-adv-x="531" 
d="M223 286l-210 388h98l92 -185q40 -81 66 -140h2q25 59 67 141l94 184h98l-221 -387v-287h-86v286z" />
    <glyph glyph-name="Z" unicode="Z" horiz-adv-x="540" 
d="M30 51l365 549v2h-335v72h445v-53l-363 -547v-2h367v-72h-479v51z" />
    <glyph glyph-name="bracketleft" unicode="[" horiz-adv-x="280" 
d="M85 685h179v-55h-111v-687h111v-55h-179v797z" />
    <glyph glyph-name="backslash" unicode="\" horiz-adv-x="341" 
d="M-6 685h68l285 -725h-68z" />
    <glyph glyph-name="bracketright" unicode="]" horiz-adv-x="280" 
d="M16 -56h111v686h-111v55h179v-797h-179v56z" />
    <glyph glyph-name="asciicircum" unicode="^" horiz-adv-x="596" 
d="M267 650h62l206 -461h-69l-167 388h-2l-167 -388h-69z" />
    <glyph glyph-name="underscore" unicode="_" horiz-adv-x="500" 
d="M0 -75h500v-50h-500v50z" />
    <glyph glyph-name="grave" unicode="`" 
d="M16 693h96l87 -143h-62z" />
    <glyph glyph-name="a" unicode="a" horiz-adv-x="474" 
d="M76 28q-41 38 -41 100q0 88 74 134.5t211 45.5v10q0 113 -108 113q-70 0 -123 -35l-20 58q65 41 157 41q180 0 180 -197v-183q0 -69 8 -115h-79l-8 60h-2q-49 -70 -145 -70q-63 0 -104 38zM247.5 61.5q19.5 7.5 38.5 24.5q35 32 35 76v85q-199 4 -199 -109
q0 -40 22.5 -62t58.5 -22q25 0 44.5 7.5z" />
    <glyph glyph-name="b" unicode="b" horiz-adv-x="558" 
d="M150 78h-3l-4 -78h-75q4 52 4 124v585h86v-301h2q51 87 161 87q62 0 107 -33.5t68.5 -89.5t23.5 -124q0 -71 -25.5 -129.5t-73.5 -93.5t-114 -35q-106 0 -157 88zM394.5 109.5q38.5 50.5 38.5 135.5q0 74 -35.5 127.5t-105.5 53.5q-37 0 -67.5 -20t-48.5 -53t-18 -70v-91
q0 -36 17 -66.5t47.5 -48.5t67.5 -18q66 0 104.5 50.5z" />
    <glyph glyph-name="c" unicode="c" horiz-adv-x="438" 
d="M150 21.5q-54 30.5 -83 86t-29 129.5q0 75 31.5 133.5t89.5 91.5t134 33q72 0 118 -25l-19 -67q-43 23 -99 23q-78 0 -122.5 -52t-44.5 -133t46 -131t119 -50q50 0 104 23l14 -66q-57 -26 -134 -26q-71 0 -125 30.5z" />
    <glyph glyph-name="d" unicode="d" horiz-adv-x="552" 
d="M133 23q-46 33 -70.5 88.5t-24.5 123.5q0 74 26 133t74 93t112 34q99 0 142 -72h2v286h86v-585q0 -72 4 -124h-77l-4 82h-2q-47 -92 -160 -92q-62 0 -108 33zM331.5 78.5q29.5 19.5 46 52.5t16.5 70v88q0 57 -35 97t-92 40q-68 0 -105 -54.5t-37 -131.5q0 -73 35.5 -127
t104.5 -54q37 0 66.5 19.5z" />
    <glyph glyph-name="e" unicode="e" horiz-adv-x="492" 
d="M100.5 56q-62.5 66 -62.5 178q0 71 26 130.5t76.5 95t120.5 35.5q91 0 143 -62.5t52 -163.5q0 -26 -3 -43h-332q2 -79 44.5 -124t118.5 -45q72 0 130 24l15 -62q-66 -29 -158 -29q-108 0 -170.5 66zM372 289v5q0 59 -29.5 98.5t-88.5 39.5q-55 0 -89 -40.5t-43 -102.5
h250z" />
    <glyph glyph-name="f" unicode="f" horiz-adv-x="288" 
d="M82 419h-67v66h67v30q0 91 43.5 148t126.5 57q42 0 75 -14l-12 -67q-24 10 -56 10q-46 0 -68.5 -34.5t-22.5 -104.5v-25h114v-66h-114v-419h-86v419z" />
    <glyph glyph-name="g" unicode="g" horiz-adv-x="549" 
d="M79 -170l21 68q62 -38 139 -38q152 0 152 167v55h-2q-47 -80 -149 -80q-61 0 -106.5 31t-70.5 85t-25 120q0 69 26 128t74.5 94t113.5 35q103 0 146 -82h2l4 72h77q-4 -52 -4 -134v-273q0 -146 -57.5 -216t-183.5 -70q-98 0 -157 38zM354.5 108q35.5 40 35.5 99v89
q0 57 -33.5 94t-90.5 37q-63 0 -102 -50.5t-39 -133.5q0 -78 38 -126.5t102 -48.5q54 0 89.5 40z" />
    <glyph glyph-name="h" unicode="h" horiz-adv-x="543" 
d="M72 709h86v-298h2q23 39 63.5 61.5t86.5 22.5q80 0 122 -56.5t42 -147.5v-291h-86v283q0 141 -109 141q-39 0 -71 -24t-45 -63q-5 -18 -5 -41v-296h-86v709z" />
    <glyph glyph-name="i" unicode="i" horiz-adv-x="230" 
d="M74.5 584q-15.5 16 -15.5 40t16 40t40 16q25 0 40.5 -15.5t15.5 -40.5t-16 -40.5t-41 -15.5q-24 0 -39.5 16zM72 485h86v-485h-86v485z" />
    <glyph glyph-name="j" unicode="j" horiz-adv-x="241" 
d="M85.5 584q-15.5 16 -15.5 40t16 40t40 16q25 0 40.5 -15.5t15.5 -40.5t-16 -40.5t-41 -15.5q-24 0 -39.5 16zM-43 -140q64 4 93 37q33 38 33 179v409h86v-441q0 -140 -57 -197q-52 -54 -146 -55z" />
    <glyph glyph-name="k" unicode="k" horiz-adv-x="461" 
d="M72 709h86v-446h2q20 27 43 54l138 168h104l-183 -201l208 -284h-106l-162 232l-44 -49v-183h-86v709z" />
    <glyph glyph-name="l" unicode="l" horiz-adv-x="230" 
d="M72 709h86v-709h-86v709z" />
    <glyph glyph-name="m" unicode="m" horiz-adv-x="820" 
d="M72 354q0 68 -4 131h76l4 -77h2q53 87 150 87q47 0 83 -26t51 -69h2q25 44 65.5 69.5t92.5 25.5q70 0 113.5 -51.5t43.5 -155.5v-288h-85v276q0 148 -103 148q-38 0 -65 -24t-39 -63q-5 -18 -5 -38v-299h-85v293q0 60 -25.5 95.5t-72.5 35.5q-38 0 -67.5 -26t-41.5 -65
q-5 -16 -5 -39v-294h-85v354z" />
    <glyph glyph-name="n" unicode="n" horiz-adv-x="543" 
d="M72 354q0 68 -4 131h76l5 -78h2q21 41 63 64.5t88 23.5q80 0 126 -52t46 -151v-292h-86v282q0 142 -109 142q-39 0 -69 -23t-45 -62q-7 -20 -7 -46v-293h-86v354z" />
    <glyph glyph-name="o" unicode="o" horiz-adv-x="538" 
d="M145.5 21.5q-51.5 31.5 -79.5 88t-28 128.5q0 75 29 133.5t82.5 91t123.5 32.5q67 0 118.5 -31.5t80 -88.5t28.5 -129q0 -75 -29 -133t-82.5 -90.5t-123.5 -32.5q-68 0 -119.5 31.5zM343 80.5q33 25.5 51 68.5t18 94q0 82 -39.5 134.5t-103.5 52.5q-65 0 -104 -53
t-39 -136q0 -52 17.5 -94.5t50 -67t74.5 -24.5t75 25.5z" />
    <glyph glyph-name="p" unicode="p" horiz-adv-x="558" 
d="M72 328q0 86 -4 157h78l4 -81h2q55 91 167 91q55 0 101 -29.5t73 -85.5t27 -130q0 -80 -28 -139t-77 -90t-110 -31q-100 0 -145 74h-2v-262h-86v526zM394 110q38 51 38 136q0 78 -37.5 129t-101.5 51q-38 0 -69 -21t-48.5 -56t-17.5 -74v-79q0 -58 37.5 -97.5t94.5 -39.5
q66 0 104 51z" />
    <glyph glyph-name="q" unicode="q" horiz-adv-x="552" 
d="M394 73h-2q-47 -83 -154 -83q-59 0 -104.5 31t-70.5 86.5t-25 126.5q0 76 26.5 135t75.5 92.5t112 33.5q100 0 145 -82h2l3 72h82q-4 -65 -4 -134v-549h-86v271zM339.5 83q32.5 24 46.5 67q8 22 8 52v88q0 58 -35.5 97t-90.5 39q-65 0 -103.5 -51.5t-38.5 -135.5
q0 -79 36.5 -129.5t102.5 -50.5q42 0 74.5 24z" />
    <glyph glyph-name="r" unicode="r" horiz-adv-x="322" 
d="M72 334q0 91 -4 151h77l3 -95h3q16 48 52.5 76.5t81.5 28.5q11 0 23 -3v-82q-13 3 -29 3q-46 0 -77.5 -31t-40.5 -82q-3 -18 -3 -41v-259h-86v334z" />
    <glyph glyph-name="s" unicode="s" horiz-adv-x="388" 
d="M38 22l21 67q53 -34 114 -34q93 0 93 72q0 31 -20 51t-68 38q-127 48 -127 138q0 63 46 102t119 39q68 0 117 -29l-22 -64q-43 28 -97 28q-36 0 -57.5 -18t-21.5 -48q0 -31 23 -48t67 -35q125 -51 125 -146q0 -66 -48 -105.5t-131 -39.5q-77 0 -133 32z" />
    <glyph glyph-name="t" unicode="t" horiz-adv-x="326" 
d="M123.5 28q-32.5 38 -32.5 123v268h-74v66h74v115l86 23v-138h124v-66h-124v-265q0 -93 65 -93q29 0 50 6l4 -66q-31 -11 -77 -11q-63 0 -95.5 38z" />
    <glyph glyph-name="u" unicode="u" horiz-adv-x="540" 
d="M112.5 43q-43.5 53 -43.5 156v286h86v-270q0 -154 106 -154q37 0 68.5 22.5t44.5 57.5q8 21 8 45v299h86v-353q0 -72 4 -132h-76l-5 77h-2q-51 -87 -157 -87q-76 0 -119.5 53z" />
    <glyph glyph-name="v" unicode="v" horiz-adv-x="472" 
d="M13 485h93l93 -273q23 -66 37 -124h4q7 28 39 124l92 273h91l-186 -485h-83z" />
    <glyph glyph-name="w" unicode="w" horiz-adv-x="725" 
d="M18 485h89l63 -246q22 -83 36 -155h2q14 64 43 154l77 247h73l74 -243q26 -85 42 -158h2q13 74 37 158l68 243h86l-154 -485h-79l-72 231q-28 87 -42 160h-2q-17 -78 -44 -161l-76 -230h-79z" />
    <glyph glyph-name="x" unicode="x" horiz-adv-x="455" 
d="M176 247l-160 238h97l67 -105q22 -33 49 -81l16 27q7 11 15 25l18 30l66 104h95l-162 -235l166 -250h-99l-69 109l-52 85l-51 -85l-68 -109h-96z" />
    <glyph glyph-name="y" unicode="y" horiz-adv-x="461" 
d="M34 -147q96 32 148 142q6 14 6 21t-5 22l-174 447h94l103 -287q16 -43 30 -98h3q18 65 30 100l93 285h92l-128 -344q-44 -117 -78.5 -186.5t-84.5 -116.5q-23 -22 -51 -37t-55 -21z" />
    <glyph glyph-name="z" unicode="z" horiz-adv-x="418" 
d="M17 51l215 285q35 47 63 79v2h-259v68h362v-55l-212 -283q-27 -37 -62 -77v-2h278v-68h-385v51z" />
    <glyph glyph-name="braceleft" unicode="{" horiz-adv-x="280" 
d="M134 -79.5q-39 32.5 -39 104.5q0 25 8 79t8 84q0 32 -14.5 53t-61.5 21v51q48 0 62 20t14 54q0 27 -8 81q-8 56 -8 86q0 66 39 98.5t106 32.5h16v-55h-14q-43 0 -61 -21.5t-18 -64.5q0 -29 7 -69q1 -7 4 -31.5t3 -46.5q1 -88 -72 -108v-2q72 -18 72 -109q0 -21 -3 -45
t-4 -30q-7 -42 -7 -73q0 -43 19 -65t60 -22h14v-55h-16q-67 0 -106 32.5z" />
    <glyph glyph-name="bar" unicode="|" horiz-adv-x="236" 
d="M85 750h66v-1000h-66v1000z" />
    <glyph glyph-name="braceright" unicode="}" horiz-adv-x="280" 
d="M24 -57h14q41 0 60 22t19 65q0 31 -7 73q-1 6 -4 30t-3 45q0 91 72 109v2q-72 20 -72 105q0 23 3 48t4 31q7 42 7 71q0 43 -18 64.5t-61 21.5h-14v55h16q67 0 106 -32.5t39 -98.5q0 -30 -8 -86q-8 -54 -8 -81q0 -34 14 -54t62 -20v-51q-47 0 -61.5 -21t-14.5 -53
q0 -30 8 -84t8 -79q0 -72 -39 -104.5t-106 -32.5h-16v55z" />
    <glyph glyph-name="asciitilde" unicode="~" horiz-adv-x="596" 
d="M79.5 321.5q32.5 39.5 88.5 39.5q31 0 63 -11.5t81 -34.5q42 -20 69.5 -30.5t52.5 -10.5q52 0 54 84h60q3 -78 -29.5 -114t-85.5 -36q-36 0 -69.5 12t-86.5 37q-38 19 -62.5 28.5t-46.5 9.5q-57 0 -60 -85h-60q-1 72 31.5 111.5z" />
    <glyph glyph-name="apple" unicode="&#xf8ff;" horiz-adv-x="938" 
d="M466 747q0 72 54 135q26 32 67.5 53t79.5 23q1 -7 1 -20q0 -75 -53 -140q-59 -71 -133 -71l-15 1q-1 7 -1 19zM249.5 -12.5q-34.5 27.5 -83.5 98.5q-47 69 -76 159t-29 172q0 85 33 153t90 106.5t126 38.5q39 0 92 -22t73 -22q8 0 40 11.5t41 14.5q34 12 55 16.5t43 4.5
q58 0 111 -27.5t84 -72.5q-56 -33 -82 -80t-26 -110q0 -66 35.5 -120.5t98.5 -82.5q-22 -68 -63.5 -132.5t-72.5 -92.5q-44 -39 -86 -39q-13 0 -33.5 5.5t-41.5 12.5q-24 8 -48.5 14.5t-41.5 6.5q-19 0 -43 -6t-58 -17q-51 -17 -66 -17q-37 0 -71.5 27.5z" />
    <glyph glyph-name="nbspace" unicode="&#xa0;" horiz-adv-x="239" 
 />
    <glyph glyph-name="exclamdown" unicode="&#xa1;" horiz-adv-x="235" 
d="M75 381.5q-16 17.5 -16 45.5t16 45.5t43 17.5q26 0 42 -18t16 -45q0 -28 -16.5 -45.5t-42.5 -17.5t-42 17.5zM84 284h67l14 -480h-95z" />
    <glyph glyph-name="cent" unicode="&#xa2;" horiz-adv-x="505" 
d="M263 87q-90 11 -143 72.5t-53 166.5q0 96 53 163.5t143 82.5v100h62v-98q60 0 106 -24l-19 -67q-40 25 -102 25q-48 0 -83 -24t-54 -65t-19 -90q0 -80 42.5 -127.5t110.5 -47.5q59 0 111 24l15 -63q-43 -25 -108 -28v-100h-62v100z" />
    <glyph glyph-name="sterling" unicode="&#xa3;" horiz-adv-x="505" 
d="M55 50q51 25 82 73t31 102q0 33 -5 70h-102v63h92q-11 69 -11 108q0 58 24.5 102.5t67.5 68.5t97 24q67 0 107 -25l-19 -67q-35 20 -88 20q-107 0 -107 -122q0 -47 12 -109h141v-63h-133l1 -21q2 -22 2 -31q0 -54 -18.5 -94.5t-57.5 -74.5v-2h293v-72h-409v50z" />
    <glyph glyph-name="currency" unicode="&#xa4;" horiz-adv-x="505" 
d="M26 138l72 71q-16 21 -26.5 53t-10.5 67q0 37 11 68.5t28 54.5l-75 71l44 46l69 -76q21 19 51 30t63 11q34 0 64 -10.5t52 -29.5l71 75l44 -46l-78 -71q15 -22 25 -52.5t10 -64.5q0 -38 -10 -70t-25 -53l75 -74l-45 -44l-68 77q-22 -21 -53.5 -32t-63.5 -11
q-31 0 -62.5 11t-51.5 29l-67 -74zM333.5 227q35.5 36 35.5 107q0 56 -31.5 96.5t-86.5 40.5q-54 0 -86.5 -40.5t-32.5 -100.5q0 -46 18 -77t45.5 -46.5t54.5 -15.5q48 0 83.5 36z" />
    <glyph glyph-name="yen" unicode="&#xa5;" horiz-adv-x="505" 
d="M205 176h-153v49h153v73h-153v49h129l-165 303h93l101 -205q14 -29 39 -91h2q14 43 41 93l107 203h90l-176 -303h128v-49h-154v-73h154v-49h-154v-176h-82v176z" />
    <glyph glyph-name="brokenbar" unicode="&#xa6;" horiz-adv-x="236" 
d="M85 675h66v-350h-66v350zM85 175h66v-350h-66v350z" />
    <glyph glyph-name="section" unicode="&#xa7;" horiz-adv-x="511" 
d="M85 -20l23 56q56 -39 131 -39q50 0 81 21.5t31 58.5q0 27 -17 46.5t-43 32t-70 29.5l-33 13q-63 25 -97 55.5t-34 85.5q0 69 73 118q-37 32 -37 86q0 40 24 71.5t65.5 49.5t93.5 18q78 0 136 -32l-21 -57q-49 31 -118 31q-45 0 -74 -20.5t-29 -53.5q0 -35 28 -54t87 -40
q22 -7 28 -10q44 -17 73.5 -34t49 -45t19.5 -70q0 -71 -65 -121q38 -35 38 -89q0 -68 -52.5 -108t-135.5 -40q-97 0 -155 41zM384 285q0 35 -23 55t-71 39q-16 6 -24 10q-62 23 -93 40q-45 -31 -45 -78q0 -30 26 -52t72 -40q14 -6 42 -16q56 -21 77 -35q39 30 39 77z" />
    <glyph glyph-name="dieresis" unicode="&#xa8;" 
d="M27.5 587.5q-13.5 14.5 -13.5 35.5t14.5 35.5t34.5 14.5q21 0 34.5 -14.5t13.5 -35.5t-14 -35.5t-35 -14.5t-34.5 14.5zM202.5 587.5q-13.5 14.5 -13.5 35.5t14 35.5t35 14.5t34.5 -14.5t13.5 -35.5t-14 -35.5t-35 -14.5t-34.5 14.5z" />
    <glyph glyph-name="copyright" unicode="&#xa9;" horiz-adv-x="677" 
d="M186.5 71.5q-69.5 41.5 -110 112.5t-40.5 156q0 84 40.5 154.5t110 112t153.5 41.5q83 0 152 -41.5t109 -112t40 -154.5q0 -85 -40 -156t-109 -112.5t-152 -41.5q-84 0 -153.5 41.5zM467 106.5q57 35.5 90.5 97t33.5 136.5q0 73 -33.5 134.5t-91 97t-126.5 35.5
q-71 0 -129 -35.5t-91.5 -97.5t-33.5 -137q0 -74 33.5 -134.5t91.5 -96t129 -35.5q70 0 127 35.5zM258.5 177q-41.5 24 -63.5 65t-22 92q0 55 26 97.5t70 65.5t95 23q36 0 64.5 -8t45.5 -19l-12 -38q-15 8 -40.5 15.5t-56.5 7.5q-68 0 -104 -39t-36 -102q0 -61 37.5 -101.5
t103.5 -40.5q29 0 56 7t45 19l12 -37q-47 -31 -123 -31q-56 0 -97.5 24z" />
    <glyph glyph-name="ordfeminine" unicode="&#xaa;" horiz-adv-x="341" 
d="M60.5 286q-27.5 27 -27.5 70q0 54 48.5 84t136.5 30h14v10q0 28 -21.5 45.5t-53.5 17.5q-49 0 -84 -26l-16 41q47 33 113 33q125 0 125 -139v-109q0 -42 5 -77h-59l-5 41h-2q-39 -48 -99 -48q-47 0 -74.5 27zM196.5 318.5q17.5 11.5 26.5 26.5t9 26v55h-15
q-119 0 -119 -66q0 -24 16.5 -38.5t40.5 -14.5t41.5 11.5z" />
    <glyph glyph-name="guillemetleft" unicode="&#xab;" horiz-adv-x="415" 
d="M29 252l131 184h70l-133 -184l133 -184h-70zM191 252l131 184h70l-133 -184l133 -184h-70z" />
    <glyph glyph-name="logicalnot" unicode="&#xac;" horiz-adv-x="596" 
d="M492 339h-452v60h516v-278h-64v218z" />
    <glyph glyph-name="softhyphen" unicode="&#xad;" horiz-adv-x="305" 
d="M30 238zM30 302h245v-64h-245v64z" />
    <glyph glyph-name="registered" unicode="&#xae;" horiz-adv-x="510" 
d="M142 263.5q-51 30.5 -80.5 82t-29.5 112.5t29.5 112.5t81 81.5t114.5 30t113.5 -30.5t79.5 -81.5t29 -112t-29 -112.5t-79.5 -82t-114.5 -30.5q-63 0 -114 30.5zM349 292.5q41 25.5 64 69.5t23 96t-23 95.5t-64 69t-92 25.5t-93 -25.5t-65.5 -69t-23.5 -95.5t23.5 -96
t65 -69.5t92.5 -25.5q52 0 93 25.5zM174 581q45 6 71 6q52 0 76.5 -17.5t24.5 -52.5q0 -48 -49 -61v-2q22 -5 30.5 -23t13.5 -49q6 -36 14 -50h-42q-8 8 -18 64q-7 43 -54 43h-27v-107h-40v249zM242 469q30 0 46 11.5t16 32.5q0 43 -61 43q-21 0 -29 -1v-86h28z" />
    <glyph glyph-name="macron" unicode="&#xaf;" 
d="M39 641h223v-55h-223v55z" />
    <glyph glyph-name="degree" unicode="&#xb0;" horiz-adv-x="315" 
d="M66 459q-36 38 -36 93q0 37 17.5 67.5t48 48t66.5 17.5q59 0 95 -38.5t36 -91.5q0 -39 -18.5 -69.5t-49 -47.5t-65.5 -17q-58 0 -94 38zM217.5 492q22.5 25 22.5 62q0 33 -19.5 59t-59.5 26q-37 0 -57.5 -26.5t-20.5 -62.5q0 -35 22.5 -59t55.5 -24q34 0 56.5 25z" />
    <glyph glyph-name="plusminus" unicode="&#xb1;" horiz-adv-x="596" 
d="M266 317h-226v60h226v195h64v-195h226v-60h-226v-200h-64v200zM40 60h516v-60h-516v60z" />
    <glyph glyph-name="twosuperior" unicode="&#xb2;" horiz-adv-x="301" 
d="M11 471l63 58q67 61 95.5 99.5t28.5 74.5q0 31 -18.5 50.5t-55.5 19.5q-42 0 -84 -31l-21 45q22 18 53.5 30t66.5 12q65 0 98 -34t33 -79q0 -52 -32.5 -95t-100.5 -102l-31 -29v-2h171v-54h-266v37z" />
    <glyph glyph-name="threesuperior" unicode="&#xb3;" horiz-adv-x="299" 
d="M55 435.5q-30 7.5 -47 19.5l18 52q15 -10 40 -18t51 -8q43 0 65 19.5t22 45.5q0 36 -31 54t-75 18h-25v45h26q33 0 61.5 16.5t29.5 47.5q0 21 -15.5 35t-47.5 14q-44 0 -83 -27l-17 48q20 13 49.5 22.5t63.5 9.5q60 0 90 -27.5t30 -67.5q0 -30 -20.5 -54t-56.5 -37v-2
q41 -5 67 -32t26 -64q0 -49 -41.5 -83t-114.5 -34q-35 0 -65 7.5z" />
    <glyph glyph-name="acute" unicode="&#xb4;" 
d="M189 693h95l-121 -143h-61z" />
    <glyph glyph-name="micro" unicode="&#xb5;" horiz-adv-x="543" 
d="M72 0zM74.5 -122q-2.5 53 -2.5 131v476h86v-286q0 -62 24.5 -100t81.5 -38q40 0 67.5 20t40.5 49.5t13 58.5v296h86v-341q0 -47 9.5 -66.5t38.5 -20.5l-7 -63q-13 -5 -28 -5q-36 0 -60.5 20.5t-28.5 63.5h-2q-19 -33 -54 -57.5t-82 -24.5q-35 0 -62.5 13t-41.5 39v-60
q0 -137 11 -181h-78q-9 23 -11.5 76z" />
    <glyph glyph-name="paragraph" unicode="&#xb6;" horiz-adv-x="508" 
d="M227 264q-46 0 -90.5 22.5t-73.5 66t-29 103.5q0 93 61.5 156.5t209.5 63.5q79 0 117 -9v-717h-62v666h-70v-666h-63v314z" />
    <glyph glyph-name="periodcentered" unicode="&#xb7;" horiz-adv-x="260" 
d="M87 288q-16 18 -16 45q0 28 16.5 45.5t42.5 17.5t42.5 -17.5t16.5 -45.5t-16.5 -45.5t-43.5 -17.5q-26 0 -42 18z" />
    <glyph glyph-name="cedilla" unicode="&#xb8;" 
d="M95.5 -201.5q-19.5 4.5 -32.5 12.5l14 44q24 -13 56 -13q18 0 30.5 8t12.5 23q0 36 -79 44l47 85h54l-32 -52q30 -6 50.5 -26t20.5 -49q0 -41 -30 -61t-73 -20q-19 0 -38.5 4.5z" />
    <glyph glyph-name="onesuperior" unicode="&#xb9;" horiz-adv-x="252" 
d="M111 763h-2l-71 -35l-11 52l93 44h60v-390h-69v329z" />
    <glyph glyph-name="ordmasculine" unicode="&#xba;" horiz-adv-x="350" 
d="M62.5 307q-41.5 46 -41.5 116q0 46 19 84.5t54 61t82 22.5q70 0 111.5 -45.5t41.5 -117.5q0 -46 -19 -84t-54.5 -60.5t-82.5 -22.5q-69 0 -110.5 46zM238 343.5q25 32.5 25 82.5q0 51 -24.5 83t-64.5 32q-39 0 -63 -33t-24 -84q0 -45 25 -79t63 -34t63 32.5z" />
    <glyph glyph-name="guillemetright" unicode="&#xbb;" horiz-adv-x="415" 
d="M156 252l-133 184h70l131 -184l-131 -184h-70zM318 252l-133 184h70l131 -184l-131 -184h-70z" />
    <glyph glyph-name="onequarter" unicode="&#xbc;" horiz-adv-x="750" 
d="M503 661h56l-378 -672h-55zM119 595h-2l-71 -35l-11 52l93 44h60v-390h-69v329zM578 103h-189v40l177 248h78v-239h56v-49h-56v-103h-66v103zM578 152v118q0 15 1.5 34.5t1.5 28.5h-2q-22 -43 -34 -59l-87 -120l1 -2h119z" />
    <glyph glyph-name="onehalf" unicode="&#xbd;" horiz-adv-x="750" 
d="M489 661h56l-378 -672h-55zM119 595h-2l-71 -35l-11 52l93 44h60v-390h-69v329zM433 37l63 58q67 61 95.5 99.5t28.5 74.5q0 31 -18.5 50.5t-55.5 19.5q-42 0 -84 -31l-21 45q22 18 53.5 30t66.5 12q65 0 98 -34t33 -79q0 -52 -32.5 -95t-100.5 -102l-31 -29v-2h171v-54
h-266v37z" />
    <glyph glyph-name="threequarters" unicode="&#xbe;" horiz-adv-x="750" 
d="M82 267.5q-30 7.5 -47 19.5l18 52q15 -10 40 -18t51 -8q43 0 65 19.5t22 45.5q0 36 -31 54t-75 18h-25v45h26q33 0 61.5 16.5t29.5 47.5q0 21 -15.5 35t-47.5 14q-44 0 -83 -27l-17 48q20 13 49.5 22.5t63.5 9.5q60 0 90 -27.5t30 -67.5q0 -30 -20.5 -54t-56.5 -37v-2
q41 -5 67 -32t26 -64q0 -49 -41.5 -83t-114.5 -34q-35 0 -65 7.5zM552 661h56l-378 -672h-55zM593 103h-189v40l177 248h78v-239h56v-49h-56v-103h-66v103zM593 152v118q0 15 1.5 34.5t1.5 28.5h-2q-22 -43 -34 -59l-87 -120l1 -2h119z" />
    <glyph glyph-name="questiondown" unicode="&#xbf;" horiz-adv-x="396" 
d="M201 381.5q-16 17.5 -16 45.5t16 45.5t43 17.5q26 0 42 -18t16 -45q0 -28 -16.5 -45.5t-42.5 -17.5t-42 17.5zM104.5 -163.5q-42.5 42.5 -42.5 104.5q0 46 21 84t65 90q30 36 43.5 67.5t13.5 66.5l-1 39h76q3 -33 3 -48q0 -75 -63 -151q-36 -43 -53 -74t-17 -63
q0 -39 24.5 -62.5t70.5 -24.5q27 0 54.5 8.5t46.5 22.5l24 -62q-25 -18 -63.5 -29t-78.5 -11q-81 0 -123.5 42.5z" />
    <glyph glyph-name="Agrave" unicode="&#xc0;" horiz-adv-x="600" 
d="M25 0zM249 674h104l224 -674h-92l-70 211h-233l-68 -211h-89zM398 279l-62 192q-9 26 -18 57.5l-13 46.5l-6 21h-2q-15 -64 -35 -124l-63 -193h199zM161 835h104l92 -117h-70z" />
    <glyph glyph-name="Aacute" unicode="&#xc1;" horiz-adv-x="600" 
d="M25 0zM249 674h104l224 -674h-92l-70 211h-233l-68 -211h-89zM398 279l-62 192q-9 26 -18 57.5l-13 46.5l-6 21h-2q-15 -64 -35 -124l-63 -193h199zM342 835h103l-129 -117h-68z" />
    <glyph glyph-name="Acircumflex" unicode="&#xc2;" horiz-adv-x="600" 
d="M25 0zM249 674h104l224 -674h-92l-70 211h-233l-68 -211h-89zM398 279l-62 192q-9 26 -18 57.5l-13 46.5l-6 21h-2q-15 -64 -35 -124l-63 -193h199zM272 832h63l105 -114h-72l-64 69h-2l-63 -69h-69z" />
    <glyph glyph-name="Atilde" unicode="&#xc3;" horiz-adv-x="600" 
d="M25 0zM249 674h104l224 -674h-92l-70 211h-233l-68 -211h-89zM398 279l-62 192q-9 26 -18 57.5l-13 46.5l-6 21h-2q-15 -64 -35 -124l-63 -193h199zM196 792q17 28 49 28q15 0 29.5 -6t33.5 -18q12 -7 23.5 -12.5t20.5 -5.5q12 0 19.5 12t9.5 33h44q0 -99 -67 -99
q-17 0 -32 6.5t-35 18.5q-28 17 -41 17q-20 0 -27 -48h-44q0 46 17 74z" />
    <glyph glyph-name="Adieresis" unicode="&#xc4;" horiz-adv-x="600" 
d="M25 0zM249 674h104l224 -674h-92l-70 211h-233l-68 -211h-89zM398 279l-62 192q-9 26 -18 57.5l-13 46.5l-6 21h-2q-15 -64 -35 -124l-63 -193h199zM178 734.5q-13 14.5 -13 35.5t14 35.5t34 14.5q21 0 34.5 -14.5t13.5 -35.5q0 -22 -13.5 -36t-35.5 -14q-21 0 -34 14.5z
M358.5 734.5q-13.5 14.5 -13.5 35.5t14 35.5t35 14.5q20 0 33.5 -14.5t13.5 -35.5q0 -22 -13.5 -36t-35.5 -14q-20 0 -33.5 14.5z" />
    <glyph glyph-name="Aring" unicode="&#xc5;" horiz-adv-x="600" 
d="M25 0zM249 674h104l224 -674h-92l-70 211h-233l-68 -211h-89zM398 279l-62 192q-9 26 -18 57.5l-13 46.5l-6 21h-2q-15 -64 -35 -124l-63 -193h199zM228 727q-28 25 -28 60q0 36 29 62t74 26t73 -25.5t28 -61.5t-29 -61t-72 -25q-47 0 -75 25zM338.5 753q13.5 14 13.5 36
t-13.5 35.5t-36.5 13.5t-36.5 -14.5t-13.5 -36.5q0 -19 14 -33.5t36 -14.5q23 0 36.5 14z" />
    <glyph glyph-name="AE" unicode="&#xc6;" horiz-adv-x="772" 
d="M301 674h413v-72h-279l25 -216h246v-72h-236l29 -242h242v-72h-317l-29 237h-201l-105 -237h-89zM386 307l-21 194l-4 37q-6 52 -8 74h-4q-15 -41 -43 -108l-84 -197h164z" />
    <glyph glyph-name="Ccedilla" unicode="&#xc7;" horiz-adv-x="566" 
d="M264.5 -201.5q-19.5 4.5 -32.5 12.5l14 44q24 -13 56 -13q18 0 30.5 8t12.5 23q0 36 -79 44l43 78q-129 18 -201 107t-72 229q0 106 44 186t122 124t178 44t155 -29l-21 -70q-55 27 -131 27q-78 0 -136 -34t-89 -97t-31 -148q0 -126 67 -199t185 -73q83 0 138 27l17 -69
q-61 -30 -175 -30l-24 -40q30 -6 50.5 -26t20.5 -49q0 -41 -30 -61t-73 -20q-19 0 -38.5 4.5z" />
    <glyph glyph-name="Egrave" unicode="&#xc8;" horiz-adv-x="482" 
d="M75 0zM75 674h357v-72h-271v-214h256v-72h-256v-244h286v-72h-372v674zM131 835h104l92 -117h-70z" />
    <glyph glyph-name="Eacute" unicode="&#xc9;" horiz-adv-x="482" 
d="M75 0zM75 674h357v-72h-271v-214h256v-72h-256v-244h286v-72h-372v674zM306 835h103l-129 -117h-68z" />
    <glyph glyph-name="Ecircumflex" unicode="&#xca;" horiz-adv-x="482" 
d="M75 0zM75 674h357v-72h-271v-214h256v-72h-256v-244h286v-72h-372v674zM230 832h63l105 -114h-72l-64 69h-2l-63 -69h-69z" />
    <glyph glyph-name="Edieresis" unicode="&#xcb;" horiz-adv-x="482" 
d="M75 0zM75 674h357v-72h-271v-214h256v-72h-256v-244h286v-72h-372v674zM135 734.5q-13 14.5 -13 35.5t14 35.5t34 14.5q21 0 34.5 -14.5t13.5 -35.5q0 -22 -13.5 -36t-35.5 -14q-21 0 -34 14.5zM315.5 734.5q-13.5 14.5 -13.5 35.5t14 35.5t35 14.5q20 0 33.5 -14.5
t13.5 -35.5q0 -22 -13.5 -36t-35.5 -14q-20 0 -33.5 14.5z" />
    <glyph glyph-name="Igrave" unicode="&#xcc;" horiz-adv-x="236" 
d="M0 0zM75 674h86v-674h-86v674zM-27 835h104l92 -117h-70z" />
    <glyph glyph-name="Iacute" unicode="&#xcd;" horiz-adv-x="236" 
d="M67 0zM75 674h86v-674h-86v674zM161 835h103l-129 -117h-68z" />
    <glyph glyph-name="Icircumflex" unicode="&#xce;" horiz-adv-x="236" 
d="M0 0zM75 674h86v-674h-86v674zM85 832h63l105 -114h-72l-64 69h-2l-63 -69h-69z" />
    <glyph glyph-name="Idieresis" unicode="&#xcf;" horiz-adv-x="236" 
d="M0 0zM75 674h86v-674h-86v674zM-7 734.5q-13 14.5 -13 35.5t14 35.5t34 14.5q21 0 34.5 -14.5t13.5 -35.5q0 -22 -13.5 -36t-35.5 -14q-21 0 -34 14.5zM173.5 734.5q-13.5 14.5 -13.5 35.5t14 35.5t35 14.5q20 0 33.5 -14.5t13.5 -35.5q0 -22 -13.5 -36t-35.5 -14
q-20 0 -33.5 14.5z" />
    <glyph glyph-name="Eth" unicode="&#xd0;" horiz-adv-x="661" 
d="M85 1v318h-81v66h81v280q89 14 179 14q181 0 271 -86t90 -240q0 -167 -99 -263t-288 -96q-94 0 -153 7zM462 138q72 74 72 212q0 127 -67.5 193t-197.5 66q-59 0 -98 -7v-217h176v-66h-176v-251q21 -4 84 -4q135 0 207 74z" />
    <glyph glyph-name="Ntilde" unicode="&#xd1;" horiz-adv-x="645" 
d="M75 0zM75 674h94l208 -339q72 -117 119 -220h2q-9 95 -9 279v280h81v-674h-87l-207 340q-82 134 -124 226l-2 -1q6 -106 6 -280v-285h-81v674zM227 792q17 28 49 28q15 0 29.5 -6t33.5 -18q12 -7 23.5 -12.5t20.5 -5.5q12 0 19.5 12t9.5 33h44q0 -99 -67 -99
q-17 0 -32 6.5t-35 18.5q-28 17 -41 17q-20 0 -27 -48h-44q0 46 17 74z" />
    <glyph glyph-name="Ograve" unicode="&#xd2;" horiz-adv-x="672" 
d="M36 0zM176 32.5q-67 43.5 -103.5 121.5t-36.5 177q0 103 38.5 183.5t107.5 125.5t159 45q87 0 154 -43t104 -121t37 -178q0 -105 -37.5 -185t-106.5 -124.5t-161 -44.5q-88 0 -155 43.5zM445 95q48 36 74 100t26 144q0 79 -26.5 142t-74 98.5t-108.5 35.5
q-62 0 -109.5 -36.5t-73.5 -100.5t-26 -145q0 -78 26 -140.5t73.5 -98t108.5 -35.5q62 0 110 36zM204 835h104l92 -117h-70z" />
    <glyph glyph-name="Oacute" unicode="&#xd3;" horiz-adv-x="672" 
d="M36 0zM176 32.5q-67 43.5 -103.5 121.5t-36.5 177q0 103 38.5 183.5t107.5 125.5t159 45q87 0 154 -43t104 -121t37 -178q0 -105 -37.5 -185t-106.5 -124.5t-161 -44.5q-88 0 -155 43.5zM445 95q48 36 74 100t26 144q0 79 -26.5 142t-74 98.5t-108.5 35.5
q-62 0 -109.5 -36.5t-73.5 -100.5t-26 -145q0 -78 26 -140.5t73.5 -98t108.5 -35.5q62 0 110 36zM386 835h103l-129 -117h-68z" />
    <glyph glyph-name="Ocircumflex" unicode="&#xd4;" horiz-adv-x="672" 
d="M36 0zM176 32.5q-67 43.5 -103.5 121.5t-36.5 177q0 103 38.5 183.5t107.5 125.5t159 45q87 0 154 -43t104 -121t37 -178q0 -105 -37.5 -185t-106.5 -124.5t-161 -44.5q-88 0 -155 43.5zM445 95q48 36 74 100t26 144q0 79 -26.5 142t-74 98.5t-108.5 35.5
q-62 0 -109.5 -36.5t-73.5 -100.5t-26 -145q0 -78 26 -140.5t73.5 -98t108.5 -35.5q62 0 110 36zM313 832h63l105 -114h-72l-64 69h-2l-63 -69h-69z" />
    <glyph glyph-name="Otilde" unicode="&#xd5;" horiz-adv-x="672" 
d="M36 0zM176 32.5q-67 43.5 -103.5 121.5t-36.5 177q0 103 38.5 183.5t107.5 125.5t159 45q87 0 154 -43t104 -121t37 -178q0 -105 -37.5 -185t-106.5 -124.5t-161 -44.5q-88 0 -155 43.5zM445 95q48 36 74 100t26 144q0 79 -26.5 142t-74 98.5t-108.5 35.5
q-62 0 -109.5 -36.5t-73.5 -100.5t-26 -145q0 -78 26 -140.5t73.5 -98t108.5 -35.5q62 0 110 36zM240 792q17 28 49 28q15 0 29.5 -6t33.5 -18q12 -7 23.5 -12.5t20.5 -5.5q12 0 19.5 12t9.5 33h44q0 -99 -67 -99q-17 0 -32 6.5t-35 18.5q-28 17 -41 17q-20 0 -27 -48h-44
q0 46 17 74z" />
    <glyph glyph-name="Odieresis" unicode="&#xd6;" horiz-adv-x="672" 
d="M36 0zM176 32.5q-67 43.5 -103.5 121.5t-36.5 177q0 103 38.5 183.5t107.5 125.5t159 45q87 0 154 -43t104 -121t37 -178q0 -105 -37.5 -185t-106.5 -124.5t-161 -44.5q-88 0 -155 43.5zM445 95q48 36 74 100t26 144q0 79 -26.5 142t-74 98.5t-108.5 35.5
q-62 0 -109.5 -36.5t-73.5 -100.5t-26 -145q0 -78 26 -140.5t73.5 -98t108.5 -35.5q62 0 110 36zM221 734.5q-13 14.5 -13 35.5t14 35.5t34 14.5q21 0 34.5 -14.5t13.5 -35.5q0 -22 -13.5 -36t-35.5 -14q-21 0 -34 14.5zM401.5 734.5q-13.5 14.5 -13.5 35.5t14 35.5t35 14.5
q20 0 33.5 -14.5t13.5 -35.5q0 -22 -13.5 -36t-35.5 -14q-20 0 -33.5 14.5z" />
    <glyph glyph-name="multiply" unicode="&#xd7;" horiz-adv-x="596" 
d="M40 44l215 219l-215 219l43 44l215 -219l215 219l43 -44l-215 -219l215 -219l-44 -44l-214 219l-215 -219z" />
    <glyph glyph-name="Oslash" unicode="&#xd8;" horiz-adv-x="672" 
d="M62 -3l58 84q-41 45 -62.5 109t-21.5 141q0 103 38.5 183.5t107.5 125.5t159 45q94 0 164 -51l55 79l52 -35l-60 -86q40 -46 62 -109.5t22 -139.5q0 -105 -37.5 -185t-106.5 -124.5t-161 -44.5q-94 0 -164 50l-56 -80zM459 567q-53 48 -123 48q-62 0 -109.5 -36.5
t-73.5 -100.5t-26 -145q0 -105 45 -178zM445 95q48 36 74 100t26 144q0 102 -45 178l-287 -412q52 -46 122 -46q62 0 110 36z" />
    <glyph glyph-name="Ugrave" unicode="&#xd9;" horiz-adv-x="635" 
d="M75 0zM135 62q-60 73 -60 212v400h86v-403q0 -100 40 -156t113 -56q79 0 119.5 54.5t40.5 157.5v403h86v-396q0 -139 -65 -214t-184 -75q-116 0 -176 73zM181 835h104l92 -117h-70z" />
    <glyph glyph-name="Uacute" unicode="&#xda;" horiz-adv-x="635" 
d="M75 0zM135 62q-60 73 -60 212v400h86v-403q0 -100 40 -156t113 -56q79 0 119.5 54.5t40.5 157.5v403h86v-396q0 -139 -65 -214t-184 -75q-116 0 -176 73zM366 835h103l-129 -117h-68z" />
    <glyph glyph-name="Ucircumflex" unicode="&#xdb;" horiz-adv-x="635" 
d="M75 0zM135 62q-60 73 -60 212v400h86v-403q0 -100 40 -156t113 -56q79 0 119.5 54.5t40.5 157.5v403h86v-396q0 -139 -65 -214t-184 -75q-116 0 -176 73zM285 832h63l105 -114h-72l-64 69h-2l-63 -69h-69z" />
    <glyph glyph-name="Udieresis" unicode="&#xdc;" horiz-adv-x="635" 
d="M75 0zM135 62q-60 73 -60 212v400h86v-403q0 -100 40 -156t113 -56q79 0 119.5 54.5t40.5 157.5v403h86v-396q0 -139 -65 -214t-184 -75q-116 0 -176 73zM193 734.5q-13 14.5 -13 35.5t14 35.5t34 14.5q21 0 34.5 -14.5t13.5 -35.5q0 -22 -13.5 -36t-35.5 -14
q-21 0 -34 14.5zM373.5 734.5q-13.5 14.5 -13.5 35.5t14 35.5t35 14.5q20 0 33.5 -14.5t13.5 -35.5q0 -22 -13.5 -36t-35.5 -14q-20 0 -33.5 14.5z" />
    <glyph glyph-name="Yacute" unicode="&#xdd;" horiz-adv-x="531" 
d="M13 0zM223 286l-210 388h98l92 -185q40 -81 66 -140h2q25 59 67 141l94 184h98l-221 -387v-287h-86v286zM309 835h103l-129 -117h-68z" />
    <glyph glyph-name="Thorn" unicode="&#xde;" horiz-adv-x="523" 
d="M75 674h86v-132q35 7 93 7q111 0 171 -50.5t60 -134.5q0 -99 -68 -155.5t-182 -56.5q-39 0 -74 5v-157h-86v674zM355 256.5q43 35.5 43 98.5q0 126 -152 126q-51 0 -85 -8v-246q29 -6 73 -6q78 0 121 35.5z" />
    <glyph glyph-name="germandbls" unicode="&#xdf;" horiz-adv-x="536" 
d="M217 10l15 66q39 -19 83 -19q45 0 71 23.5t26 60.5q0 51 -54 103q-76 73 -76 133q0 79 88 122q8 21 8 47q0 49 -28 77t-74 28q-118 0 -118 -196v-455h-86v452q0 134 55 201t155 67q52 0 93 -21t64 -59t23 -86q0 -50 -23 -85q-71 -30 -71 -80q0 -38 50 -88q48 -49 64 -80
t16 -73q0 -72 -48 -115t-129 -43q-62 0 -104 20z" />
    <glyph glyph-name="agrave" unicode="&#xe0;" horiz-adv-x="474" 
d="M35 0zM76 28q-41 38 -41 100q0 88 74 134.5t211 45.5v10q0 113 -108 113q-70 0 -123 -35l-20 58q65 41 157 41q180 0 180 -197v-183q0 -69 8 -115h-79l-8 60h-2q-49 -70 -145 -70q-63 0 -104 38zM247.5 61.5q19.5 7.5 38.5 24.5q35 32 35 76v85q-199 4 -199 -109
q0 -40 22.5 -62t58.5 -22q25 0 44.5 7.5zM100 693h96l87 -143h-62z" />
    <glyph glyph-name="aacute" unicode="&#xe1;" horiz-adv-x="474" 
d="M35 0zM76 28q-41 38 -41 100q0 88 74 134.5t211 45.5v10q0 113 -108 113q-70 0 -123 -35l-20 58q65 41 157 41q180 0 180 -197v-183q0 -69 8 -115h-79l-8 60h-2q-49 -70 -145 -70q-63 0 -104 38zM247.5 61.5q19.5 7.5 38.5 24.5q35 32 35 76v85q-199 4 -199 -109
q0 -40 22.5 -62t58.5 -22q25 0 44.5 7.5zM272 693h95l-121 -143h-61z" />
    <glyph glyph-name="acircumflex" unicode="&#xe2;" horiz-adv-x="474" 
d="M35 0zM76 28q-41 38 -41 100q0 88 74 134.5t211 45.5v10q0 113 -108 113q-70 0 -123 -35l-20 58q65 41 157 41q180 0 180 -197v-183q0 -69 8 -115h-79l-8 60h-2q-49 -70 -145 -70q-63 0 -104 38zM247.5 61.5q19.5 7.5 38.5 24.5q35 32 35 76v85q-199 4 -199 -109
q0 -40 22.5 -62t58.5 -22q25 0 44.5 7.5zM203 693h58l94 -143h-65l-57 94h-2l-57 -94h-63z" />
    <glyph glyph-name="atilde" unicode="&#xe3;" horiz-adv-x="474" 
d="M35 0zM76 28q-41 38 -41 100q0 88 74 134.5t211 45.5v10q0 113 -108 113q-70 0 -123 -35l-20 58q65 41 157 41q180 0 180 -197v-183q0 -69 8 -115h-79l-8 60h-2q-49 -70 -145 -70q-63 0 -104 38zM247.5 61.5q19.5 7.5 38.5 24.5q35 32 35 76v85q-199 4 -199 -109
q0 -40 22.5 -62t58.5 -22q25 0 44.5 7.5zM131 640q17 29 48 29q13 0 26.5 -5.5t35.5 -17.5q32 -19 46 -19q11 0 17.5 12t8.5 33h43q0 -100 -66 -100q-21 0 -63 23q-12 7 -23.5 12t-18.5 5q-23 0 -26 -46h-45q0 45 17 74z" />
    <glyph glyph-name="adieresis" unicode="&#xe4;" horiz-adv-x="474" 
d="M35 0zM76 28q-41 38 -41 100q0 88 74 134.5t211 45.5v10q0 113 -108 113q-70 0 -123 -35l-20 58q65 41 157 41q180 0 180 -197v-183q0 -69 8 -115h-79l-8 60h-2q-49 -70 -145 -70q-63 0 -104 38zM247.5 61.5q19.5 7.5 38.5 24.5q35 32 35 76v85q-199 4 -199 -109
q0 -40 22.5 -62t58.5 -22q25 0 44.5 7.5zM116.5 584.5q-13.5 14.5 -13.5 35.5t14.5 35.5t34.5 14.5q21 0 34.5 -14.5t13.5 -35.5t-14 -35.5t-35 -14.5t-34.5 14.5zM291.5 584.5q-13.5 14.5 -13.5 35.5t14 35.5t35 14.5t34.5 -14.5t13.5 -35.5t-14 -35.5t-35 -14.5
t-34.5 14.5z" />
    <glyph glyph-name="aring" unicode="&#xe5;" horiz-adv-x="474" 
d="M35 0zM76 28q-41 38 -41 100q0 88 74 134.5t211 45.5v10q0 113 -108 113q-70 0 -123 -35l-20 58q65 41 157 41q180 0 180 -197v-183q0 -69 8 -115h-79l-8 60h-2q-49 -70 -145 -70q-63 0 -104 38zM247.5 61.5q19.5 7.5 38.5 24.5q35 32 35 76v85q-199 4 -199 -109
q0 -40 22.5 -62t58.5 -22q25 0 44.5 7.5zM163 561q-28 26 -28 65q0 41 27.5 68t73.5 27q44 0 71.5 -27t27.5 -67t-28.5 -66t-71.5 -26q-44 0 -72 26zM270.5 589q14.5 16 14.5 39t-14.5 39t-37.5 16q-22 0 -35 -16.5t-13 -40.5q0 -21 13.5 -37t34.5 -16q23 0 37.5 16z" />
    <glyph glyph-name="ae" unicode="&#xe6;" horiz-adv-x="759" 
d="M75.5 29q-40.5 39 -40.5 99q0 84 73.5 129t199.5 45h15v15q0 52 -30.5 83.5t-81.5 31.5q-66 0 -122 -37l-20 57q67 43 148 43q121 0 154 -101h2q51 101 162 101q60 0 102.5 -29.5t64 -80t21.5 -111.5q0 -22 -3 -39h-317v-9q0 -80 41 -124.5t111 -44.5q73 0 128 27l16 -62
q-66 -32 -156 -32q-64 0 -112 27.5t-68 77.5h-2q-46 -105 -177 -105q-68 0 -108.5 39zM639 296v11q0 54 -31 89.5t-79 35.5q-41 0 -72.5 -25t-44.5 -63q-7 -22 -9 -48h236zM289 87q34 33 34 84v72h-15q-94 0 -140.5 -26.5t-46.5 -81.5q0 -36 23 -58.5t59 -22.5q52 0 86 33z
" />
    <glyph glyph-name="ccedilla" unicode="&#xe7;" horiz-adv-x="438" 
d="M191.5 -201.5q-19.5 4.5 -32.5 12.5l14 44q24 -13 56 -13q18 0 30.5 8t12.5 23q0 36 -79 44l43 77q-91 12 -144.5 77t-53.5 166q0 75 31.5 133.5t89.5 91.5t134 33q72 0 118 -25l-19 -67q-43 23 -99 23q-78 0 -122.5 -52t-44.5 -133t46 -131t119 -50q50 0 104 23l14 -66
q-52 -25 -122 -26l-25 -41q30 -6 50.5 -26t20.5 -49q0 -41 -30 -61t-73 -20q-19 0 -38.5 4.5z" />
    <glyph glyph-name="egrave" unicode="&#xe8;" horiz-adv-x="492" 
d="M38 0zM100.5 56q-62.5 66 -62.5 178q0 71 26 130.5t76.5 95t120.5 35.5q91 0 143 -62.5t52 -163.5q0 -26 -3 -43h-332q2 -79 44.5 -124t118.5 -45q72 0 130 24l15 -62q-66 -29 -158 -29q-108 0 -170.5 66zM372 289v5q0 59 -29.5 98.5t-88.5 39.5q-55 0 -89 -40.5
t-43 -102.5h250zM140 693h96l87 -143h-62z" />
    <glyph glyph-name="eacute" unicode="&#xe9;" horiz-adv-x="492" 
d="M38 0zM100.5 56q-62.5 66 -62.5 178q0 71 26 130.5t76.5 95t120.5 35.5q91 0 143 -62.5t52 -163.5q0 -26 -3 -43h-332q2 -79 44.5 -124t118.5 -45q72 0 130 24l15 -62q-66 -29 -158 -29q-108 0 -170.5 66zM372 289v5q0 59 -29.5 98.5t-88.5 39.5q-55 0 -89 -40.5
t-43 -102.5h250zM303 693h95l-121 -143h-61z" />
    <glyph glyph-name="ecircumflex" unicode="&#xea;" horiz-adv-x="492" 
d="M38 0zM100.5 56q-62.5 66 -62.5 178q0 71 26 130.5t76.5 95t120.5 35.5q91 0 143 -62.5t52 -163.5q0 -26 -3 -43h-332q2 -79 44.5 -124t118.5 -45q72 0 130 24l15 -62q-66 -29 -158 -29q-108 0 -170.5 66zM372 289v5q0 59 -29.5 98.5t-88.5 39.5q-55 0 -89 -40.5
t-43 -102.5h250zM235 693h58l94 -143h-65l-57 94h-2l-57 -94h-63z" />
    <glyph glyph-name="edieresis" unicode="&#xeb;" horiz-adv-x="492" 
d="M38 0zM100.5 56q-62.5 66 -62.5 178q0 71 26 130.5t76.5 95t120.5 35.5q91 0 143 -62.5t52 -163.5q0 -26 -3 -43h-332q2 -79 44.5 -124t118.5 -45q72 0 130 24l15 -62q-66 -29 -158 -29q-108 0 -170.5 66zM372 289v5q0 59 -29.5 98.5t-88.5 39.5q-55 0 -89 -40.5
t-43 -102.5h250zM141.5 587.5q-13.5 14.5 -13.5 35.5t14.5 35.5t34.5 14.5q21 0 34.5 -14.5t13.5 -35.5t-14 -35.5t-35 -14.5t-34.5 14.5zM316.5 587.5q-13.5 14.5 -13.5 35.5t14 35.5t35 14.5t34.5 -14.5t13.5 -35.5t-14 -35.5t-35 -14.5t-34.5 14.5z" />
    <glyph glyph-name="igrave" unicode="&#xec;" horiz-adv-x="230" 
d="M0 0zM72 485h86v-485h-86v485zM-22 693h96l87 -143h-62z" />
    <glyph glyph-name="iacute" unicode="&#xed;" horiz-adv-x="230" 
d="M72 0zM72 485h86v-485h-86v485zM159 693h95l-121 -143h-61z" />
    <glyph glyph-name="icircumflex" unicode="&#xee;" horiz-adv-x="230" 
d="M0 0zM72 485h86v-485h-86v485zM85 693h58l94 -143h-65l-57 94h-2l-57 -94h-63z" />
    <glyph glyph-name="idieresis" unicode="&#xef;" horiz-adv-x="230" 
d="M0 0zM72 485h86v-485h-86v485zM-7.5 587.5q-13.5 14.5 -13.5 35.5t14.5 35.5t34.5 14.5q21 0 34.5 -14.5t13.5 -35.5t-14 -35.5t-35 -14.5t-34.5 14.5zM167.5 587.5q-13.5 14.5 -13.5 35.5t14 35.5t35 14.5t34.5 -14.5t13.5 -35.5t-14 -35.5t-35 -14.5t-34.5 14.5z" />
    <glyph glyph-name="eth" unicode="&#xf0;" horiz-adv-x="527" 
d="M146 20.5q-51 30.5 -79.5 86.5t-28.5 129q0 71 28.5 127.5t79 89t113.5 32.5q62 0 106 -41l2 2q-41 68 -114 126l-139 -65l-19 43l113 54q-41 31 -102 61l39 54q74 -33 137 -81l125 60l22 -43l-105 -50q82 -70 123.5 -157t41.5 -196q0 -79 -28 -138.5t-79.5 -91.5
t-119.5 -32q-65 0 -116 30.5zM363 108.5q38 53.5 38 133.5q0 95 -36.5 139.5t-100.5 44.5q-41 0 -72.5 -25t-48.5 -68t-17 -95q0 -51 17.5 -92.5t48.5 -66t70 -24.5q63 0 101 53.5z" />
    <glyph glyph-name="ntilde" unicode="&#xf1;" horiz-adv-x="543" 
d="M68 0zM72 354q0 68 -4 131h76l5 -78h2q21 41 63 64.5t88 23.5q80 0 126 -52t46 -151v-292h-86v282q0 142 -109 142q-39 0 -69 -23t-45 -62q-7 -20 -7 -46v-293h-86v354zM186 640q17 29 48 29q13 0 26.5 -5.5t35.5 -17.5q32 -19 46 -19q11 0 17.5 12t8.5 33h43
q0 -100 -66 -100q-21 0 -63 23q-12 7 -23.5 12t-18.5 5q-23 0 -26 -46h-45q0 45 17 74z" />
    <glyph glyph-name="ograve" unicode="&#xf2;" horiz-adv-x="538" 
d="M38 0zM145.5 21.5q-51.5 31.5 -79.5 88t-28 128.5q0 75 29 133.5t82.5 91t123.5 32.5q67 0 118.5 -31.5t80 -88.5t28.5 -129q0 -75 -29 -133t-82.5 -90.5t-123.5 -32.5q-68 0 -119.5 31.5zM343 80.5q33 25.5 51 68.5t18 94q0 82 -39.5 134.5t-103.5 52.5q-65 0 -104 -53
t-39 -136q0 -52 17.5 -94.5t50 -67t74.5 -24.5t75 25.5zM156 693h96l87 -143h-62z" />
    <glyph glyph-name="oacute" unicode="&#xf3;" horiz-adv-x="538" 
d="M38 0zM145.5 21.5q-51.5 31.5 -79.5 88t-28 128.5q0 75 29 133.5t82.5 91t123.5 32.5q67 0 118.5 -31.5t80 -88.5t28.5 -129q0 -75 -29 -133t-82.5 -90.5t-123.5 -32.5q-68 0 -119.5 31.5zM343 80.5q33 25.5 51 68.5t18 94q0 82 -39.5 134.5t-103.5 52.5q-65 0 -104 -53
t-39 -136q0 -52 17.5 -94.5t50 -67t74.5 -24.5t75 25.5zM306 693h95l-121 -143h-61z" />
    <glyph glyph-name="ocircumflex" unicode="&#xf4;" horiz-adv-x="538" 
d="M38 0zM145.5 21.5q-51.5 31.5 -79.5 88t-28 128.5q0 75 29 133.5t82.5 91t123.5 32.5q67 0 118.5 -31.5t80 -88.5t28.5 -129q0 -75 -29 -133t-82.5 -90.5t-123.5 -32.5q-68 0 -119.5 31.5zM343 80.5q33 25.5 51 68.5t18 94q0 82 -39.5 134.5t-103.5 52.5q-65 0 -104 -53
t-39 -136q0 -52 17.5 -94.5t50 -67t74.5 -24.5t75 25.5zM246 693h58l94 -143h-65l-57 94h-2l-57 -94h-63z" />
    <glyph glyph-name="otilde" unicode="&#xf5;" horiz-adv-x="538" 
d="M38 0zM145.5 21.5q-51.5 31.5 -79.5 88t-28 128.5q0 75 29 133.5t82.5 91t123.5 32.5q67 0 118.5 -31.5t80 -88.5t28.5 -129q0 -75 -29 -133t-82.5 -90.5t-123.5 -32.5q-68 0 -119.5 31.5zM343 80.5q33 25.5 51 68.5t18 94q0 82 -39.5 134.5t-103.5 52.5q-65 0 -104 -53
t-39 -136q0 -52 17.5 -94.5t50 -67t74.5 -24.5t75 25.5zM172 640q17 29 48 29q13 0 26.5 -5.5t35.5 -17.5q32 -19 46 -19q11 0 17.5 12t8.5 33h43q0 -100 -66 -100q-21 0 -63 23q-12 7 -23.5 12t-18.5 5q-23 0 -26 -46h-45q0 45 17 74z" />
    <glyph glyph-name="odieresis" unicode="&#xf6;" horiz-adv-x="538" 
d="M38 0zM145.5 21.5q-51.5 31.5 -79.5 88t-28 128.5q0 75 29 133.5t82.5 91t123.5 32.5q67 0 118.5 -31.5t80 -88.5t28.5 -129q0 -75 -29 -133t-82.5 -90.5t-123.5 -32.5q-68 0 -119.5 31.5zM343 80.5q33 25.5 51 68.5t18 94q0 82 -39.5 134.5t-103.5 52.5q-65 0 -104 -53
t-39 -136q0 -52 17.5 -94.5t50 -67t74.5 -24.5t75 25.5zM153.5 587.5q-13.5 14.5 -13.5 35.5t14.5 35.5t34.5 14.5q21 0 34.5 -14.5t13.5 -35.5t-14 -35.5t-35 -14.5t-34.5 14.5zM328.5 587.5q-13.5 14.5 -13.5 35.5t14 35.5t35 14.5t34.5 -14.5t13.5 -35.5t-14 -35.5
t-35 -14.5t-34.5 14.5z" />
    <glyph glyph-name="divide" unicode="&#xf7;" horiz-adv-x="596" 
d="M260 402.5q-14 15.5 -14 39.5q0 25 14.5 40.5t38.5 15.5q23 0 37 -15.5t14 -40.5q0 -24 -14 -39.5t-38 -15.5t-38 15.5zM40 297h516v-60h-516v60zM260 51.5q-14 15.5 -14 39.5q0 25 14.5 40.5t38.5 15.5q23 0 37 -15.5t14 -40.5q0 -24 -14 -39.5t-38 -15.5t-38 15.5z" />
    <glyph glyph-name="oslash" unicode="&#xf8;" horiz-adv-x="538" 
d="M69 -7l40 58q-34 33 -52.5 81t-18.5 106q0 75 29 133.5t82.5 91t123.5 32.5q64 0 118 -33l40 58l40 -27l-42 -60q34 -33 52.5 -81.5t18.5 -105.5q0 -75 -29 -133t-82.5 -90.5t-123.5 -32.5q-65 0 -118 32l-41 -59zM351 401q-35 29 -82 29q-65 0 -105 -53.5t-40 -135.5
q0 -70 33 -124zM343.5 80.5q33.5 25.5 52 68.5t18.5 94q0 34 -8.5 66.5t-23.5 56.5l-195 -284q33 -27 81 -27q42 0 75.5 25.5z" />
    <glyph glyph-name="ugrave" unicode="&#xf9;" horiz-adv-x="540" 
d="M69 0zM112.5 43q-43.5 53 -43.5 156v286h86v-270q0 -154 106 -154q37 0 68.5 22.5t44.5 57.5q8 21 8 45v299h86v-353q0 -72 4 -132h-76l-5 77h-2q-51 -87 -157 -87q-76 0 -119.5 53zM145 693h96l87 -143h-62z" />
    <glyph glyph-name="uacute" unicode="&#xfa;" horiz-adv-x="540" 
d="M69 0zM112.5 43q-43.5 53 -43.5 156v286h86v-270q0 -154 106 -154q37 0 68.5 22.5t44.5 57.5q8 21 8 45v299h86v-353q0 -72 4 -132h-76l-5 77h-2q-51 -87 -157 -87q-76 0 -119.5 53zM316 693h95l-121 -143h-61z" />
    <glyph glyph-name="ucircumflex" unicode="&#xfb;" horiz-adv-x="540" 
d="M69 0zM112.5 43q-43.5 53 -43.5 156v286h86v-270q0 -154 106 -154q37 0 68.5 22.5t44.5 57.5q8 21 8 45v299h86v-353q0 -72 4 -132h-76l-5 77h-2q-51 -87 -157 -87q-76 0 -119.5 53zM243 693h58l94 -143h-65l-57 94h-2l-57 -94h-63z" />
    <glyph glyph-name="udieresis" unicode="&#xfc;" horiz-adv-x="540" 
d="M69 0zM112.5 43q-43.5 53 -43.5 156v286h86v-270q0 -154 106 -154q37 0 68.5 22.5t44.5 57.5q8 21 8 45v299h86v-353q0 -72 4 -132h-76l-5 77h-2q-51 -87 -157 -87q-76 0 -119.5 53zM151.5 587.5q-13.5 14.5 -13.5 35.5t14.5 35.5t34.5 14.5q21 0 34.5 -14.5t13.5 -35.5
t-14 -35.5t-35 -14.5t-34.5 14.5zM326.5 587.5q-13.5 14.5 -13.5 35.5t14 35.5t35 14.5t34.5 -14.5t13.5 -35.5t-14 -35.5t-35 -14.5t-34.5 14.5z" />
    <glyph glyph-name="yacute" unicode="&#xfd;" horiz-adv-x="461" 
d="M9 0zM34 -147q96 32 148 142q6 14 6 21t-5 22l-174 447h94l103 -287q16 -43 30 -98h3q18 65 30 100l93 285h92l-128 -344q-44 -117 -78.5 -186.5t-84.5 -116.5q-23 -22 -51 -37t-55 -21zM279 693h95l-121 -143h-61z" />
    <glyph glyph-name="thorn" unicode="&#xfe;" horiz-adv-x="558" 
d="M72 673h86v-265h2q56 87 153 87q59 0 106 -29.5t74 -85.5t27 -131q0 -80 -28 -139t-77 -89.5t-110 -30.5q-100 0 -145 74h-2v-262h-86v871zM394 109.5q38 50.5 38 135.5q0 78 -37.5 129.5t-101.5 51.5q-38 0 -69 -21t-48.5 -56t-17.5 -74v-79q0 -58 37.5 -97.5
t94.5 -39.5q66 0 104 50.5z" />
    <glyph glyph-name="ydieresis" unicode="&#xff;" horiz-adv-x="461" 
d="M9 0zM34 -147q96 32 148 142q6 14 6 21t-5 22l-174 447h94l103 -287q16 -43 30 -98h3q18 65 30 100l93 285h92l-128 -344q-44 -117 -78.5 -186.5t-84.5 -116.5q-23 -22 -51 -37t-55 -21zM112.5 587.5q-13.5 14.5 -13.5 35.5t14.5 35.5t34.5 14.5q21 0 34.5 -14.5
t13.5 -35.5t-14 -35.5t-35 -14.5t-34.5 14.5zM287.5 587.5q-13.5 14.5 -13.5 35.5t14 35.5t35 14.5t34.5 -14.5t13.5 -35.5t-14 -35.5t-35 -14.5t-34.5 14.5z" />
    <glyph glyph-name="Amacron" unicode="&#x100;" horiz-adv-x="600" 
d="M25 0zM249 674h104l224 -674h-92l-70 211h-233l-68 -211h-89zM398 279l-62 192q-9 26 -18 57.5l-13 46.5l-6 21h-2q-15 -64 -35 -124l-63 -193h199zM182 788h238v-55h-238v55z" />
    <glyph glyph-name="amacron" unicode="&#x101;" horiz-adv-x="474" 
d="M35 0zM76 28q-41 38 -41 100q0 88 74 134.5t211 45.5v10q0 113 -108 113q-70 0 -123 -35l-20 58q65 41 157 41q180 0 180 -197v-183q0 -69 8 -115h-79l-8 60h-2q-49 -70 -145 -70q-63 0 -104 38zM247.5 61.5q19.5 7.5 38.5 24.5q35 32 35 76v85q-199 4 -199 -109
q0 -40 22.5 -62t58.5 -22q25 0 44.5 7.5zM128 641h223v-55h-223v55z" />
    <glyph glyph-name="Abreve" unicode="&#x102;" horiz-adv-x="600" 
d="M25 0zM249 674h104l224 -674h-92l-70 211h-233l-68 -211h-89zM398 279l-62 192q-9 26 -18 57.5l-13 46.5l-6 21h-2q-15 -64 -35 -124l-63 -193h199zM212 752q-30 29 -32 77h52q5 -22 22 -37t50 -15q64 0 73 52h49q-2 -48 -32.5 -77t-90.5 -29q-61 0 -91 29z" />
    <glyph glyph-name="abreve" unicode="&#x103;" horiz-adv-x="474" 
d="M35 0zM76 28q-41 38 -41 100q0 88 74 134.5t211 45.5v10q0 113 -108 113q-70 0 -123 -35l-20 58q65 41 157 41q180 0 180 -197v-183q0 -69 8 -115h-79l-8 60h-2q-49 -70 -145 -70q-63 0 -104 38zM247.5 61.5q19.5 7.5 38.5 24.5q35 32 35 76v85q-199 4 -199 -109
q0 -40 22.5 -62t58.5 -22q25 0 44.5 7.5zM147.5 587.5q-31.5 32.5 -33.5 88.5h50q11 -69 69 -69q66 0 71 69h50q-1 -54 -33.5 -87.5t-86.5 -33.5q-55 0 -86.5 32.5z" />
    <glyph glyph-name="Aogonek" unicode="&#x104;" horiz-adv-x="600" 
d="M458.5 -178q-27.5 21 -27.5 60q0 33 15.5 62t38.5 56l-70 211h-233l-68 -211h-89l224 674h104l224 -674h-40q-17 -19 -30.5 -46t-13.5 -50q0 -24 14 -37t36 -13q24 0 46 10l14 -42q-32 -21 -76 -21q-41 0 -68.5 21zM398 279l-62 192q-9 26 -18 57.5l-13 46.5l-6 21h-2
q-15 -64 -35 -124l-63 -193h199z" />
    <glyph glyph-name="aogonek" unicode="&#x105;" horiz-adv-x="474" 
d="M311.5 -178.5q-24.5 20.5 -24.5 60.5q0 32 13.5 60t34.5 58l-8 60h-2q-49 -70 -145 -70q-63 0 -104 38t-41 100q0 88 74 134.5t211 45.5v10q0 113 -108 113q-70 0 -123 -35l-20 58q65 41 157 41q180 0 180 -197v-183q0 -69 8 -115h-26q-15 -21 -27 -47t-12 -49
q0 -24 14 -37t36 -13q24 0 46 10l14 -42q-28 -21 -83 -21q-40 0 -64.5 20.5zM247.5 61.5q19.5 7.5 38.5 24.5q35 32 35 76v85q-199 4 -199 -109q0 -40 22.5 -62t58.5 -22q25 0 44.5 7.5z" />
    <glyph glyph-name="Cacute" unicode="&#x106;" horiz-adv-x="566" 
d="M36 0zM193 31.5q-76 41.5 -116.5 118.5t-40.5 181q0 106 44 186t122 124t178 44t155 -29l-21 -70q-55 27 -131 27q-78 0 -136 -34t-89 -97t-31 -148q0 -126 67 -199t185 -73q83 0 138 27l17 -69q-61 -30 -161 -30q-104 0 -180 41.5zM392 835h103l-129 -117h-68z" />
    <glyph glyph-name="cacute" unicode="&#x107;" horiz-adv-x="438" 
d="M38 0zM150 21.5q-54 30.5 -83 86t-29 129.5q0 75 31.5 133.5t89.5 91.5t134 33q72 0 118 -25l-19 -67q-43 23 -99 23q-78 0 -122.5 -52t-44.5 -133t46 -131t119 -50q50 0 104 23l14 -66q-57 -26 -134 -26q-71 0 -125 30.5zM316 693h95l-121 -143h-61z" />
    <glyph glyph-name="Ccircumflex" unicode="&#x108;" horiz-adv-x="566" 
d="M36 0zM193 31.5q-76 41.5 -116.5 118.5t-40.5 181q0 106 44 186t122 124t178 44t155 -29l-21 -70q-55 27 -131 27q-78 0 -136 -34t-89 -97t-31 -148q0 -126 67 -199t185 -73q83 0 138 27l17 -69q-61 -30 -161 -30q-104 0 -180 41.5zM317 832h63l105 -114h-72l-64 69h-2
l-63 -69h-69z" />
    <glyph glyph-name="ccircumflex" unicode="&#x109;" horiz-adv-x="438" 
d="M38 0zM150 21.5q-54 30.5 -83 86t-29 129.5q0 75 31.5 133.5t89.5 91.5t134 33q72 0 118 -25l-19 -67q-43 23 -99 23q-78 0 -122.5 -52t-44.5 -133t46 -131t119 -50q50 0 104 23l14 -66q-57 -26 -134 -26q-71 0 -125 30.5zM228 693h58l94 -143h-65l-57 94h-2l-57 -94h-63
z" />
    <glyph glyph-name="Cdotaccent" unicode="&#x10a;" horiz-adv-x="566" 
d="M36 0zM193 31.5q-76 41.5 -116.5 118.5t-40.5 181q0 106 44 186t122 124t178 44t155 -29l-21 -70q-55 27 -131 27q-78 0 -136 -34t-89 -97t-31 -148q0 -126 67 -199t185 -73q83 0 138 27l17 -69q-61 -30 -161 -30q-104 0 -180 41.5zM314 735.5q-15 15.5 -15 36.5
q0 22 15 37t37 15q21 0 35 -15t14 -37t-14 -37t-36 -15q-21 0 -36 15.5z" />
    <glyph glyph-name="cdotaccent" unicode="&#x10b;" horiz-adv-x="438" 
d="M38 0zM150 21.5q-54 30.5 -83 86t-29 129.5q0 75 31.5 133.5t89.5 91.5t134 33q72 0 118 -25l-19 -67q-43 23 -99 23q-78 0 -122.5 -52t-44.5 -133t46 -131t119 -50q50 0 104 23l14 -66q-57 -26 -134 -26q-71 0 -125 30.5zM235 587.5q-14 14.5 -14 35.5t14.5 35.5
t35.5 14.5q20 0 33.5 -14.5t13.5 -35.5t-13.5 -35.5t-34.5 -14.5t-35 14.5z" />
    <glyph glyph-name="Ccaron" unicode="&#x10c;" horiz-adv-x="566" 
d="M36 0zM193 31.5q-76 41.5 -116.5 118.5t-40.5 181q0 106 44 186t122 124t178 44t155 -29l-21 -70q-55 27 -131 27q-78 0 -136 -34t-89 -97t-31 -148q0 -126 67 -199t185 -73q83 0 138 27l17 -69q-61 -30 -161 -30q-104 0 -180 41.5zM215 832h72l64 -69h2l63 69h69
l-102 -114h-63z" />
    <glyph glyph-name="ccaron" unicode="&#x10d;" horiz-adv-x="438" 
d="M38 0zM150 21.5q-54 30.5 -83 86t-29 129.5q0 75 31.5 133.5t89.5 91.5t134 33q72 0 118 -25l-19 -67q-43 23 -99 23q-78 0 -122.5 -52t-44.5 -133t46 -131t119 -50q50 0 104 23l14 -66q-57 -26 -134 -26q-71 0 -125 30.5zM138 693h65l57 -94h2l57 94h63l-92 -143h-58z
" />
    <glyph glyph-name="Dcaron" unicode="&#x10e;" horiz-adv-x="651" 
d="M75 0zM75 1v664q89 14 179 14q181 0 271 -86t90 -240q0 -167 -99 -263t-288 -96q-94 0 -153 7zM452 138q72 74 72 212q0 127 -67.5 193t-197.5 66q-59 0 -98 -7v-534q21 -4 84 -4q135 0 207 74zM172 832h72l64 -69h2l63 69h69l-102 -114h-63z" />
    <glyph glyph-name="dcaron" unicode="&#x10f;" horiz-adv-x="562" 
d="M38 0zM133 23q-46 33 -70.5 88.5t-24.5 123.5q0 74 26 133t74 93t112 34q99 0 142 -72h2v286h86v-585q0 -72 4 -124h-77l-4 82h-2q-47 -92 -160 -92q-62 0 -108 33zM331.5 78.5q29.5 19.5 46 52.5t16.5 70v88q0 57 -35 97t-92 40q-68 0 -105 -54.5t-37 -131.5
q0 -73 35.5 -127t104.5 -54q37 0 66.5 19.5zM525 551q37 44 37 89q0 18 -9 35.5t-23 29.5l63 14q15 -9 25.5 -29t10.5 -44q0 -48 -22.5 -78.5t-44.5 -45.5z" />
    <glyph glyph-name="Dcroat" unicode="&#x110;" horiz-adv-x="661" 
d="M4 0zM85 1v318h-81v66h81v280q89 14 179 14q181 0 271 -86t90 -240q0 -167 -99 -263t-288 -96q-94 0 -153 7zM462 138q72 74 72 212q0 127 -67.5 193t-197.5 66q-59 0 -98 -7v-217h176v-66h-176v-251q21 -4 84 -4q135 0 207 74z" />
    <glyph glyph-name="dcroat" unicode="&#x111;" horiz-adv-x="552" 
d="M133 23q-46 33 -70.5 88.5t-24.5 123.5q0 74 26 133t74 93t112 34q99 0 142 -72h2v155h-185v56h185v75h86v-75h75v-56h-75v-454q0 -72 4 -124h-77l-4 82h-2q-47 -92 -160 -92q-62 0 -108 33zM331.5 78.5q29.5 19.5 46 52.5t16.5 70v88q0 57 -35 97t-92 40
q-68 0 -105 -54.5t-37 -131.5q0 -73 35.5 -127t104.5 -54q37 0 66.5 19.5z" />
    <glyph glyph-name="Emacron" unicode="&#x112;" horiz-adv-x="482" 
d="M75 0zM75 674h357v-72h-271v-214h256v-72h-256v-244h286v-72h-372v674zM138 788h238v-55h-238v55z" />
    <glyph glyph-name="emacron" unicode="&#x113;" horiz-adv-x="492" 
d="M38 0zM100.5 56q-62.5 66 -62.5 178q0 71 26 130.5t76.5 95t120.5 35.5q91 0 143 -62.5t52 -163.5q0 -26 -3 -43h-332q2 -79 44.5 -124t118.5 -45q72 0 130 24l15 -62q-66 -29 -158 -29q-108 0 -170.5 66zM372 289v5q0 59 -29.5 98.5t-88.5 39.5q-55 0 -89 -40.5
t-43 -102.5h250zM154 641h223v-55h-223v55z" />
    <glyph glyph-name="Ebreve" unicode="&#x114;" horiz-adv-x="482" 
d="M75 0zM75 674h357v-72h-271v-214h256v-72h-256v-244h286v-72h-372v674zM173 752q-30 29 -32 77h52q5 -22 22 -37t50 -15q64 0 73 52h49q-2 -48 -32.5 -77t-90.5 -29q-61 0 -91 29z" />
    <glyph glyph-name="ebreve" unicode="&#x115;" horiz-adv-x="492" 
d="M38 0zM100.5 56q-62.5 66 -62.5 178q0 71 26 130.5t76.5 95t120.5 35.5q91 0 143 -62.5t52 -163.5q0 -26 -3 -43h-332q2 -79 44.5 -124t118.5 -45q72 0 130 24l15 -62q-66 -29 -158 -29q-108 0 -170.5 66zM372 289v5q0 59 -29.5 98.5t-88.5 39.5q-55 0 -89 -40.5
t-43 -102.5h250zM180.5 587.5q-31.5 32.5 -33.5 88.5h50q11 -69 69 -69q66 0 71 69h50q-1 -54 -33.5 -87.5t-86.5 -33.5q-55 0 -86.5 32.5z" />
    <glyph glyph-name="Edotaccent" unicode="&#x116;" horiz-adv-x="482" 
d="M75 0zM75 674h357v-72h-271v-214h256v-72h-256v-244h286v-72h-372v674zM229 735.5q-15 15.5 -15 36.5q0 22 15 37t37 15q21 0 35 -15t14 -37t-14 -37t-36 -15q-21 0 -36 15.5z" />
    <glyph glyph-name="edotaccent" unicode="&#x117;" horiz-adv-x="492" 
d="M38 0zM100.5 56q-62.5 66 -62.5 178q0 71 26 130.5t76.5 95t120.5 35.5q91 0 143 -62.5t52 -163.5q0 -26 -3 -43h-332q2 -79 44.5 -124t118.5 -45q72 0 130 24l15 -62q-66 -29 -158 -29q-108 0 -170.5 66zM372 289v5q0 59 -29.5 98.5t-88.5 39.5q-55 0 -89 -40.5
t-43 -102.5h250zM235 587.5q-14 14.5 -14 35.5t14.5 35.5t35.5 14.5q20 0 33.5 -14.5t13.5 -35.5t-13.5 -35.5t-34.5 -14.5t-35 14.5z" />
    <glyph glyph-name="Eogonek" unicode="&#x118;" horiz-adv-x="482" 
d="M312 -180.5q-27 18.5 -27 57.5q0 40 25.5 71t60.5 52h-296v674h357v-72h-271v-214h256v-72h-256v-244h286v-72h-13q-33 -19 -60 -49t-27 -58q0 -20 13.5 -29.5t36.5 -9.5q24 0 46 10l14 -42q-32 -21 -76 -21q-42 0 -69 18.5z" />
    <glyph glyph-name="eogonek" unicode="&#x119;" horiz-adv-x="492" 
d="M254 -180.5q-27 18.5 -27 57.5q0 29 22.5 59.5t52.5 54.5q-10 -1 -31 -1q-108 0 -170.5 66t-62.5 178q0 71 26 130.5t76.5 95t120.5 35.5q91 0 143 -62.5t52 -163.5q0 -26 -3 -43h-332q2 -79 44.5 -124t118.5 -45q72 0 130 24l15 -62q-14 -6 -46 -16q-34 -15 -64 -48
t-30 -62q0 -20 13.5 -29.5t36.5 -9.5q24 0 46 10l14 -42q-32 -21 -76 -21q-42 0 -69 18.5zM372 289v5q0 59 -29.5 98.5t-88.5 39.5q-55 0 -89 -40.5t-43 -102.5h250z" />
    <glyph glyph-name="Ecaron" unicode="&#x11a;" horiz-adv-x="482" 
d="M75 0zM75 674h357v-72h-271v-214h256v-72h-256v-244h286v-72h-372v674zM128 832h72l64 -69h2l63 69h69l-102 -114h-63z" />
    <glyph glyph-name="ecaron" unicode="&#x11b;" horiz-adv-x="492" 
d="M38 0zM100.5 56q-62.5 66 -62.5 178q0 71 26 130.5t76.5 95t120.5 35.5q91 0 143 -62.5t52 -163.5q0 -26 -3 -43h-332q2 -79 44.5 -124t118.5 -45q72 0 130 24l15 -62q-66 -29 -158 -29q-108 0 -170.5 66zM372 289v5q0 59 -29.5 98.5t-88.5 39.5q-55 0 -89 -40.5
t-43 -102.5h250zM149 693h65l57 -94h2l57 94h63l-92 -143h-58z" />
    <glyph glyph-name="Gcircumflex" unicode="&#x11c;" horiz-adv-x="632" 
d="M36 0zM193.5 34q-76.5 41 -117 117.5t-40.5 180.5q0 102 44.5 181.5t125 123.5t187.5 44q101 0 164 -30l-22 -70q-60 28 -144 28q-78 0 -137.5 -33t-93 -94.5t-33.5 -144.5q0 -127 68 -199.5t185 -72.5q76 0 112 17v202h-134v70h218v-326q-96 -35 -201 -35t-181.5 41z
M324 832h63l105 -114h-72l-64 69h-2l-63 -69h-69z" />
    <glyph glyph-name="gcircumflex" unicode="&#x11d;" horiz-adv-x="549" 
d="M38 0zM79 -170l21 68q62 -38 139 -38q152 0 152 167v55h-2q-47 -80 -149 -80q-61 0 -106.5 31t-70.5 85t-25 120q0 69 26 128t74.5 94t113.5 35q103 0 146 -82h2l4 72h77q-4 -52 -4 -134v-273q0 -146 -57.5 -216t-183.5 -70q-98 0 -157 38zM354.5 108q35.5 40 35.5 99v89
q0 57 -33.5 94t-90.5 37q-63 0 -102 -50.5t-39 -133.5q0 -78 38 -126.5t102 -48.5q54 0 89.5 40zM249 693h58l94 -143h-65l-57 94h-2l-57 -94h-63z" />
    <glyph glyph-name="Gbreve" unicode="&#x11e;" horiz-adv-x="632" 
d="M36 0zM193.5 34q-76.5 41 -117 117.5t-40.5 180.5q0 102 44.5 181.5t125 123.5t187.5 44q101 0 164 -30l-22 -70q-60 28 -144 28q-78 0 -137.5 -33t-93 -94.5t-33.5 -144.5q0 -127 68 -199.5t185 -72.5q76 0 112 17v202h-134v70h218v-326q-96 -35 -201 -35t-181.5 41z
M274 752q-30 29 -32 77h52q5 -22 22 -37t50 -15q64 0 73 52h49q-2 -48 -32.5 -77t-90.5 -29q-61 0 -91 29z" />
    <glyph glyph-name="gbreve" unicode="&#x11f;" horiz-adv-x="549" 
d="M38 0zM79 -170l21 68q62 -38 139 -38q152 0 152 167v55h-2q-47 -80 -149 -80q-61 0 -106.5 31t-70.5 85t-25 120q0 69 26 128t74.5 94t113.5 35q103 0 146 -82h2l4 72h77q-4 -52 -4 -134v-273q0 -146 -57.5 -216t-183.5 -70q-98 0 -157 38zM354.5 108q35.5 40 35.5 99v89
q0 57 -33.5 94t-90.5 37q-63 0 -102 -50.5t-39 -133.5q0 -78 38 -126.5t102 -48.5q54 0 89.5 40zM188.5 587.5q-31.5 32.5 -33.5 88.5h50q11 -69 69 -69q66 0 71 69h50q-1 -54 -33.5 -87.5t-86.5 -33.5q-55 0 -86.5 32.5z" />
    <glyph glyph-name="Gdotaccent" unicode="&#x120;" horiz-adv-x="632" 
d="M36 0zM193.5 34q-76.5 41 -117 117.5t-40.5 180.5q0 102 44.5 181.5t125 123.5t187.5 44q101 0 164 -30l-22 -70q-60 28 -144 28q-78 0 -137.5 -33t-93 -94.5t-33.5 -144.5q0 -127 68 -199.5t185 -72.5q76 0 112 17v202h-134v70h218v-326q-96 -35 -201 -35t-181.5 41z
M332 735.5q-15 15.5 -15 36.5q0 22 15 37t37 15q21 0 35 -15t14 -37t-14 -37t-36 -15q-21 0 -36 15.5z" />
    <glyph glyph-name="gdotaccent" unicode="&#x121;" horiz-adv-x="549" 
d="M38 0zM79 -170l21 68q62 -38 139 -38q152 0 152 167v55h-2q-47 -80 -149 -80q-61 0 -106.5 31t-70.5 85t-25 120q0 69 26 128t74.5 94t113.5 35q103 0 146 -82h2l4 72h77q-4 -52 -4 -134v-273q0 -146 -57.5 -216t-183.5 -70q-98 0 -157 38zM354.5 108q35.5 40 35.5 99v89
q0 57 -33.5 94t-90.5 37q-63 0 -102 -50.5t-39 -133.5q0 -78 38 -126.5t102 -48.5q54 0 89.5 40zM233 587.5q-14 14.5 -14 35.5t14.5 35.5t35.5 14.5q20 0 33.5 -14.5t13.5 -35.5t-13.5 -35.5t-34.5 -14.5t-35 14.5z" />
    <glyph glyph-name="Gcommaaccent" unicode="&#x122;" horiz-adv-x="632" 
d="M36 0zM193.5 34q-76.5 41 -117 117.5t-40.5 180.5q0 102 44.5 181.5t125 123.5t187.5 44q101 0 164 -30l-22 -70q-60 28 -144 28q-78 0 -137.5 -33t-93 -94.5t-33.5 -144.5q0 -127 68 -199.5t185 -72.5q76 0 112 17v202h-134v70h218v-326q-96 -35 -201 -35t-181.5 41z
M280 -187q33 6 54 22t21 44q0 16 -9.5 32t-24.5 28l60 13q16 -11 27.5 -30.5t11.5 -41.5q0 -49 -36.5 -76.5t-86.5 -30.5z" />
    <glyph glyph-name="gcommaaccent" unicode="&#x123;" horiz-adv-x="549" 
d="M38 0zM79 -170l21 68q62 -38 139 -38q152 0 152 167v55h-2q-47 -80 -149 -80q-61 0 -106.5 31t-70.5 85t-25 120q0 69 26 128t74.5 94t113.5 35q103 0 146 -82h2l4 72h77q-4 -52 -4 -134v-273q0 -146 -57.5 -216t-183.5 -70q-98 0 -157 38zM354.5 108q35.5 40 35.5 99v89
q0 57 -33.5 94t-90.5 37q-63 0 -102 -50.5t-39 -133.5q0 -78 38 -126.5t102 -48.5q54 0 89.5 40zM225.5 570.5q-11.5 19.5 -11.5 41.5q0 49 36.5 76.5t86.5 30.5l17 -40q-33 -6 -54 -22t-21 -44q0 -16 9.5 -32t24.5 -28l-60 -13q-16 11 -27.5 30.5z" />
    <glyph glyph-name="Hcircumflex" unicode="&#x124;" horiz-adv-x="640" 
d="M75 0zM75 674h86v-283h318v283h86v-674h-86v317h-318v-317h-86v674zM287 832h63l105 -114h-72l-64 69h-2l-63 -69h-69z" />
    <glyph glyph-name="hcircumflex" unicode="&#x125;" horiz-adv-x="543" 
d="M0 0zM72 709h86v-298h2q23 39 63.5 61.5t86.5 22.5q80 0 122 -56.5t42 -147.5v-291h-86v283q0 141 -109 141q-39 0 -71 -24t-45 -63q-5 -18 -5 -41v-296h-86v709zM84 842h63l105 -114h-72l-64 69h-2l-63 -69h-69z" />
    <glyph glyph-name="Hbar" unicode="&#x126;" horiz-adv-x="646" 
d="M78 510h-71v66h71v98h86v-98h318v98h86v-98h71v-66h-71v-510h-86v317h-318v-317h-86v510zM482 391v119h-318v-119h318z" />
    <glyph glyph-name="hbar" unicode="&#x127;" horiz-adv-x="543" 
d="M0 0zM72 578h-75v56h75v75h86v-75h164v-56h-164v-167h2q23 39 63.5 61.5t86.5 22.5q80 0 122 -56.5t42 -147.5v-291h-86v283q0 141 -109 141q-39 0 -71 -24t-45 -63q-5 -18 -5 -41v-296h-86v578z" />
    <glyph glyph-name="Itilde" unicode="&#x128;" horiz-adv-x="236" 
d="M0 0zM75 674h86v-674h-86v674zM12 792q17 28 49 28q15 0 29.5 -6t33.5 -18q12 -7 23.5 -12.5t20.5 -5.5q12 0 19.5 12t9.5 33h44q0 -99 -67 -99q-17 0 -32 6.5t-35 18.5q-28 17 -41 17q-20 0 -27 -48h-44q0 46 17 74z" />
    <glyph glyph-name="itilde" unicode="&#x129;" horiz-adv-x="230" 
d="M0 0zM72 485h86v-485h-86v485zM11 640q17 29 48 29q13 0 26.5 -5.5t35.5 -17.5q32 -19 46 -19q11 0 17.5 12t8.5 33h43q0 -100 -66 -100q-21 0 -63 23q-12 7 -23.5 12t-18.5 5q-23 0 -26 -46h-45q0 45 17 74z" />
    <glyph glyph-name="Imacron" unicode="&#x12a;" horiz-adv-x="236" 
d="M0 0zM75 674h86v-674h-86v674zM-1 788h238v-55h-238v55z" />
    <glyph glyph-name="imacron" unicode="&#x12b;" horiz-adv-x="230" 
d="M3 0zM72 485h86v-485h-86v485zM3 641h223v-55h-223v55z" />
    <glyph glyph-name="Ibreve" unicode="&#x12c;" horiz-adv-x="236" 
d="M0 0zM75 674h86v-674h-86v674zM27 752q-30 29 -32 77h52q5 -22 22 -37t50 -15q64 0 73 52h49q-2 -48 -32.5 -77t-90.5 -29q-61 0 -91 29z" />
    <glyph glyph-name="ibreve" unicode="&#x12d;" horiz-adv-x="230" 
d="M0 0zM72 485h86v-485h-86v485zM28.5 587.5q-31.5 32.5 -33.5 88.5h50q11 -69 69 -69q66 0 71 69h50q-1 -54 -33.5 -87.5t-86.5 -33.5q-55 0 -86.5 32.5z" />
    <glyph glyph-name="Iogonek" unicode="&#x12e;" horiz-adv-x="236" 
d="M53.5 -178q-27.5 21 -27.5 60q0 33 13 60t36 60v672h86v-674h-34q-15 -21 -27 -47t-12 -49q0 -24 14 -37t36 -13q24 0 46 10l14 -42q-32 -21 -76 -21q-41 0 -68.5 21z" />
    <glyph glyph-name="iogonek" unicode="&#x12f;" horiz-adv-x="230" 
d="M74.5 584q-15.5 16 -15.5 40t16 40t40 16q25 0 40.5 -15.5t15.5 -40.5t-16 -40.5t-41 -15.5q-24 0 -39.5 16zM51.5 -178q-27.5 21 -27.5 60q0 32 13.5 60t34.5 58v485h86v-485h-33q-15 -21 -27 -47t-12 -49q0 -24 14 -37t36 -13q24 0 46 10l14 -42q-32 -21 -76 -21
q-41 0 -68.5 21z" />
    <glyph glyph-name="Idotaccent" unicode="&#x130;" horiz-adv-x="236" 
d="M67 0zM75 674h86v-674h-86v674zM82 735.5q-15 15.5 -15 36.5q0 22 15 37t37 15q21 0 35 -15t14 -37t-14 -37t-36 -15q-21 0 -36 15.5z" />
    <glyph glyph-name="idotless" unicode="&#x131;" horiz-adv-x="230" 
d="M72 485h86v-485h-86v485z" />
    <glyph glyph-name="IJ" unicode="&#x132;" horiz-adv-x="599" 
d="M75 0zM75 674h86v-674h-86v674zM240 3l12 71q33 -12 72 -12q65 0 93 39.5t28 126.5v446h86v-443q0 -122 -50 -182t-151 -60q-51 0 -90 14z" />
    <glyph glyph-name="ij" unicode="&#x133;" horiz-adv-x="471" 
d="M59 0zM74.5 584q-15.5 16 -15.5 40t16 40t40 16q25 0 40.5 -15.5t15.5 -40.5t-16 -40.5t-41 -15.5q-24 0 -39.5 16zM72 485h86v-485h-86v485zM315.5 584q-15.5 16 -15.5 40t16 40t40 16q25 0 40.5 -15.5t15.5 -40.5t-16 -40.5t-41 -15.5q-24 0 -39.5 16zM187 -140
q64 4 93 37q33 38 33 179v409h86v-441q0 -140 -57 -197q-52 -54 -146 -55z" />
    <glyph glyph-name="Jcircumflex" unicode="&#x134;" horiz-adv-x="363" 
d="M4 0zM4 3l12 71q33 -12 72 -12q65 0 93 39.5t28 126.5v446h86v-443q0 -122 -50 -182t-151 -60q-51 0 -90 14zM219 832h63l105 -114h-72l-64 69h-2l-63 -69h-69z" />
    <glyph glyph-name="jcircumflex" unicode="&#x135;" horiz-adv-x="241" 
d="M0 0zM-43 -140q64 4 93 37q33 38 33 179v409h86v-441q0 -140 -57 -197q-52 -54 -146 -55zM96 693h58l94 -143h-65l-57 94h-2l-57 -94h-63z" />
    <glyph glyph-name="Kcommaaccent" unicode="&#x136;" horiz-adv-x="533" 
d="M75 0zM75 674h86v-325h3q14 20 55 73l198 252h106l-238 -287l257 -387h-102l-216 330l-63 -73v-257h-86v674zM207 -177q33 6 54 22t21 44q0 16 -9.5 32t-24.5 28l60 13q16 -11 27.5 -30.5t11.5 -41.5q0 -49 -36.5 -76.5t-86.5 -30.5z" />
    <glyph glyph-name="kcommaaccent" unicode="&#x137;" horiz-adv-x="461" 
d="M72 0zM72 709h86v-446h2q20 27 43 54l138 168h104l-183 -201l208 -284h-106l-162 232l-44 -49v-183h-86v709zM172 -177q33 6 54 22t21 44q0 16 -9.5 32t-24.5 28l60 13q16 -11 27.5 -30.5t11.5 -41.5q0 -49 -36.5 -76.5t-86.5 -30.5z" />
    <glyph glyph-name="kgreenlandic" unicode="&#x138;" horiz-adv-x="461" 
d="M72 485h86v-222h2q20 27 43 54l138 168h104l-183 -201l208 -284h-106l-162 232l-44 -49v-183h-86v485z" />
    <glyph glyph-name="Lacute" unicode="&#x139;" horiz-adv-x="463" 
d="M75 0zM75 674h86v-602h282v-72h-368v674zM179 835h103l-129 -117h-68z" />
    <glyph glyph-name="lacute" unicode="&#x13a;" horiz-adv-x="230" 
d="M62 0zM72 709h86v-709h-86v709zM156 855h103l-129 -117h-68z" />
    <glyph glyph-name="Lcommaaccent" unicode="&#x13b;" horiz-adv-x="463" 
d="M75 0zM75 674h86v-602h282v-72h-368v674zM185 -187q33 6 54 22t21 44q0 16 -9.5 32t-24.5 28l60 13q16 -11 27.5 -30.5t11.5 -41.5q0 -49 -36.5 -76.5t-86.5 -30.5z" />
    <glyph glyph-name="lcommaaccent" unicode="&#x13c;" horiz-adv-x="230" 
d="M37 0zM72 709h86v-709h-86v709zM37 -187q33 6 54 22t21 44q0 16 -9.5 32t-24.5 28l60 13q16 -11 27.5 -30.5t11.5 -41.5q0 -49 -36.5 -76.5t-86.5 -30.5z" />
    <glyph glyph-name="Lcaron" unicode="&#x13d;" horiz-adv-x="463" 
d="M75 0zM75 674h86v-602h282v-72h-368v674zM244 546q33 6 54 22t21 44q0 16 -9.5 32t-24.5 28l60 13q16 -11 27.5 -30.5t11.5 -41.5q0 -49 -36.5 -76.5t-86.5 -30.5z" />
    <glyph glyph-name="lcaron" unicode="&#x13e;" horiz-adv-x="240" 
d="M72 0zM72 709h86v-709h-86v709zM203 551q37 44 37 89q0 18 -9 35.5t-23 29.5l63 14q15 -9 25.5 -29t10.5 -44q0 -48 -22.5 -78.5t-44.5 -45.5z" />
    <glyph glyph-name="Ldot" unicode="&#x13f;" horiz-adv-x="463" 
d="M75 0zM75 674h86v-602h282v-72h-368v674zM295 326.5q-15 15.5 -15 36.5q0 22 15 37t37 15q21 0 35 -15t14 -37t-14 -37t-36 -15q-21 0 -36 15.5z" />
    <glyph glyph-name="ldot" unicode="&#x140;" horiz-adv-x="272" 
d="M72 0zM72 709h86v-709h-86v709zM216 344.5q-14 14.5 -14 35.5t14.5 35.5t35.5 14.5q20 0 33.5 -14.5t13.5 -35.5t-13.5 -35.5t-34.5 -14.5t-35 14.5z" />
    <glyph glyph-name="Lslash" unicode="&#x141;" horiz-adv-x="473" 
d="M85 270l-84 -62v68l84 61v337h86v-277l134 97v-69l-134 -96v-257h282v-72h-368v270z" />
    <glyph glyph-name="lslash" unicode="&#x142;" horiz-adv-x="240" 
d="M77 288l-68 -58v69l68 59v351h86v-284l71 61v-70l-71 -61v-355h-86v288z" />
    <glyph glyph-name="Nacute" unicode="&#x143;" horiz-adv-x="645" 
d="M75 0zM75 674h94l208 -339q72 -117 119 -220h2q-9 95 -9 279v280h81v-674h-87l-207 340q-82 134 -124 226l-2 -1q6 -106 6 -280v-285h-81v674zM381 835h103l-129 -117h-68z" />
    <glyph glyph-name="nacute" unicode="&#x144;" horiz-adv-x="543" 
d="M68 0zM72 354q0 68 -4 131h76l5 -78h2q21 41 63 64.5t88 23.5q80 0 126 -52t46 -151v-292h-86v282q0 142 -109 142q-39 0 -69 -23t-45 -62q-7 -20 -7 -46v-293h-86v354zM319 693h95l-121 -143h-61z" />
    <glyph glyph-name="Ncommaaccent" unicode="&#x145;" horiz-adv-x="645" 
d="M75 0zM75 674h94l208 -339q72 -117 119 -220h2q-9 95 -9 279v280h81v-674h-87l-207 340q-82 134 -124 226l-2 -1q6 -106 6 -280v-285h-81v674zM238 -177q33 6 54 22t21 44q0 16 -9.5 32t-24.5 28l60 13q16 -11 27.5 -30.5t11.5 -41.5q0 -49 -36.5 -76.5t-86.5 -30.5z" />
    <glyph glyph-name="ncommaaccent" unicode="&#x146;" horiz-adv-x="543" 
d="M68 0zM72 354q0 68 -4 131h76l5 -78h2q21 41 63 64.5t88 23.5q80 0 126 -52t46 -151v-292h-86v282q0 142 -109 142q-39 0 -69 -23t-45 -62q-7 -20 -7 -46v-293h-86v354zM187 -177q33 6 54 22t21 44q0 16 -9.5 32t-24.5 28l60 13q16 -11 27.5 -30.5t11.5 -41.5
q0 -49 -36.5 -76.5t-86.5 -30.5z" />
    <glyph glyph-name="Ncaron" unicode="&#x147;" horiz-adv-x="645" 
d="M75 0zM75 674h94l208 -339q72 -117 119 -220h2q-9 95 -9 279v280h81v-674h-87l-207 340q-82 134 -124 226l-2 -1q6 -106 6 -280v-285h-81v674zM199 832h72l64 -69h2l63 69h69l-102 -114h-63z" />
    <glyph glyph-name="ncaron" unicode="&#x148;" horiz-adv-x="543" 
d="M68 0zM72 354q0 68 -4 131h76l5 -78h2q21 41 63 64.5t88 23.5q80 0 126 -52t46 -151v-292h-86v282q0 142 -109 142q-39 0 -69 -23t-45 -62q-7 -20 -7 -46v-293h-86v354zM169 693h65l57 -94h2l57 94h63l-92 -143h-58z" />
    <glyph glyph-name="napostrophe" unicode="&#x149;" horiz-adv-x="543" 
d="M10 0zM72 354q0 68 -4 131h76l5 -78h2q21 41 63 64.5t88 23.5q80 0 126 -52t46 -151v-292h-86v282q0 142 -109 142q-39 0 -69 -23t-45 -62q-7 -20 -7 -46v-293h-86v354zM10 551q37 44 37 89q0 18 -9 35.5t-23 29.5l63 14q15 -9 25.5 -29t10.5 -44q0 -48 -22.5 -78.5
t-44.5 -45.5z" />
    <glyph glyph-name="Eng" unicode="&#x14a;" horiz-adv-x="645" 
d="M358 -140q71 5 97 37q12 14 21 39.5t12 59.5l-212 344q-82 134 -124 226l-2 -1q6 -106 6 -280v-285h-81v674h94l208 -339q72 -117 119 -220h2q-9 95 -9 279v280h81v-630q0 -140 -57 -197q-52 -54 -146 -55z" />
    <glyph glyph-name="eng" unicode="&#x14b;" horiz-adv-x="543" 
d="M269 -111q58 12 88 52q31 41 31 119v222q0 142 -109 142q-39 0 -69 -23t-45 -62q-7 -20 -7 -46v-293h-86v354q0 68 -4 131h76l5 -78h2q21 41 63 64.5t88 23.5q80 0 126 -52t46 -151v-233q0 -108 -54 -170q-48 -55 -136 -68z" />
    <glyph glyph-name="Omacron" unicode="&#x14c;" horiz-adv-x="672" 
d="M36 0zM176 32.5q-67 43.5 -103.5 121.5t-36.5 177q0 103 38.5 183.5t107.5 125.5t159 45q87 0 154 -43t104 -121t37 -178q0 -105 -37.5 -185t-106.5 -124.5t-161 -44.5q-88 0 -155 43.5zM445 95q48 36 74 100t26 144q0 79 -26.5 142t-74 98.5t-108.5 35.5
q-62 0 -109.5 -36.5t-73.5 -100.5t-26 -145q0 -78 26 -140.5t73.5 -98t108.5 -35.5q62 0 110 36zM230 788h238v-55h-238v55z" />
    <glyph glyph-name="omacron" unicode="&#x14d;" horiz-adv-x="538" 
d="M38 0zM145.5 21.5q-51.5 31.5 -79.5 88t-28 128.5q0 75 29 133.5t82.5 91t123.5 32.5q67 0 118.5 -31.5t80 -88.5t28.5 -129q0 -75 -29 -133t-82.5 -90.5t-123.5 -32.5q-68 0 -119.5 31.5zM343 80.5q33 25.5 51 68.5t18 94q0 82 -39.5 134.5t-103.5 52.5q-65 0 -104 -53
t-39 -136q0 -52 17.5 -94.5t50 -67t74.5 -24.5t75 25.5zM165 641h223v-55h-223v55z" />
    <glyph glyph-name="Obreve" unicode="&#x14e;" horiz-adv-x="672" 
d="M36 0zM176 32.5q-67 43.5 -103.5 121.5t-36.5 177q0 103 38.5 183.5t107.5 125.5t159 45q87 0 154 -43t104 -121t37 -178q0 -105 -37.5 -185t-106.5 -124.5t-161 -44.5q-88 0 -155 43.5zM445 95q48 36 74 100t26 144q0 79 -26.5 142t-74 98.5t-108.5 35.5
q-62 0 -109.5 -36.5t-73.5 -100.5t-26 -145q0 -78 26 -140.5t73.5 -98t108.5 -35.5q62 0 110 36zM255 752q-30 29 -32 77h52q5 -22 22 -37t50 -15q64 0 73 52h49q-2 -48 -32.5 -77t-90.5 -29q-61 0 -91 29z" />
    <glyph glyph-name="obreve" unicode="&#x14f;" horiz-adv-x="538" 
d="M38 0zM145.5 21.5q-51.5 31.5 -79.5 88t-28 128.5q0 75 29 133.5t82.5 91t123.5 32.5q67 0 118.5 -31.5t80 -88.5t28.5 -129q0 -75 -29 -133t-82.5 -90.5t-123.5 -32.5q-68 0 -119.5 31.5zM343 80.5q33 25.5 51 68.5t18 94q0 82 -39.5 134.5t-103.5 52.5q-65 0 -104 -53
t-39 -136q0 -52 17.5 -94.5t50 -67t74.5 -24.5t75 25.5zM190.5 587.5q-31.5 32.5 -33.5 88.5h50q11 -69 69 -69q66 0 71 69h50q-1 -54 -33.5 -87.5t-86.5 -33.5q-55 0 -86.5 32.5z" />
    <glyph glyph-name="Ohungarumlaut" unicode="&#x150;" horiz-adv-x="672" 
d="M36 0zM176 32.5q-67 43.5 -103.5 121.5t-36.5 177q0 103 38.5 183.5t107.5 125.5t159 45q87 0 154 -43t104 -121t37 -178q0 -105 -37.5 -185t-106.5 -124.5t-161 -44.5q-88 0 -155 43.5zM445 95q48 36 74 100t26 144q0 79 -26.5 142t-74 98.5t-108.5 35.5
q-62 0 -109.5 -36.5t-73.5 -100.5t-26 -145q0 -78 26 -140.5t73.5 -98t108.5 -35.5q62 0 110 36zM318 835h93l-115 -117h-62zM463 835h93l-115 -117h-62z" />
    <glyph glyph-name="ohungarumlaut" unicode="&#x151;" horiz-adv-x="538" 
d="M38 0zM145.5 21.5q-51.5 31.5 -79.5 88t-28 128.5q0 75 29 133.5t82.5 91t123.5 32.5q67 0 118.5 -31.5t80 -88.5t28.5 -129q0 -75 -29 -133t-82.5 -90.5t-123.5 -32.5q-68 0 -119.5 31.5zM343 80.5q33 25.5 51 68.5t18 94q0 82 -39.5 134.5t-103.5 52.5q-65 0 -104 -53
t-39 -136q0 -52 17.5 -94.5t50 -67t74.5 -24.5t75 25.5zM248 693h83l-113 -143h-52zM390 693h83l-113 -143h-52z" />
    <glyph glyph-name="OE" unicode="&#x152;" horiz-adv-x="875" 
d="M187.5 32.5q-72.5 43.5 -112 121.5t-39.5 178q0 105 40 185t114 124t172 44q33 0 73 -4l27 -3q40 -4 47 -4h316v-72h-272v-214h256v-72h-256v-244h287v-72h-339q-7 0 -45 -4l-28 -3q-39 -4 -72 -4q-96 0 -168.5 43.5zM467 72v529q-47 14 -104 14q-70 0 -123.5 -34
t-83 -97.5t-29.5 -147.5q0 -83 29.5 -145.5t84.5 -97t131 -34.5q63 0 95 13z" />
    <glyph glyph-name="oe" unicode="&#x153;" horiz-adv-x="846" 
d="M142 22q-50 32 -77 89t-27 129q0 74 28.5 132t80 90.5t118.5 32.5q61 0 109 -30t70 -83h2q52 113 173 113q57 0 100.5 -27.5t67 -78.5t23.5 -119q0 -22 -2 -44h-322q0 -76 41 -122.5t116 -46.5q63 0 127 27l16 -62q-59 -32 -154 -32q-67 0 -114.5 29t-73.5 85h-2
q-57 -114 -183 -114q-67 0 -117 32zM725 289v9q0 60 -29.5 97t-84.5 37q-53 0 -86.5 -40t-39.5 -103h240zM367 105.5q38 50.5 38 137.5q0 81 -36.5 134t-103.5 53t-103 -55t-36 -133q0 -48 16 -91t48 -69.5t76 -26.5q63 0 101 50.5z" />
    <glyph glyph-name="Racute" unicode="&#x154;" horiz-adv-x="530" 
d="M75 0zM75 665q73 14 163 14q106 0 175.5 -42t69.5 -141q0 -61 -34.5 -107t-92.5 -66v-2q75 -26 100 -137q34 -154 51 -184h-90q-16 30 -44 162q-15 70 -45.5 100.5t-87.5 30.5h-79v-293h-86v665zM246 358q69 0 109.5 35t40.5 93q0 127 -152 127q-53 0 -83 -8v-247h85z
M306 835h103l-129 -117h-68z" />
    <glyph glyph-name="racute" unicode="&#x155;" horiz-adv-x="322" 
d="M68 0zM72 334q0 91 -4 151h77l3 -95h3q16 48 52.5 76.5t81.5 28.5q11 0 23 -3v-82q-13 3 -29 3q-46 0 -77.5 -31t-40.5 -82q-3 -18 -3 -41v-259h-86v334zM209 693h95l-121 -143h-61z" />
    <glyph glyph-name="Rcommaaccent" unicode="&#x156;" horiz-adv-x="530" 
d="M75 0zM75 665q73 14 163 14q106 0 175.5 -42t69.5 -141q0 -61 -34.5 -107t-92.5 -66v-2q75 -26 100 -137q34 -154 51 -184h-90q-16 30 -44 162q-15 70 -45.5 100.5t-87.5 30.5h-79v-293h-86v665zM246 358q69 0 109.5 35t40.5 93q0 127 -152 127q-53 0 -83 -8v-247h85z
M201 -177q33 6 54 22t21 44q0 16 -9.5 32t-24.5 28l60 13q16 -11 27.5 -30.5t11.5 -41.5q0 -49 -36.5 -76.5t-86.5 -30.5z" />
    <glyph glyph-name="rcommaaccent" unicode="&#x157;" horiz-adv-x="322" 
d="M37 0zM72 334q0 91 -4 151h77l3 -95h3q16 48 52.5 76.5t81.5 28.5q11 0 23 -3v-82q-13 3 -29 3q-46 0 -77.5 -31t-40.5 -82q-3 -18 -3 -41v-259h-86v334zM37 -187q33 6 54 22t21 44q0 16 -9.5 32t-24.5 28l60 13q16 -11 27.5 -30.5t11.5 -41.5q0 -49 -36.5 -76.5
t-86.5 -30.5z" />
    <glyph glyph-name="Rcaron" unicode="&#x158;" horiz-adv-x="530" 
d="M75 0zM75 665q73 14 163 14q106 0 175.5 -42t69.5 -141q0 -61 -34.5 -107t-92.5 -66v-2q75 -26 100 -137q34 -154 51 -184h-90q-16 30 -44 162q-15 70 -45.5 100.5t-87.5 30.5h-79v-293h-86v665zM246 358q69 0 109.5 35t40.5 93q0 127 -152 127q-53 0 -83 -8v-247h85z
M137 832h72l64 -69h2l63 69h69l-102 -114h-63z" />
    <glyph glyph-name="rcaron" unicode="&#x159;" horiz-adv-x="322" 
d="M66 0zM72 334q0 91 -4 151h77l3 -95h3q16 48 52.5 76.5t81.5 28.5q11 0 23 -3v-82q-13 3 -29 3q-46 0 -77.5 -31t-40.5 -82q-3 -18 -3 -41v-259h-86v334zM66 693h65l57 -94h2l57 94h63l-92 -143h-58z" />
    <glyph glyph-name="Sacute" unicode="&#x15a;" horiz-adv-x="484" 
d="M41 0zM41 32l22 72q67 -43 152 -43q63 0 102 31.5t39 83.5q0 47 -30 78.5t-97 56.5q-175 66 -175 192q0 52 27.5 93.5t77 65t111.5 23.5q89 0 145 -32l-24 -71q-53 32 -124 32q-55 0 -91 -28t-36 -73q0 -44 28.5 -72t104.5 -59q88 -36 128.5 -82.5t40.5 -116.5
q0 -58 -28.5 -101.5t-81 -67.5t-123.5 -24q-105 0 -168 42zM296 835h103l-129 -117h-68z" />
    <glyph glyph-name="sacute" unicode="&#x15b;" horiz-adv-x="388" 
d="M38 0zM38 22l21 67q53 -34 114 -34q93 0 93 72q0 31 -20 51t-68 38q-127 48 -127 138q0 63 46 102t119 39q68 0 117 -29l-22 -64q-43 28 -97 28q-36 0 -57.5 -18t-21.5 -48q0 -31 23 -48t67 -35q125 -51 125 -146q0 -66 -48 -105.5t-131 -39.5q-77 0 -133 32zM244 693h95
l-121 -143h-61z" />
    <glyph glyph-name="Scircumflex" unicode="&#x15c;" horiz-adv-x="484" 
d="M41 0zM41 32l22 72q67 -43 152 -43q63 0 102 31.5t39 83.5q0 47 -30 78.5t-97 56.5q-175 66 -175 192q0 52 27.5 93.5t77 65t111.5 23.5q89 0 145 -32l-24 -71q-53 32 -124 32q-55 0 -91 -28t-36 -73q0 -44 28.5 -72t104.5 -59q88 -36 128.5 -82.5t40.5 -116.5
q0 -58 -28.5 -101.5t-81 -67.5t-123.5 -24q-105 0 -168 42zM217 832h63l105 -114h-72l-64 69h-2l-63 -69h-69z" />
    <glyph glyph-name="scircumflex" unicode="&#x15d;" horiz-adv-x="388" 
d="M38 0zM38 22l21 67q53 -34 114 -34q93 0 93 72q0 31 -20 51t-68 38q-127 48 -127 138q0 63 46 102t119 39q68 0 117 -29l-22 -64q-43 28 -97 28q-36 0 -57.5 -18t-21.5 -48q0 -31 23 -48t67 -35q125 -51 125 -146q0 -66 -48 -105.5t-131 -39.5q-77 0 -133 32zM175 693h58
l94 -143h-65l-57 94h-2l-57 -94h-63z" />
    <glyph glyph-name="Scedilla" unicode="&#x15e;" horiz-adv-x="484" 
d="M177.5 -201.5q-19.5 4.5 -32.5 12.5l14 44q24 -13 56 -13q18 0 30.5 8t12.5 23q0 36 -79 44l40 73h-10q-105 0 -168 42l22 72q67 -43 152 -43q63 0 102 31.5t39 83.5q0 47 -30 78.5t-97 56.5q-175 66 -175 192q0 52 27.5 93.5t77 65t111.5 23.5q89 0 145 -32l-24 -71
q-53 32 -124 32q-55 0 -91 -28t-36 -73q0 -44 28.5 -72t104.5 -59q88 -36 128.5 -82.5t40.5 -116.5q0 -72 -44 -121.5t-122 -64.5l-28 -47q30 -6 50.5 -26t20.5 -49q0 -41 -30 -61t-73 -20q-19 0 -38.5 4.5z" />
    <glyph glyph-name="scedilla" unicode="&#x15f;" horiz-adv-x="388" 
d="M132.5 -201.5q-19.5 4.5 -32.5 12.5l14 44q24 -13 56 -13q18 0 30.5 8t12.5 23q0 36 -79 44l40 73h-3q-77 0 -133 32l21 67q53 -34 114 -34q93 0 93 72q0 31 -20 51t-68 38q-127 48 -127 138q0 63 46 102t119 39q68 0 117 -29l-22 -64q-43 28 -97 28q-36 0 -57.5 -18
t-21.5 -48q0 -31 23 -48t67 -35q125 -51 125 -146q0 -53 -31 -89t-87 -49l-29 -47q30 -6 50.5 -26t20.5 -49q0 -41 -30 -61t-73 -20q-19 0 -38.5 4.5z" />
    <glyph glyph-name="Scaron" unicode="&#x160;" horiz-adv-x="484" 
d="M41 0zM41 32l22 72q67 -43 152 -43q63 0 102 31.5t39 83.5q0 47 -30 78.5t-97 56.5q-175 66 -175 192q0 52 27.5 93.5t77 65t111.5 23.5q89 0 145 -32l-24 -71q-53 32 -124 32q-55 0 -91 -28t-36 -73q0 -44 28.5 -72t104.5 -59q88 -36 128.5 -82.5t40.5 -116.5
q0 -58 -28.5 -101.5t-81 -67.5t-123.5 -24q-105 0 -168 42zM120 832h72l64 -69h2l63 69h69l-102 -114h-63z" />
    <glyph glyph-name="scaron" unicode="&#x161;" horiz-adv-x="388" 
d="M38 0zM38 22l21 67q53 -34 114 -34q93 0 93 72q0 31 -20 51t-68 38q-127 48 -127 138q0 63 46 102t119 39q68 0 117 -29l-22 -64q-43 28 -97 28q-36 0 -57.5 -18t-21.5 -48q0 -31 23 -48t67 -35q125 -51 125 -146q0 -66 -48 -105.5t-131 -39.5q-77 0 -133 32zM83 693h65
l57 -94h2l57 94h63l-92 -143h-58z" />
    <glyph glyph-name="Tcedilla" unicode="&#x162;" horiz-adv-x="487" 
d="M183.5 -201.5q-19.5 4.5 -32.5 12.5l14 44q24 -13 56 -13q18 0 30.5 8t12.5 23q0 36 -79 44l47 83h-32v602h-201v72h489v-72h-202v-602l-32 -50q30 -6 50.5 -26t20.5 -49q0 -41 -30 -61t-73 -20q-19 0 -38.5 4.5z" />
    <glyph glyph-name="tcedilla" unicode="&#x163;" horiz-adv-x="326" 
d="M122.5 -201.5q-19.5 4.5 -32.5 12.5l14 44q24 -13 56 -13q18 0 30.5 8t12.5 23q0 36 -79 44l44 81q-77 25 -77 153v268h-74v66h74v115l86 23v-138h124v-66h-124v-265q0 -93 65 -93q29 0 50 6l4 -66q-31 -11 -77 -11h-2l-24 -40q30 -6 50.5 -26t20.5 -49q0 -41 -30 -61
t-73 -20q-19 0 -38.5 4.5z" />
    <glyph glyph-name="Tcaron" unicode="&#x164;" horiz-adv-x="487" 
d="M0 0zM200 602h-201v72h489v-72h-202v-602h-86v602zM107 832h72l64 -69h2l63 69h69l-102 -114h-63z" />
    <glyph glyph-name="tcaron" unicode="&#x165;" horiz-adv-x="326" 
d="M17 0zM123.5 28q-32.5 38 -32.5 123v268h-74v66h74v115l86 23v-138h124v-66h-124v-265q0 -93 65 -93q29 0 50 6l4 -66q-31 -11 -77 -11q-63 0 -95.5 38zM252 551q37 44 37 89q0 18 -9 35.5t-23 29.5l63 14q15 -9 25.5 -29t10.5 -44q0 -48 -22.5 -78.5t-44.5 -45.5z" />
    <glyph glyph-name="Tbar" unicode="&#x166;" horiz-adv-x="487" 
d="M200 319h-129v66h129v217h-201v72h489v-72h-202v-217h128v-66h-128v-319h-86v319z" />
    <glyph glyph-name="tbar" unicode="&#x167;" horiz-adv-x="326" 
d="M123.5 28q-32.5 38 -32.5 123v95h-62v56h62v117h-74v66h74v115l86 23v-138h124v-66h-124v-117h99v-56h-99v-92q0 -93 65 -93q29 0 50 6l4 -66q-31 -11 -77 -11q-63 0 -95.5 38z" />
    <glyph glyph-name="Utilde" unicode="&#x168;" horiz-adv-x="635" 
d="M75 0zM135 62q-60 73 -60 212v400h86v-403q0 -100 40 -156t113 -56q79 0 119.5 54.5t40.5 157.5v403h86v-396q0 -139 -65 -214t-184 -75q-116 0 -176 73zM217 792q17 28 49 28q15 0 29.5 -6t33.5 -18q12 -7 23.5 -12.5t20.5 -5.5q12 0 19.5 12t9.5 33h44q0 -99 -67 -99
q-17 0 -32 6.5t-35 18.5q-28 17 -41 17q-20 0 -27 -48h-44q0 46 17 74z" />
    <glyph glyph-name="utilde" unicode="&#x169;" horiz-adv-x="540" 
d="M69 0zM112.5 43q-43.5 53 -43.5 156v286h86v-270q0 -154 106 -154q37 0 68.5 22.5t44.5 57.5q8 21 8 45v299h86v-353q0 -72 4 -132h-76l-5 77h-2q-51 -87 -157 -87q-76 0 -119.5 53zM175 640q17 29 48 29q13 0 26.5 -5.5t35.5 -17.5q32 -19 46 -19q11 0 17.5 12t8.5 33
h43q0 -100 -66 -100q-21 0 -63 23q-12 7 -23.5 12t-18.5 5q-23 0 -26 -46h-45q0 45 17 74z" />
    <glyph glyph-name="Umacron" unicode="&#x16a;" horiz-adv-x="635" 
d="M75 0zM135 62q-60 73 -60 212v400h86v-403q0 -100 40 -156t113 -56q79 0 119.5 54.5t40.5 157.5v403h86v-396q0 -139 -65 -214t-184 -75q-116 0 -176 73zM199 788h238v-55h-238v55z" />
    <glyph glyph-name="umacron" unicode="&#x16b;" horiz-adv-x="540" 
d="M69 0zM112.5 43q-43.5 53 -43.5 156v286h86v-270q0 -154 106 -154q37 0 68.5 22.5t44.5 57.5q8 21 8 45v299h86v-353q0 -72 4 -132h-76l-5 77h-2q-51 -87 -157 -87q-76 0 -119.5 53zM157 641h223v-55h-223v55z" />
    <glyph glyph-name="Ubreve" unicode="&#x16c;" horiz-adv-x="635" 
d="M75 0zM135 62q-60 73 -60 212v400h86v-403q0 -100 40 -156t113 -56q79 0 119.5 54.5t40.5 157.5v403h86v-396q0 -139 -65 -214t-184 -75q-116 0 -176 73zM227 752q-30 29 -32 77h52q5 -22 22 -37t50 -15q64 0 73 52h49q-2 -48 -32.5 -77t-90.5 -29q-61 0 -91 29z" />
    <glyph glyph-name="ubreve" unicode="&#x16d;" horiz-adv-x="540" 
d="M69 0zM112.5 43q-43.5 53 -43.5 156v286h86v-270q0 -154 106 -154q37 0 68.5 22.5t44.5 57.5q8 21 8 45v299h86v-353q0 -72 4 -132h-76l-5 77h-2q-51 -87 -157 -87q-76 0 -119.5 53zM184.5 587.5q-31.5 32.5 -33.5 88.5h50q11 -69 69 -69q66 0 71 69h50
q-1 -54 -33.5 -87.5t-86.5 -33.5q-55 0 -86.5 32.5z" />
    <glyph glyph-name="Uring" unicode="&#x16e;" horiz-adv-x="635" 
d="M75 0zM135 62q-60 73 -60 212v400h86v-403q0 -100 40 -156t113 -56q79 0 119.5 54.5t40.5 157.5v403h86v-396q0 -139 -65 -214t-184 -75q-116 0 -176 73zM244 727q-28 25 -28 60q0 36 29 62t74 26t73 -25.5t28 -61.5t-29 -61t-72 -25q-47 0 -75 25zM354.5 753
q13.5 14 13.5 36t-13.5 35.5t-36.5 13.5t-36.5 -14.5t-13.5 -36.5q0 -19 14 -33.5t36 -14.5q23 0 36.5 14z" />
    <glyph glyph-name="uring" unicode="&#x16f;" horiz-adv-x="540" 
d="M69 0zM112.5 43q-43.5 53 -43.5 156v286h86v-270q0 -154 106 -154q37 0 68.5 22.5t44.5 57.5q8 21 8 45v299h86v-353q0 -72 4 -132h-76l-5 77h-2q-51 -87 -157 -87q-76 0 -119.5 53zM197 561q-28 26 -28 65q0 41 27.5 68t73.5 27q44 0 71.5 -27t27.5 -67t-28.5 -66
t-71.5 -26q-44 0 -72 26zM304.5 589q14.5 16 14.5 39t-14.5 39t-37.5 16q-22 0 -35 -16.5t-13 -40.5q0 -21 13.5 -37t34.5 -16q23 0 37.5 16z" />
    <glyph glyph-name="Uhungarumlaut" unicode="&#x170;" horiz-adv-x="635" 
d="M75 0zM135 62q-60 73 -60 212v400h86v-403q0 -100 40 -156t113 -56q79 0 119.5 54.5t40.5 157.5v403h86v-396q0 -139 -65 -214t-184 -75q-116 0 -176 73zM280 835h93l-115 -117h-62zM425 835h93l-115 -117h-62z" />
    <glyph glyph-name="uhungarumlaut" unicode="&#x171;" horiz-adv-x="540" 
d="M69 0zM112.5 43q-43.5 53 -43.5 156v286h86v-270q0 -154 106 -154q37 0 68.5 22.5t44.5 57.5q8 21 8 45v299h86v-353q0 -72 4 -132h-76l-5 77h-2q-51 -87 -157 -87q-76 0 -119.5 53zM240 693h83l-113 -143h-52zM382 693h83l-113 -143h-52z" />
    <glyph glyph-name="Uogonek" unicode="&#x172;" horiz-adv-x="635" 
d="M311 -180.5q-27 18.5 -27 57.5q0 28 22 59t55 57q-21 -4 -50 -4q-116 0 -176 73t-60 212v400h86v-403q0 -100 40 -156t113 -56q79 0 119.5 54.5t40.5 157.5v403h86v-396q0 -92 -29 -157t-85 -99q-21 -13 -39 -31q-27 -25 -44 -51t-17 -47q0 -20 13.5 -29.5t36.5 -9.5
q24 0 46 10l14 -42q-32 -21 -76 -21q-42 0 -69 18.5z" />
    <glyph glyph-name="uogonek" unicode="&#x173;" horiz-adv-x="540" 
d="M375.5 -178q-27.5 21 -27.5 60q0 32 13.5 60t34.5 58l-5 77h-2q-51 -87 -157 -87q-76 0 -119.5 53t-43.5 156v286h86v-270q0 -154 106 -154q37 0 68.5 22.5t44.5 57.5q8 21 8 45v299h86v-353q0 -72 4 -132h-23q-15 -21 -27 -47t-12 -49q0 -24 14 -37t36 -13q24 0 46 10
l14 -42q-32 -21 -76 -21q-41 0 -68.5 21z" />
    <glyph glyph-name="Wcircumflex" unicode="&#x174;" horiz-adv-x="832" 
d="M15 0zM15 674h92l78 -340q28 -118 49 -234h2q12 72 54 235l89 339h88l80 -340q37 -160 48 -232h2q16 91 53 233l86 339h88l-187 -674h-90l-83 349q-34 142 -44 221h-2q-14 -86 -50 -221l-94 -349h-91zM391 832h63l105 -114h-72l-64 69h-2l-63 -69h-69z" />
    <glyph glyph-name="wcircumflex" unicode="&#x175;" horiz-adv-x="725" 
d="M18 0zM18 485h89l63 -246q22 -83 36 -155h2q14 64 43 154l77 247h73l74 -243q26 -85 42 -158h2q13 74 37 158l68 243h86l-154 -485h-79l-72 231q-28 87 -42 160h-2q-17 -78 -44 -161l-76 -230h-79zM333 693h58l94 -143h-65l-57 94h-2l-57 -94h-63z" />
    <glyph glyph-name="Ycircumflex" unicode="&#x176;" horiz-adv-x="531" 
d="M13 0zM223 286l-210 388h98l92 -185q40 -81 66 -140h2q25 59 67 141l94 184h98l-221 -387v-287h-86v286zM238 832h63l105 -114h-72l-64 69h-2l-63 -69h-69z" />
    <glyph glyph-name="ycircumflex" unicode="&#x177;" horiz-adv-x="461" 
d="M9 0zM34 -147q96 32 148 142q6 14 6 21t-5 22l-174 447h94l103 -287q16 -43 30 -98h3q18 65 30 100l93 285h92l-128 -344q-44 -117 -78.5 -186.5t-84.5 -116.5q-23 -22 -51 -37t-55 -21zM203 693h58l94 -143h-65l-57 94h-2l-57 -94h-63z" />
    <glyph glyph-name="Ydieresis" unicode="&#x178;" horiz-adv-x="531" 
d="M13 0zM223 286l-210 388h98l92 -185q40 -81 66 -140h2q25 59 67 141l94 184h98l-221 -387v-287h-86v286zM146 734.5q-13 14.5 -13 35.5t14 35.5t34 14.5q21 0 34.5 -14.5t13.5 -35.5q0 -22 -13.5 -36t-35.5 -14q-21 0 -34 14.5zM326.5 734.5q-13.5 14.5 -13.5 35.5
t14 35.5t35 14.5q20 0 33.5 -14.5t13.5 -35.5q0 -22 -13.5 -36t-35.5 -14q-20 0 -33.5 14.5z" />
    <glyph glyph-name="Zacute" unicode="&#x179;" horiz-adv-x="540" 
d="M30 0zM30 51l365 549v2h-335v72h445v-53l-363 -547v-2h367v-72h-479v51zM315 835h103l-129 -117h-68z" />
    <glyph glyph-name="zacute" unicode="&#x17a;" horiz-adv-x="418" 
d="M17 0zM17 51l215 285q35 47 63 79v2h-259v68h362v-55l-212 -283q-27 -37 -62 -77v-2h278v-68h-385v51zM256 693h95l-121 -143h-61z" />
    <glyph glyph-name="Zdotaccent" unicode="&#x17b;" horiz-adv-x="540" 
d="M30 0zM30 51l365 549v2h-335v72h445v-53l-363 -547v-2h367v-72h-479v51zM242 735.5q-15 15.5 -15 36.5q0 22 15 37t37 15q21 0 35 -15t14 -37t-14 -37t-36 -15q-21 0 -36 15.5z" />
    <glyph glyph-name="zdotaccent" unicode="&#x17c;" horiz-adv-x="418" 
d="M17 0zM17 51l215 285q35 47 63 79v2h-259v68h362v-55l-212 -283q-27 -37 -62 -77v-2h278v-68h-385v51zM180 587.5q-14 14.5 -14 35.5t14.5 35.5t35.5 14.5q20 0 33.5 -14.5t13.5 -35.5t-13.5 -35.5t-34.5 -14.5t-35 14.5z" />
    <glyph glyph-name="Zcaron" unicode="&#x17d;" horiz-adv-x="540" 
d="M30 0zM30 51l365 549v2h-335v72h445v-53l-363 -547v-2h367v-72h-479v51zM145 832h72l64 -69h2l63 69h69l-102 -114h-63z" />
    <glyph glyph-name="zcaron" unicode="&#x17e;" horiz-adv-x="418" 
d="M17 0zM17 51l215 285q35 47 63 79v2h-259v68h362v-55l-212 -283q-27 -37 -62 -77v-2h278v-68h-385v51zM91 693h65l57 -94h2l57 94h63l-92 -143h-58z" />
    <glyph glyph-name="longs" unicode="&#x17f;" horiz-adv-x="288" 
d="M82 419h-67v66h67v30q0 91 43.5 148t126.5 57q42 0 75 -14l-12 -67q-24 10 -56 10q-46 0 -68.5 -34.5t-22.5 -104.5v-510h-86v419z" />
    <glyph glyph-name="Aringbelow" unicode="&#x1e00;" horiz-adv-x="600" 
d="M25 0zM249 674h104l224 -674h-92l-70 211h-233l-68 -211h-89zM398 279l-62 192q-9 26 -18 57.5l-13 46.5l-6 21h-2q-15 -64 -35 -124l-63 -193h199zM226 -184q-28 25 -28 60q0 36 29 62t74 26t73 -25.5t28 -61.5t-29 -61t-72 -25q-47 0 -75 25zM336.5 -158
q13.5 14 13.5 36t-13.5 35.5t-36.5 13.5t-36.5 -14.5t-13.5 -36.5q0 -19 14 -33.5t36 -14.5q23 0 36.5 14z" />
    <glyph glyph-name="aringbelow" unicode="&#x1e01;" horiz-adv-x="474" 
d="M35 0zM76 28q-41 38 -41 100q0 88 74 134.5t211 45.5v10q0 113 -108 113q-70 0 -123 -35l-20 58q65 41 157 41q180 0 180 -197v-183q0 -69 8 -115h-79l-8 60h-2q-49 -70 -145 -70q-63 0 -104 38zM247.5 61.5q19.5 7.5 38.5 24.5q35 32 35 76v85q-199 4 -199 -109
q0 -40 22.5 -62t58.5 -22q25 0 44.5 7.5zM140 -216q-28 26 -28 65q0 41 27.5 68t73.5 27q44 0 71.5 -27t27.5 -67t-28.5 -66t-71.5 -26q-44 0 -72 26zM247.5 -188q14.5 16 14.5 39t-14.5 39t-37.5 16q-22 0 -35 -16.5t-13 -40.5q0 -21 13.5 -37t34.5 -16q23 0 37.5 16z" />
    <glyph glyph-name="Bdotaccent" unicode="&#x1e02;" horiz-adv-x="534" 
d="M75 0zM75 1v664q67 14 156 14q114 0 176 -44t62 -124q0 -49 -30.5 -89t-83.5 -58v-3q63 -15 101 -61t38 -108q0 -92 -70 -145t-216 -53q-73 0 -133 7zM230 389q70 0 110.5 31.5t40.5 82.5q0 110 -145 110q-51 0 -75 -7v-217h69zM358.5 96q44.5 35 44.5 97t-46.5 96.5
t-125.5 34.5h-70v-259q20 -4 71 -4q82 0 126.5 35zM234 735.5q-15 15.5 -15 36.5q0 22 15 37t37 15q21 0 35 -15t14 -37t-14 -37t-36 -15q-21 0 -36 15.5z" />
    <glyph glyph-name="bdotaccent" unicode="&#x1e03;" horiz-adv-x="558" 
d="M68 0zM150 78h-3l-4 -78h-75q4 52 4 124v585h86v-301h2q51 87 161 87q62 0 107 -33.5t68.5 -89.5t23.5 -124q0 -71 -25.5 -129.5t-73.5 -93.5t-114 -35q-106 0 -157 88zM394.5 109.5q38.5 50.5 38.5 135.5q0 74 -35.5 127.5t-105.5 53.5q-37 0 -67.5 -20t-48.5 -53
t-18 -70v-91q0 -36 17 -66.5t47.5 -48.5t67.5 -18q66 0 104.5 50.5zM258 747.5q-14 14.5 -14 35.5t14.5 35.5t35.5 14.5q20 0 33.5 -14.5t13.5 -35.5t-13.5 -35.5t-34.5 -14.5t-35 14.5z" />
    <glyph glyph-name="Bdotbelow" unicode="&#x1e04;" horiz-adv-x="534" 
d="M75 0zM75 1v664q67 14 156 14q114 0 176 -44t62 -124q0 -49 -30.5 -89t-83.5 -58v-3q63 -15 101 -61t38 -108q0 -92 -70 -145t-216 -53q-73 0 -133 7zM230 389q70 0 110.5 31.5t40.5 82.5q0 110 -145 110q-51 0 -75 -7v-217h69zM358.5 96q44.5 35 44.5 97t-46.5 96.5
t-125.5 34.5h-70v-259q20 -4 71 -4q82 0 126.5 35zM229 -159.5q-15 15.5 -15 36.5q0 22 15 37t37 15q21 0 35 -15t14 -37t-14 -37t-36 -15q-21 0 -36 15.5z" />
    <glyph glyph-name="bdotbelow" unicode="&#x1e05;" horiz-adv-x="558" 
d="M68 0zM150 78h-3l-4 -78h-75q4 52 4 124v585h86v-301h2q51 87 161 87q62 0 107 -33.5t68.5 -89.5t23.5 -124q0 -71 -25.5 -129.5t-73.5 -93.5t-114 -35q-106 0 -157 88zM394.5 109.5q38.5 50.5 38.5 135.5q0 74 -35.5 127.5t-105.5 53.5q-37 0 -67.5 -20t-48.5 -53
t-18 -70v-91q0 -36 17 -66.5t47.5 -48.5t67.5 -18q66 0 104.5 50.5zM258 -156.5q-14 14.5 -14 35.5t14.5 35.5t35.5 14.5q20 0 33.5 -14.5t13.5 -35.5t-13.5 -35.5t-34.5 -14.5t-35 14.5z" />
    <glyph glyph-name="Blinebelow" unicode="&#x1e06;" horiz-adv-x="534" 
d="M75 0zM75 1v664q67 14 156 14q114 0 176 -44t62 -124q0 -49 -30.5 -89t-83.5 -58v-3q63 -15 101 -61t38 -108q0 -92 -70 -145t-216 -53q-73 0 -133 7zM230 389q70 0 110.5 31.5t40.5 82.5q0 110 -145 110q-51 0 -75 -7v-217h69zM358.5 96q44.5 35 44.5 97t-46.5 96.5
t-125.5 34.5h-70v-259q20 -4 71 -4q82 0 126.5 35zM151 -89h238v-55h-238v55z" />
    <glyph glyph-name="blinebelow" unicode="&#x1e07;" horiz-adv-x="558" 
d="M68 0zM150 78h-3l-4 -78h-75q4 52 4 124v585h86v-301h2q51 87 161 87q62 0 107 -33.5t68.5 -89.5t23.5 -124q0 -71 -25.5 -129.5t-73.5 -93.5t-114 -35q-106 0 -157 88zM394.5 109.5q38.5 50.5 38.5 135.5q0 74 -35.5 127.5t-105.5 53.5q-37 0 -67.5 -20t-48.5 -53
t-18 -70v-91q0 -36 17 -66.5t47.5 -48.5t67.5 -18q66 0 104.5 50.5zM189 -90h223v-55h-223v55z" />
    <glyph glyph-name="Ccedillaacute" unicode="&#x1e08;" horiz-adv-x="566" 
d="M36 0zM264.5 -201.5q-19.5 4.5 -32.5 12.5l14 44q24 -13 56 -13q18 0 30.5 8t12.5 23q0 36 -79 44l43 78q-129 18 -201 107t-72 229q0 106 44 186t122 124t178 44t155 -29l-21 -70q-55 27 -131 27q-78 0 -136 -34t-89 -97t-31 -148q0 -126 67 -199t185 -73q83 0 138 27
l17 -69q-61 -30 -175 -30l-24 -40q30 -6 50.5 -26t20.5 -49q0 -41 -30 -61t-73 -20q-19 0 -38.5 4.5zM392 835h103l-129 -117h-68z" />
    <glyph glyph-name="ccedillaacute" unicode="&#x1e09;" horiz-adv-x="438" 
d="M38 0zM191.5 -201.5q-19.5 4.5 -32.5 12.5l14 44q24 -13 56 -13q18 0 30.5 8t12.5 23q0 36 -79 44l43 77q-91 12 -144.5 77t-53.5 166q0 75 31.5 133.5t89.5 91.5t134 33q72 0 118 -25l-19 -67q-43 23 -99 23q-78 0 -122.5 -52t-44.5 -133t46 -131t119 -50q50 0 104 23
l14 -66q-52 -25 -122 -26l-25 -41q30 -6 50.5 -26t20.5 -49q0 -41 -30 -61t-73 -20q-19 0 -38.5 4.5zM316 693h95l-121 -143h-61z" />
    <glyph glyph-name="Ddotaccent" unicode="&#x1e0a;" horiz-adv-x="651" 
d="M75 0zM75 1v664q89 14 179 14q181 0 271 -86t90 -240q0 -167 -99 -263t-288 -96q-94 0 -153 7zM452 138q72 74 72 212q0 127 -67.5 193t-197.5 66q-59 0 -98 -7v-534q21 -4 84 -4q135 0 207 74zM288 735.5q-15 15.5 -15 36.5q0 22 15 37t37 15q21 0 35 -15t14 -37
t-14 -37t-36 -15q-21 0 -36 15.5z" />
    <glyph glyph-name="ddotaccent" unicode="&#x1e0b;" horiz-adv-x="552" 
d="M38 0zM133 23q-46 33 -70.5 88.5t-24.5 123.5q0 74 26 133t74 93t112 34q99 0 142 -72h2v286h86v-585q0 -72 4 -124h-77l-4 82h-2q-47 -92 -160 -92q-62 0 -108 33zM331.5 78.5q29.5 19.5 46 52.5t16.5 70v88q0 57 -35 97t-92 40q-68 0 -105 -54.5t-37 -131.5
q0 -73 35.5 -127t104.5 -54q37 0 66.5 19.5zM215 587.5q-14 14.5 -14 35.5t14.5 35.5t35.5 14.5q20 0 33.5 -14.5t13.5 -35.5t-13.5 -35.5t-34.5 -14.5t-35 14.5z" />
    <glyph glyph-name="Ddotbelow" unicode="&#x1e0c;" horiz-adv-x="651" 
d="M75 0zM75 1v664q89 14 179 14q181 0 271 -86t90 -240q0 -167 -99 -263t-288 -96q-94 0 -153 7zM452 138q72 74 72 212q0 127 -67.5 193t-197.5 66q-59 0 -98 -7v-534q21 -4 84 -4q135 0 207 74zM264 -159.5q-15 15.5 -15 36.5q0 22 15 37t37 15q21 0 35 -15t14 -37
t-14 -37t-36 -15q-21 0 -36 15.5z" />
    <glyph glyph-name="ddotbelow" unicode="&#x1e0d;" horiz-adv-x="552" 
d="M38 0zM133 23q-46 33 -70.5 88.5t-24.5 123.5q0 74 26 133t74 93t112 34q99 0 142 -72h2v286h86v-585q0 -72 4 -124h-77l-4 82h-2q-47 -92 -160 -92q-62 0 -108 33zM331.5 78.5q29.5 19.5 46 52.5t16.5 70v88q0 57 -35 97t-92 40q-68 0 -105 -54.5t-37 -131.5
q0 -73 35.5 -127t104.5 -54q37 0 66.5 19.5zM215 -156.5q-14 14.5 -14 35.5t14.5 35.5t35.5 14.5q20 0 33.5 -14.5t13.5 -35.5t-13.5 -35.5t-34.5 -14.5t-35 14.5z" />
    <glyph glyph-name="Dlinebelow" unicode="&#x1e0e;" horiz-adv-x="651" 
d="M75 0zM75 1v664q89 14 179 14q181 0 271 -86t90 -240q0 -167 -99 -263t-288 -96q-94 0 -153 7zM452 138q72 74 72 212q0 127 -67.5 193t-197.5 66q-59 0 -98 -7v-534q21 -4 84 -4q135 0 207 74zM181 -89h238v-55h-238v55z" />
    <glyph glyph-name="dlinebelow" unicode="&#x1e0f;" horiz-adv-x="552" 
d="M38 0zM133 23q-46 33 -70.5 88.5t-24.5 123.5q0 74 26 133t74 93t112 34q99 0 142 -72h2v286h86v-585q0 -72 4 -124h-77l-4 82h-2q-47 -92 -160 -92q-62 0 -108 33zM331.5 78.5q29.5 19.5 46 52.5t16.5 70v88q0 57 -35 97t-92 40q-68 0 -105 -54.5t-37 -131.5
q0 -73 35.5 -127t104.5 -54q37 0 66.5 19.5zM139 -90h223v-55h-223v55z" />
    <glyph glyph-name="Dcedilla" unicode="&#x1e10;" horiz-adv-x="651" 
d="M75 0zM75 1v664q89 14 179 14q181 0 271 -86t90 -240q0 -167 -99 -263t-288 -96q-94 0 -153 7zM452 138q72 74 72 212q0 127 -67.5 193t-197.5 66q-59 0 -98 -7v-534q21 -4 84 -4q135 0 207 74zM220 -187q33 6 54 22t21 44q0 16 -9.5 32t-24.5 28l60 13
q16 -11 27.5 -30.5t11.5 -41.5q0 -49 -36.5 -76.5t-86.5 -30.5z" />
    <glyph glyph-name="dcedilla" unicode="&#x1e11;" horiz-adv-x="552" 
d="M38 0zM133 23q-46 33 -70.5 88.5t-24.5 123.5q0 74 26 133t74 93t112 34q99 0 142 -72h2v286h86v-585q0 -72 4 -124h-77l-4 82h-2q-47 -92 -160 -92q-62 0 -108 33zM331.5 78.5q29.5 19.5 46 52.5t16.5 70v88q0 57 -35 97t-92 40q-68 0 -105 -54.5t-37 -131.5
q0 -73 35.5 -127t104.5 -54q37 0 66.5 19.5zM180 -187q33 6 54 22t21 44q0 16 -9.5 32t-24.5 28l60 13q16 -11 27.5 -30.5t11.5 -41.5q0 -49 -36.5 -76.5t-86.5 -30.5z" />
    <glyph glyph-name="Dcircumflexbelow" unicode="&#x1e12;" horiz-adv-x="651" 
d="M75 0zM75 1v664q89 14 179 14q181 0 271 -86t90 -240q0 -167 -99 -263t-288 -96q-94 0 -153 7zM452 138q72 74 72 212q0 127 -67.5 193t-197.5 66q-59 0 -98 -7v-534q21 -4 84 -4q135 0 207 74zM267 -55h63l105 -114h-72l-64 69h-2l-63 -69h-69z" />
    <glyph glyph-name="dcircumflexbelow" unicode="&#x1e13;" horiz-adv-x="552" 
d="M38 0zM133 23q-46 33 -70.5 88.5t-24.5 123.5q0 74 26 133t74 93t112 34q99 0 142 -72h2v286h86v-585q0 -72 4 -124h-77l-4 82h-2q-47 -92 -160 -92q-62 0 -108 33zM331.5 78.5q29.5 19.5 46 52.5t16.5 70v88q0 57 -35 97t-92 40q-68 0 -105 -54.5t-37 -131.5
q0 -73 35.5 -127t104.5 -54q37 0 66.5 19.5zM225 -55h58l94 -143h-65l-57 94h-2l-57 -94h-63z" />
    <glyph glyph-name="Emacrongrave" unicode="&#x1e14;" horiz-adv-x="482" 
d="M75 0zM75 674h357v-72h-271v-214h256v-72h-256v-244h286v-72h-372v674zM136 927h97l94 -95h-61zM138 788h238v-55h-238v55z" />
    <glyph glyph-name="emacrongrave" unicode="&#x1e15;" horiz-adv-x="492" 
d="M38 0zM100.5 56q-62.5 66 -62.5 178q0 71 26 130.5t76.5 95t120.5 35.5q91 0 143 -62.5t52 -163.5q0 -26 -3 -43h-332q2 -79 44.5 -124t118.5 -45q72 0 130 24l15 -62q-66 -29 -158 -29q-108 0 -170.5 66zM372 289v5q0 59 -29.5 98.5t-88.5 39.5q-55 0 -89 -40.5
t-43 -102.5h250zM161 787h96l87 -143h-62zM154 611h223v-55h-223v55z" />
    <glyph glyph-name="Emacronacute" unicode="&#x1e16;" horiz-adv-x="482" 
d="M75 0zM75 674h357v-72h-271v-214h256v-72h-256v-244h286v-72h-372v674zM291 927h97l-130 -95h-61zM138 788h238v-55h-238v55z" />
    <glyph glyph-name="emacronacute" unicode="&#x1e17;" horiz-adv-x="492" 
d="M38 0zM100.5 56q-62.5 66 -62.5 178q0 71 26 130.5t76.5 95t120.5 35.5q91 0 143 -62.5t52 -163.5q0 -26 -3 -43h-332q2 -79 44.5 -124t118.5 -45q72 0 130 24l15 -62q-66 -29 -158 -29q-108 0 -170.5 66zM372 289v5q0 59 -29.5 98.5t-88.5 39.5q-55 0 -89 -40.5
t-43 -102.5h250zM274 787h95l-121 -143h-61zM154 611h223v-55h-223v55z" />
    <glyph glyph-name="Ecircumflexbelow" unicode="&#x1e18;" horiz-adv-x="482" 
d="M75 0zM75 674h357v-72h-271v-214h256v-72h-256v-244h286v-72h-372v674zM239 -55h63l105 -114h-72l-64 69h-2l-63 -69h-69z" />
    <glyph glyph-name="ecircumflexbelow" unicode="&#x1e19;" horiz-adv-x="492" 
d="M38 0zM100.5 56q-62.5 66 -62.5 178q0 71 26 130.5t76.5 95t120.5 35.5q91 0 143 -62.5t52 -163.5q0 -26 -3 -43h-332q2 -79 44.5 -124t118.5 -45q72 0 130 24l15 -62q-66 -29 -158 -29q-108 0 -170.5 66zM372 289v5q0 59 -29.5 98.5t-88.5 39.5q-55 0 -89 -40.5
t-43 -102.5h250zM230 -55h58l94 -143h-65l-57 94h-2l-57 -94h-63z" />
    <glyph glyph-name="Etildebelow" unicode="&#x1e1a;" horiz-adv-x="482" 
d="M75 0zM75 674h357v-72h-271v-214h256v-72h-256v-244h286v-72h-372v674zM153 -98q17 28 49 28q15 0 29.5 -6t33.5 -18q12 -7 23.5 -12.5t20.5 -5.5q12 0 19.5 12t9.5 33h44q0 -99 -67 -99q-17 0 -32 6.5t-35 18.5q-28 17 -41 17q-20 0 -27 -48h-44q0 46 17 74z" />
    <glyph glyph-name="etildebelow" unicode="&#x1e1b;" horiz-adv-x="492" 
d="M38 0zM100.5 56q-62.5 66 -62.5 178q0 71 26 130.5t76.5 95t120.5 35.5q91 0 143 -62.5t52 -163.5q0 -26 -3 -43h-332q2 -79 44.5 -124t118.5 -45q72 0 130 24l15 -62q-66 -29 -158 -29q-108 0 -170.5 66zM372 289v5q0 59 -29.5 98.5t-88.5 39.5q-55 0 -89 -40.5
t-43 -102.5h250zM155 -99q17 29 48 29q13 0 26.5 -5.5t35.5 -17.5q32 -19 46 -19q11 0 17.5 12t8.5 33h43q0 -100 -66 -100q-21 0 -63 23q-12 7 -23.5 12t-18.5 5q-23 0 -26 -46h-45q0 45 17 74z" />
    <glyph glyph-name="Ecedillabreve" unicode="&#x1e1c;" horiz-adv-x="482" 
d="M75 0zM207.5 -201.5q-19.5 4.5 -32.5 12.5l14 44q24 -13 56 -13q18 0 30.5 8t12.5 23q0 36 -79 44l46 83h-180v674h357v-72h-271v-214h256v-72h-256v-244h286v-72h-138l-31 -50q30 -6 50.5 -26t20.5 -49q0 -41 -30 -61t-73 -20q-19 0 -38.5 4.5zM173 752q-30 29 -32 77
h52q5 -22 22 -37t50 -15q64 0 73 52h49q-2 -48 -32.5 -77t-90.5 -29q-61 0 -91 29z" />
    <glyph glyph-name="ecedillabreve" unicode="&#x1e1d;" horiz-adv-x="492" 
d="M38 0zM198.5 -201.5q-19.5 4.5 -32.5 12.5l14 44q24 -13 56 -13q18 0 30.5 8t12.5 23q0 36 -79 44l41 75q-94 9 -148.5 73.5t-54.5 168.5q0 71 26 130.5t76.5 95t120.5 35.5q91 0 143 -62.5t52 -163.5q0 -26 -3 -43h-332q2 -79 44.5 -124t118.5 -45q72 0 130 24l15 -62
q-56 -25 -135 -28l-25 -41q30 -6 50.5 -26t20.5 -49q0 -41 -30 -61t-73 -20q-19 0 -38.5 4.5zM372 289v5q0 59 -29.5 98.5t-88.5 39.5q-55 0 -89 -40.5t-43 -102.5h250zM180.5 587.5q-31.5 32.5 -33.5 88.5h50q11 -69 69 -69q66 0 71 69h50q-1 -54 -33.5 -87.5t-86.5 -33.5
q-55 0 -86.5 32.5z" />
    <glyph glyph-name="Fdotaccent" unicode="&#x1e1e;" horiz-adv-x="477" 
d="M75 0zM75 674h356v-72h-270v-225h249v-72h-249v-305h-86v674zM229 735.5q-15 15.5 -15 36.5q0 22 15 37t37 15q21 0 35 -15t14 -37t-14 -37t-36 -15q-21 0 -36 15.5z" />
    <glyph glyph-name="fdotaccent" unicode="&#x1e1f;" horiz-adv-x="288" 
d="M15 0zM82 419h-67v66h67v30q0 91 43.5 148t126.5 57q42 0 75 -14l-12 -67q-24 10 -56 10q-46 0 -68.5 -34.5t-22.5 -104.5v-25h114v-66h-114v-419h-86v419zM193 772.5q-14 14.5 -14 35.5t14.5 35.5t35.5 14.5q20 0 33.5 -14.5t13.5 -35.5t-13.5 -35.5t-34.5 -14.5
t-35 14.5z" />
    <glyph glyph-name="Gmacron" unicode="&#x1e20;" horiz-adv-x="632" 
d="M36 0zM193.5 34q-76.5 41 -117 117.5t-40.5 180.5q0 102 44.5 181.5t125 123.5t187.5 44q101 0 164 -30l-22 -70q-60 28 -144 28q-78 0 -137.5 -33t-93 -94.5t-33.5 -144.5q0 -127 68 -199.5t185 -72.5q76 0 112 17v202h-134v70h218v-326q-96 -35 -201 -35t-181.5 41z
M231 788h238v-55h-238v55z" />
    <glyph glyph-name="gmacron" unicode="&#x1e21;" horiz-adv-x="549" 
d="M38 0zM79 -170l21 68q62 -38 139 -38q152 0 152 167v55h-2q-47 -80 -149 -80q-61 0 -106.5 31t-70.5 85t-25 120q0 69 26 128t74.5 94t113.5 35q103 0 146 -82h2l4 72h77q-4 -52 -4 -134v-273q0 -146 -57.5 -216t-183.5 -70q-98 0 -157 38zM354.5 108q35.5 40 35.5 99v89
q0 57 -33.5 94t-90.5 37q-63 0 -102 -50.5t-39 -133.5q0 -78 38 -126.5t102 -48.5q54 0 89.5 40zM163 641h223v-55h-223v55z" />
    <glyph glyph-name="Hdotaccent" unicode="&#x1e22;" horiz-adv-x="640" 
d="M75 0zM75 674h86v-283h318v283h86v-674h-86v317h-318v-317h-86v674zM285 735.5q-15 15.5 -15 36.5q0 22 15 37t37 15q21 0 35 -15t14 -37t-14 -37t-36 -15q-21 0 -36 15.5z" />
    <glyph glyph-name="hdotaccent" unicode="&#x1e23;" horiz-adv-x="543" 
d="M72 0zM72 709h86v-298h2q23 39 63.5 61.5t86.5 22.5q80 0 122 -56.5t42 -147.5v-291h-86v283q0 141 -109 141q-39 0 -71 -24t-45 -63q-5 -18 -5 -41v-296h-86v709zM258 747.5q-14 14.5 -14 35.5t14.5 35.5t35.5 14.5q20 0 33.5 -14.5t13.5 -35.5t-13.5 -35.5t-34.5 -14.5
t-35 14.5z" />
    <glyph glyph-name="Hdotbelow" unicode="&#x1e24;" horiz-adv-x="640" 
d="M75 0zM75 674h86v-283h318v283h86v-674h-86v317h-318v-317h-86v674zM284 -159.5q-15 15.5 -15 36.5q0 22 15 37t37 15q21 0 35 -15t14 -37t-14 -37t-36 -15q-21 0 -36 15.5z" />
    <glyph glyph-name="hdotbelow" unicode="&#x1e25;" horiz-adv-x="543" 
d="M72 0zM72 709h86v-298h2q23 39 63.5 61.5t86.5 22.5q80 0 122 -56.5t42 -147.5v-291h-86v283q0 141 -109 141q-39 0 -71 -24t-45 -63q-5 -18 -5 -41v-296h-86v709zM240 -156.5q-14 14.5 -14 35.5t14.5 35.5t35.5 14.5q20 0 33.5 -14.5t13.5 -35.5t-13.5 -35.5
t-34.5 -14.5t-35 14.5z" />
    <glyph glyph-name="Hdieresis" unicode="&#x1e26;" horiz-adv-x="640" 
d="M75 0zM75 674h86v-283h318v283h86v-674h-86v317h-318v-317h-86v674zM195 734.5q-13 14.5 -13 35.5t14 35.5t34 14.5q21 0 34.5 -14.5t13.5 -35.5q0 -22 -13.5 -36t-35.5 -14q-21 0 -34 14.5zM375.5 734.5q-13.5 14.5 -13.5 35.5t14 35.5t35 14.5q20 0 33.5 -14.5
t13.5 -35.5q0 -22 -13.5 -36t-35.5 -14q-20 0 -33.5 14.5z" />
    <glyph glyph-name="hdieresis" unicode="&#x1e27;" horiz-adv-x="543" 
d="M72 0zM72 709h86v-298h2q23 39 63.5 61.5t86.5 22.5q80 0 122 -56.5t42 -147.5v-291h-86v283q0 141 -109 141q-39 0 -71 -24t-45 -63q-5 -18 -5 -41v-296h-86v709zM177.5 747.5q-13.5 14.5 -13.5 35.5t14.5 35.5t34.5 14.5q21 0 34.5 -14.5t13.5 -35.5t-14 -35.5
t-35 -14.5t-34.5 14.5zM352.5 747.5q-13.5 14.5 -13.5 35.5t14 35.5t35 14.5t34.5 -14.5t13.5 -35.5t-14 -35.5t-35 -14.5t-34.5 14.5z" />
    <glyph glyph-name="Hcedilla" unicode="&#x1e28;" horiz-adv-x="640" 
d="M59.5 -201.5q-19.5 4.5 -32.5 12.5l14 44q24 -13 56 -13q18 0 30.5 8t12.5 23q0 36 -79 44l46 83h-32v674h86v-283h318v283h86v-674h-86v317h-318v-317l-31 -50q30 -6 50.5 -26t20.5 -49q0 -41 -30 -61t-73 -20q-19 0 -38.5 4.5z" />
    <glyph glyph-name="hcedilla" unicode="&#x1e29;" horiz-adv-x="543" 
d="M56.5 -201.5q-19.5 4.5 -32.5 12.5l14 44q24 -13 56 -13q18 0 30.5 8t12.5 23q0 36 -79 44l46 83h-32v709h86v-298h2q23 39 63.5 61.5t86.5 22.5q80 0 122 -56.5t42 -147.5v-291h-86v283q0 141 -109 141q-39 0 -71 -24t-45 -63q-5 -18 -5 -41v-296l-31 -50
q30 -6 50.5 -26t20.5 -49q0 -41 -30 -61t-73 -20q-19 0 -38.5 4.5z" />
    <glyph glyph-name="Hbrevebelow" unicode="&#x1e2a;" horiz-adv-x="640" 
d="M75 0zM75 674h86v-283h318v283h86v-674h-86v317h-318v-317h-86v674zM229 -137q-30 29 -32 77h52q5 -22 22 -37t50 -15q64 0 73 52h49q-2 -48 -32.5 -77t-90.5 -29q-61 0 -91 29z" />
    <glyph glyph-name="hbrevebelow" unicode="&#x1e2b;" horiz-adv-x="543" 
d="M72 0zM72 709h86v-298h2q23 39 63.5 61.5t86.5 22.5q80 0 122 -56.5t42 -147.5v-291h-86v283q0 141 -109 141q-39 0 -71 -24t-45 -63q-5 -18 -5 -41v-296h-86v709zM185.5 -152.5q-31.5 32.5 -33.5 88.5h50q11 -69 69 -69q66 0 71 69h50q-1 -54 -33.5 -87.5t-86.5 -33.5
q-55 0 -86.5 32.5z" />
    <glyph glyph-name="Itildebelow" unicode="&#x1e2c;" horiz-adv-x="236" 
d="M0 0zM75 674h86v-674h-86v674zM12 -98q17 28 49 28q15 0 29.5 -6t33.5 -18q12 -7 23.5 -12.5t20.5 -5.5q12 0 19.5 12t9.5 33h44q0 -99 -67 -99q-17 0 -32 6.5t-35 18.5q-28 17 -41 17q-20 0 -27 -48h-44q0 46 17 74z" />
    <glyph glyph-name="itildebelow" unicode="&#x1e2d;" horiz-adv-x="230" 
d="M0 0zM74.5 584q-15.5 16 -15.5 40t16 40t40 16q25 0 40.5 -15.5t15.5 -40.5t-16 -40.5t-41 -15.5q-24 0 -39.5 16zM72 485h86v-485h-86v485zM11 -99q17 29 48 29q13 0 26.5 -5.5t35.5 -17.5q32 -19 46 -19q11 0 17.5 12t8.5 33h43q0 -100 -66 -100q-21 0 -63 23
q-12 7 -23.5 12t-18.5 5q-23 0 -26 -46h-45q0 45 17 74z" />
    <glyph glyph-name="Idieresisacute" unicode="&#x1e2e;" horiz-adv-x="236" 
d="M0 0zM75 674h86v-674h-86v674zM162 927h97l-130 -95h-61zM-7 734.5q-13 14.5 -13 35.5t14 35.5t34 14.5q21 0 34.5 -14.5t13.5 -35.5q0 -22 -13.5 -36t-35.5 -14q-21 0 -34 14.5zM173.5 734.5q-13.5 14.5 -13.5 35.5t14 35.5t35 14.5q20 0 33.5 -14.5t13.5 -35.5
q0 -22 -13.5 -36t-35.5 -14q-20 0 -33.5 14.5z" />
    <glyph glyph-name="idieresisacute" unicode="&#x1e2f;" horiz-adv-x="230" 
d="M0 0zM72 485h86v-485h-86v485zM159 807h95l-121 -143h-61zM-7.5 557.5q-13.5 14.5 -13.5 35.5t14.5 35.5t34.5 14.5q21 0 34.5 -14.5t13.5 -35.5t-14 -35.5t-35 -14.5t-34.5 14.5zM167.5 557.5q-13.5 14.5 -13.5 35.5t14 35.5t35 14.5t34.5 -14.5t13.5 -35.5t-14 -35.5
t-35 -14.5t-34.5 14.5z" />
    <glyph glyph-name="Kacute" unicode="&#x1e30;" horiz-adv-x="533" 
d="M75 0zM75 674h86v-325h3q14 20 55 73l198 252h106l-238 -287l257 -387h-102l-216 330l-63 -73v-257h-86v674zM334 835h103l-129 -117h-68z" />
    <glyph glyph-name="kacute" unicode="&#x1e31;" horiz-adv-x="461" 
d="M72 0zM72 709h86v-446h2q20 27 43 54l138 168h104l-183 -201l208 -284h-106l-162 232l-44 -49v-183h-86v709zM314 835h103l-129 -117h-68z" />
    <glyph glyph-name="Kdotbelow" unicode="&#x1e32;" horiz-adv-x="533" 
d="M75 0zM75 674h86v-325h3q14 20 55 73l198 252h106l-238 -287l257 -387h-102l-216 330l-63 -73v-257h-86v674zM254 -159.5q-15 15.5 -15 36.5q0 22 15 37t37 15q21 0 35 -15t14 -37t-14 -37t-36 -15q-21 0 -36 15.5z" />
    <glyph glyph-name="kdotbelow" unicode="&#x1e33;" horiz-adv-x="461" 
d="M72 0zM72 709h86v-446h2q20 27 43 54l138 168h104l-183 -201l208 -284h-106l-162 232l-44 -49v-183h-86v709zM226 -156.5q-14 14.5 -14 35.5t14.5 35.5t35.5 14.5q20 0 33.5 -14.5t13.5 -35.5t-13.5 -35.5t-34.5 -14.5t-35 14.5z" />
    <glyph glyph-name="Klinebelow" unicode="&#x1e34;" horiz-adv-x="533" 
d="M75 0zM75 674h86v-325h3q14 20 55 73l198 252h106l-238 -287l257 -387h-102l-216 330l-63 -73v-257h-86v674zM178 -89h238v-55h-238v55z" />
    <glyph glyph-name="klinebelow" unicode="&#x1e35;" horiz-adv-x="461" 
d="M72 0zM72 709h86v-446h2q20 27 43 54l138 168h104l-183 -201l208 -284h-106l-162 232l-44 -49v-183h-86v709zM162 -90h223v-55h-223v55z" />
    <glyph glyph-name="Ldotbelow" unicode="&#x1e36;" horiz-adv-x="463" 
d="M75 0zM75 674h86v-602h282v-72h-368v674zM214 -159.5q-15 15.5 -15 36.5q0 22 15 37t37 15q21 0 35 -15t14 -37t-14 -37t-36 -15q-21 0 -36 15.5z" />
    <glyph glyph-name="ldotbelow" unicode="&#x1e37;" horiz-adv-x="230" 
d="M66 0zM72 709h86v-709h-86v709zM80 -156.5q-14 14.5 -14 35.5t14.5 35.5t35.5 14.5q20 0 33.5 -14.5t13.5 -35.5t-13.5 -35.5t-34.5 -14.5t-35 14.5z" />
    <glyph glyph-name="Ldotbelowmacron" unicode="&#x1e38;" horiz-adv-x="463" 
d="M75 0zM75 674h86v-602h282v-72h-368v674zM151 788h238v-55h-238v55zM214 -159.5q-15 15.5 -15 36.5q0 22 15 37t37 15q21 0 35 -15t14 -37t-14 -37t-36 -15q-21 0 -36 15.5z" />
    <glyph glyph-name="ldotbelowmacron" unicode="&#x1e39;" horiz-adv-x="230" 
d="M3 0zM72 709h86v-709h-86v709zM3 815h223v-55h-223v55zM80 -156.5q-14 14.5 -14 35.5t14.5 35.5t35.5 14.5q20 0 33.5 -14.5t13.5 -35.5t-13.5 -35.5t-34.5 -14.5t-35 14.5z" />
    <glyph glyph-name="Llinebelow" unicode="&#x1e3a;" horiz-adv-x="463" 
d="M75 0zM75 674h86v-602h282v-72h-368v674zM144 -89h238v-55h-238v55z" />
    <glyph glyph-name="llinebelow" unicode="&#x1e3b;" horiz-adv-x="230" 
d="M3 0zM72 709h86v-709h-86v709zM3 -90h223v-55h-223v55z" />
    <glyph glyph-name="Lcircumflexbelow" unicode="&#x1e3c;" horiz-adv-x="463" 
d="M75 0zM75 674h86v-602h282v-72h-368v674zM232 -55h63l105 -114h-72l-64 69h-2l-63 -69h-69z" />
    <glyph glyph-name="lcircumflexbelow" unicode="&#x1e3d;" horiz-adv-x="230" 
d="M0 0zM72 709h86v-709h-86v709zM85 -55h58l94 -143h-65l-57 94h-2l-57 -94h-63z" />
    <glyph glyph-name="Macute" unicode="&#x1e3e;" horiz-adv-x="790" 
d="M57 0zM104 674h109l110 -325q50 -150 69 -227h3q20 78 72 227l115 325h110l41 -674h-84l-16 296q-12 234 -11 289h-2q-36 -121 -84 -255l-117 -326h-63l-107 320q-55 166 -77 261h-2q-4 -129 -14 -296l-17 -289h-82zM446 835h103l-129 -117h-68z" />
    <glyph glyph-name="macute" unicode="&#x1e3f;" horiz-adv-x="820" 
d="M68 0zM72 354q0 68 -4 131h76l4 -77h2q53 87 150 87q47 0 83 -26t51 -69h2q25 44 65.5 69.5t92.5 25.5q70 0 113.5 -51.5t43.5 -155.5v-288h-85v276q0 148 -103 148q-38 0 -65 -24t-39 -63q-5 -18 -5 -38v-299h-85v293q0 60 -25.5 95.5t-72.5 35.5q-38 0 -67.5 -26
t-41.5 -65q-5 -16 -5 -39v-294h-85v354zM479 693h95l-121 -143h-61z" />
    <glyph glyph-name="Mdotaccent" unicode="&#x1e40;" horiz-adv-x="790" 
d="M57 0zM104 674h109l110 -325q50 -150 69 -227h3q20 78 72 227l115 325h110l41 -674h-84l-16 296q-12 234 -11 289h-2q-36 -121 -84 -255l-117 -326h-63l-107 320q-55 166 -77 261h-2q-4 -129 -14 -296l-17 -289h-82zM365 735.5q-15 15.5 -15 36.5q0 22 15 37t37 15
q21 0 35 -15t14 -37t-14 -37t-36 -15q-21 0 -36 15.5z" />
    <glyph glyph-name="mdotaccent" unicode="&#x1e41;" horiz-adv-x="820" 
d="M68 0zM72 354q0 68 -4 131h76l4 -77h2q53 87 150 87q47 0 83 -26t51 -69h2q25 44 65.5 69.5t92.5 25.5q70 0 113.5 -51.5t43.5 -155.5v-288h-85v276q0 148 -103 148q-38 0 -65 -24t-39 -63q-5 -18 -5 -38v-299h-85v293q0 60 -25.5 95.5t-72.5 35.5q-38 0 -67.5 -26
t-41.5 -65q-5 -16 -5 -39v-294h-85v354zM397 587.5q-14 14.5 -14 35.5t14.5 35.5t35.5 14.5q20 0 33.5 -14.5t13.5 -35.5t-13.5 -35.5t-34.5 -14.5t-35 14.5z" />
    <glyph glyph-name="Mdotbelow" unicode="&#x1e42;" horiz-adv-x="790" 
d="M57 0zM104 674h109l110 -325q50 -150 69 -227h3q20 78 72 227l115 325h110l41 -674h-84l-16 296q-12 234 -11 289h-2q-36 -121 -84 -255l-117 -326h-63l-107 320q-55 166 -77 261h-2q-4 -129 -14 -296l-17 -289h-82zM352 -159.5q-15 15.5 -15 36.5q0 22 15 37t37 15
q21 0 35 -15t14 -37t-14 -37t-36 -15q-21 0 -36 15.5z" />
    <glyph glyph-name="mdotbelow" unicode="&#x1e43;" horiz-adv-x="820" 
d="M68 0zM72 354q0 68 -4 131h76l4 -77h2q53 87 150 87q47 0 83 -26t51 -69h2q25 44 65.5 69.5t92.5 25.5q70 0 113.5 -51.5t43.5 -155.5v-288h-85v276q0 148 -103 148q-38 0 -65 -24t-39 -63q-5 -18 -5 -38v-299h-85v293q0 60 -25.5 95.5t-72.5 35.5q-38 0 -67.5 -26
t-41.5 -65q-5 -16 -5 -39v-294h-85v354zM377 -156.5q-14 14.5 -14 35.5t14.5 35.5t35.5 14.5q20 0 33.5 -14.5t13.5 -35.5t-13.5 -35.5t-34.5 -14.5t-35 14.5z" />
    <glyph glyph-name="Ndotaccent" unicode="&#x1e44;" horiz-adv-x="645" 
d="M75 0zM75 674h94l208 -339q72 -117 119 -220h2q-9 95 -9 279v280h81v-674h-87l-207 340q-82 134 -124 226l-2 -1q6 -106 6 -280v-285h-81v674zM302 735.5q-15 15.5 -15 36.5q0 22 15 37t37 15q21 0 35 -15t14 -37t-14 -37t-36 -15q-21 0 -36 15.5z" />
    <glyph glyph-name="ndotaccent" unicode="&#x1e45;" horiz-adv-x="543" 
d="M68 0zM72 354q0 68 -4 131h76l5 -78h2q21 41 63 64.5t88 23.5q80 0 126 -52t46 -151v-292h-86v282q0 142 -109 142q-39 0 -69 -23t-45 -62q-7 -20 -7 -46v-293h-86v354zM267 587.5q-14 14.5 -14 35.5t14.5 35.5t35.5 14.5q20 0 33.5 -14.5t13.5 -35.5t-13.5 -35.5
t-34.5 -14.5t-35 14.5z" />
    <glyph glyph-name="Ndotbelow" unicode="&#x1e46;" horiz-adv-x="645" 
d="M75 0zM75 674h94l208 -339q72 -117 119 -220h2q-9 95 -9 279v280h81v-674h-87l-207 340q-82 134 -124 226l-2 -1q6 -106 6 -280v-285h-81v674zM290 -159.5q-15 15.5 -15 36.5q0 22 15 37t37 15q21 0 35 -15t14 -37t-14 -37t-36 -15q-21 0 -36 15.5z" />
    <glyph glyph-name="ndotbelow" unicode="&#x1e47;" horiz-adv-x="543" 
d="M68 0zM72 354q0 68 -4 131h76l5 -78h2q21 41 63 64.5t88 23.5q80 0 126 -52t46 -151v-292h-86v282q0 142 -109 142q-39 0 -69 -23t-45 -62q-7 -20 -7 -46v-293h-86v354zM240 -156.5q-14 14.5 -14 35.5t14.5 35.5t35.5 14.5q20 0 33.5 -14.5t13.5 -35.5t-13.5 -35.5
t-34.5 -14.5t-35 14.5z" />
    <glyph glyph-name="Nlinebelow" unicode="&#x1e48;" horiz-adv-x="645" 
d="M75 0zM75 674h94l208 -339q72 -117 119 -220h2q-9 95 -9 279v280h81v-674h-87l-207 340q-82 134 -124 226l-2 -1q6 -106 6 -280v-285h-81v674zM201 -89h238v-55h-238v55z" />
    <glyph glyph-name="nlinebelow" unicode="&#x1e49;" horiz-adv-x="543" 
d="M68 0zM72 354q0 68 -4 131h76l5 -78h2q21 41 63 64.5t88 23.5q80 0 126 -52t46 -151v-292h-86v282q0 142 -109 142q-39 0 -69 -23t-45 -62q-7 -20 -7 -46v-293h-86v354zM162 -90h223v-55h-223v55z" />
    <glyph glyph-name="Ncircumflexbelow" unicode="&#x1e4a;" horiz-adv-x="645" 
d="M75 0zM75 674h94l208 -339q72 -117 119 -220h2q-9 95 -9 279v280h81v-674h-87l-207 340q-82 134 -124 226l-2 -1q6 -106 6 -280v-285h-81v674zM287 -55h63l105 -114h-72l-64 69h-2l-63 -69h-69z" />
    <glyph glyph-name="ncircumflexbelow" unicode="&#x1e4b;" horiz-adv-x="543" 
d="M68 0zM72 354q0 68 -4 131h76l5 -78h2q21 41 63 64.5t88 23.5q80 0 126 -52t46 -151v-292h-86v282q0 142 -109 142q-39 0 -69 -23t-45 -62q-7 -20 -7 -46v-293h-86v354zM244 -55h58l94 -143h-65l-57 94h-2l-57 -94h-63z" />
    <glyph glyph-name="Otildeacute" unicode="&#x1e4c;" horiz-adv-x="672" 
d="M36 0zM176 32.5q-67 43.5 -103.5 121.5t-36.5 177q0 103 38.5 183.5t107.5 125.5t159 45q87 0 154 -43t104 -121t37 -178q0 -105 -37.5 -185t-106.5 -124.5t-161 -44.5q-88 0 -155 43.5zM445 95q48 36 74 100t26 144q0 79 -26.5 142t-74 98.5t-108.5 35.5
q-62 0 -109.5 -36.5t-73.5 -100.5t-26 -145q0 -78 26 -140.5t73.5 -98t108.5 -35.5q62 0 110 36zM390 942h97l-130 -95h-61zM240 792q17 28 49 28q15 0 29.5 -6t33.5 -18q12 -7 23.5 -12.5t20.5 -5.5q12 0 19.5 12t9.5 33h44q0 -99 -67 -99q-17 0 -32 6.5t-35 18.5
q-28 17 -41 17q-20 0 -27 -48h-44q0 46 17 74z" />
    <glyph glyph-name="otildeacute" unicode="&#x1e4d;" horiz-adv-x="538" 
d="M38 0zM145.5 21.5q-51.5 31.5 -79.5 88t-28 128.5q0 75 29 133.5t82.5 91t123.5 32.5q67 0 118.5 -31.5t80 -88.5t28.5 -129q0 -75 -29 -133t-82.5 -90.5t-123.5 -32.5q-68 0 -119.5 31.5zM343 80.5q33 25.5 51 68.5t18 94q0 82 -39.5 134.5t-103.5 52.5q-65 0 -104 -53
t-39 -136q0 -52 17.5 -94.5t50 -67t74.5 -24.5t75 25.5zM298 770h97l-120 -95h-61zM172 610q17 29 48 29q13 0 26.5 -5.5t35.5 -17.5q32 -19 46 -19q11 0 17.5 12t8.5 33h43q0 -100 -66 -100q-21 0 -63 23q-12 7 -23.5 12t-18.5 5q-23 0 -26 -46h-45q0 45 17 74z" />
    <glyph glyph-name="Otildedieresis" unicode="&#x1e4e;" horiz-adv-x="672" 
d="M36 0zM176 32.5q-67 43.5 -103.5 121.5t-36.5 177q0 103 38.5 183.5t107.5 125.5t159 45q87 0 154 -43t104 -121t37 -178q0 -105 -37.5 -185t-106.5 -124.5t-161 -44.5q-88 0 -155 43.5zM445 95q48 36 74 100t26 144q0 79 -26.5 142t-74 98.5t-108.5 35.5
q-62 0 -109.5 -36.5t-73.5 -100.5t-26 -145q0 -78 26 -140.5t73.5 -98t108.5 -35.5q62 0 110 36zM221 865.5q-13 14.5 -13 35.5t14 35.5t34 14.5q21 0 34.5 -14.5t13.5 -35.5q0 -22 -13.5 -36t-35.5 -14q-21 0 -34 14.5zM401.5 865.5q-13.5 14.5 -13.5 35.5t14 35.5t35 14.5
q20 0 33.5 -14.5t13.5 -35.5q0 -22 -13.5 -36t-35.5 -14q-20 0 -33.5 14.5zM240 792q17 28 49 28q15 0 29.5 -6t33.5 -18q12 -7 23.5 -12.5t20.5 -5.5q12 0 19.5 12t9.5 33h44q0 -99 -67 -99q-17 0 -32 6.5t-35 18.5q-28 17 -41 17q-20 0 -27 -48h-44q0 46 17 74z" />
    <glyph glyph-name="otildedieresis" unicode="&#x1e4f;" horiz-adv-x="538" 
d="M38 0zM145.5 21.5q-51.5 31.5 -79.5 88t-28 128.5q0 75 29 133.5t82.5 91t123.5 32.5q67 0 118.5 -31.5t80 -88.5t28.5 -129q0 -75 -29 -133t-82.5 -90.5t-123.5 -32.5q-68 0 -119.5 31.5zM343 80.5q33 25.5 51 68.5t18 94q0 82 -39.5 134.5t-103.5 52.5q-65 0 -104 -53
t-39 -136q0 -52 17.5 -94.5t50 -67t74.5 -24.5t75 25.5zM158.5 689.5q-13.5 14.5 -13.5 35.5t14.5 35.5t34.5 14.5q21 0 34.5 -14.5t13.5 -35.5t-14 -35.5t-35 -14.5t-34.5 14.5zM333.5 689.5q-13.5 14.5 -13.5 35.5t14 35.5t35 14.5t34.5 -14.5t13.5 -35.5t-14 -35.5
t-35 -14.5t-34.5 14.5zM172 610q17 29 48 29q13 0 26.5 -5.5t35.5 -17.5q32 -19 46 -19q11 0 17.5 12t8.5 33h43q0 -100 -66 -100q-21 0 -63 23q-12 7 -23.5 12t-18.5 5q-23 0 -26 -46h-45q0 45 17 74z" />
    <glyph glyph-name="Omacrongrave" unicode="&#x1e50;" horiz-adv-x="672" 
d="M36 0zM176 32.5q-67 43.5 -103.5 121.5t-36.5 177q0 103 38.5 183.5t107.5 125.5t159 45q87 0 154 -43t104 -121t37 -178q0 -105 -37.5 -185t-106.5 -124.5t-161 -44.5q-88 0 -155 43.5zM445 95q48 36 74 100t26 144q0 79 -26.5 142t-74 98.5t-108.5 35.5
q-62 0 -109.5 -36.5t-73.5 -100.5t-26 -145q0 -78 26 -140.5t73.5 -98t108.5 -35.5q62 0 110 36zM228 927h97l94 -95h-61zM230 788h238v-55h-238v55z" />
    <glyph glyph-name="omacrongrave" unicode="&#x1e51;" horiz-adv-x="538" 
d="M38 0zM145.5 21.5q-51.5 31.5 -79.5 88t-28 128.5q0 75 29 133.5t82.5 91t123.5 32.5q67 0 118.5 -31.5t80 -88.5t28.5 -129q0 -75 -29 -133t-82.5 -90.5t-123.5 -32.5q-68 0 -119.5 31.5zM343 80.5q33 25.5 51 68.5t18 94q0 82 -39.5 134.5t-103.5 52.5q-65 0 -104 -53
t-39 -136q0 -52 17.5 -94.5t50 -67t74.5 -24.5t75 25.5zM172 787h96l87 -143h-62zM165 611h223v-55h-223v55z" />
    <glyph glyph-name="Omacronacute" unicode="&#x1e52;" horiz-adv-x="672" 
d="M36 0zM176 32.5q-67 43.5 -103.5 121.5t-36.5 177q0 103 38.5 183.5t107.5 125.5t159 45q87 0 154 -43t104 -121t37 -178q0 -105 -37.5 -185t-106.5 -124.5t-161 -44.5q-88 0 -155 43.5zM445 95q48 36 74 100t26 144q0 79 -26.5 142t-74 98.5t-108.5 35.5
q-62 0 -109.5 -36.5t-73.5 -100.5t-26 -145q0 -78 26 -140.5t73.5 -98t108.5 -35.5q62 0 110 36zM383 927h97l-130 -95h-61zM230 788h238v-55h-238v55z" />
    <glyph glyph-name="omacronacute" unicode="&#x1e53;" horiz-adv-x="538" 
d="M38 0zM145.5 21.5q-51.5 31.5 -79.5 88t-28 128.5q0 75 29 133.5t82.5 91t123.5 32.5q67 0 118.5 -31.5t80 -88.5t28.5 -129q0 -75 -29 -133t-82.5 -90.5t-123.5 -32.5q-68 0 -119.5 31.5zM343 80.5q33 25.5 51 68.5t18 94q0 82 -39.5 134.5t-103.5 52.5q-65 0 -104 -53
t-39 -136q0 -52 17.5 -94.5t50 -67t74.5 -24.5t75 25.5zM285 787h95l-121 -143h-61zM165 611h223v-55h-223v55z" />
    <glyph glyph-name="Pacute" unicode="&#x1e54;" horiz-adv-x="524" 
d="M75 0zM75 666q71 13 164 13q119 0 182 -52.5t63 -144.5q0 -103 -70 -160t-185 -57q-45 0 -68 6v-271h-86v666zM353 371.5q44 37.5 44 106.5q0 63 -41.5 98t-114.5 35q-51 0 -80 -7v-263q24 -7 69 -7q79 0 123 37.5zM301 835h103l-129 -117h-68z" />
    <glyph glyph-name="pacute" unicode="&#x1e55;" horiz-adv-x="558" 
d="M68 0zM72 328q0 86 -4 157h78l4 -81h2q55 91 167 91q55 0 101 -29.5t73 -85.5t27 -130q0 -80 -28 -139t-77 -90t-110 -31q-100 0 -145 74h-2v-262h-86v526zM394 110q38 51 38 136q0 78 -37.5 129t-101.5 51q-38 0 -69 -21t-48.5 -56t-17.5 -74v-79q0 -58 37.5 -97.5
t94.5 -39.5q66 0 104 51zM340 693h95l-121 -143h-61z" />
    <glyph glyph-name="Pdotaccent" unicode="&#x1e56;" horiz-adv-x="524" 
d="M75 0zM75 666q71 13 164 13q119 0 182 -52.5t63 -144.5q0 -103 -70 -160t-185 -57q-45 0 -68 6v-271h-86v666zM353 371.5q44 37.5 44 106.5q0 63 -41.5 98t-114.5 35q-51 0 -80 -7v-263q24 -7 69 -7q79 0 123 37.5zM236 735.5q-15 15.5 -15 36.5q0 22 15 37t37 15
q21 0 35 -15t14 -37t-14 -37t-36 -15q-21 0 -36 15.5z" />
    <glyph glyph-name="pdotaccent" unicode="&#x1e57;" horiz-adv-x="558" 
d="M68 0zM72 328q0 86 -4 157h78l4 -81h2q55 91 167 91q55 0 101 -29.5t73 -85.5t27 -130q0 -80 -28 -139t-77 -90t-110 -31q-100 0 -145 74h-2v-262h-86v526zM394 110q38 51 38 136q0 78 -37.5 129t-101.5 51q-38 0 -69 -21t-48.5 -56t-17.5 -74v-79q0 -58 37.5 -97.5
t94.5 -39.5q66 0 104 51zM280 587.5q-14 14.5 -14 35.5t14.5 35.5t35.5 14.5q20 0 33.5 -14.5t13.5 -35.5t-13.5 -35.5t-34.5 -14.5t-35 14.5z" />
    <glyph glyph-name="Rdotaccent" unicode="&#x1e58;" horiz-adv-x="530" 
d="M75 0zM75 665q73 14 163 14q106 0 175.5 -42t69.5 -141q0 -61 -34.5 -107t-92.5 -66v-2q75 -26 100 -137q34 -154 51 -184h-90q-16 30 -44 162q-15 70 -45.5 100.5t-87.5 30.5h-79v-293h-86v665zM246 358q69 0 109.5 35t40.5 93q0 127 -152 127q-53 0 -83 -8v-247h85z
M234 735.5q-15 15.5 -15 36.5q0 22 15 37t37 15q21 0 35 -15t14 -37t-14 -37t-36 -15q-21 0 -36 15.5z" />
    <glyph glyph-name="rdotaccent" unicode="&#x1e59;" horiz-adv-x="322" 
d="M68 0zM72 334q0 91 -4 151h77l3 -95h3q16 48 52.5 76.5t81.5 28.5q11 0 23 -3v-82q-13 3 -29 3q-46 0 -77.5 -31t-40.5 -82q-3 -18 -3 -41v-259h-86v334zM160 587.5q-14 14.5 -14 35.5t14.5 35.5t35.5 14.5q20 0 33.5 -14.5t13.5 -35.5t-13.5 -35.5t-34.5 -14.5t-35 14.5
z" />
    <glyph glyph-name="Rdotbelow" unicode="&#x1e5a;" horiz-adv-x="530" 
d="M75 0zM75 665q73 14 163 14q106 0 175.5 -42t69.5 -141q0 -61 -34.5 -107t-92.5 -66v-2q75 -26 100 -137q34 -154 51 -184h-90q-16 30 -44 162q-15 70 -45.5 100.5t-87.5 30.5h-79v-293h-86v665zM246 358q69 0 109.5 35t40.5 93q0 127 -152 127q-53 0 -83 -8v-247h85z
M241 -159.5q-15 15.5 -15 36.5q0 22 15 37t37 15q21 0 35 -15t14 -37t-14 -37t-36 -15q-21 0 -36 15.5z" />
    <glyph glyph-name="rdotbelow" unicode="&#x1e5b;" horiz-adv-x="322" 
d="M66 0zM72 334q0 91 -4 151h77l3 -95h3q16 48 52.5 76.5t81.5 28.5q11 0 23 -3v-82q-13 3 -29 3q-46 0 -77.5 -31t-40.5 -82q-3 -18 -3 -41v-259h-86v334zM80 -156.5q-14 14.5 -14 35.5t14.5 35.5t35.5 14.5q20 0 33.5 -14.5t13.5 -35.5t-13.5 -35.5t-34.5 -14.5t-35 14.5
z" />
    <glyph glyph-name="Rdotbelowmacron" unicode="&#x1e5c;" horiz-adv-x="530" 
d="M75 0zM75 665q73 14 163 14q106 0 175.5 -42t69.5 -141q0 -61 -34.5 -107t-92.5 -66v-2q75 -26 100 -137q34 -154 51 -184h-90q-16 30 -44 162q-15 70 -45.5 100.5t-87.5 30.5h-79v-293h-86v665zM246 358q69 0 109.5 35t40.5 93q0 127 -152 127q-53 0 -83 -8v-247h85z
M154 788h238v-55h-238v55zM241 -159.5q-15 15.5 -15 36.5q0 22 15 37t37 15q21 0 35 -15t14 -37t-14 -37t-36 -15q-21 0 -36 15.5z" />
    <glyph glyph-name="rdotbelowmacron" unicode="&#x1e5d;" horiz-adv-x="322" 
d="M66 0zM72 334q0 91 -4 151h77l3 -95h3q16 48 52.5 76.5t81.5 28.5q11 0 23 -3v-82q-13 3 -29 3q-46 0 -77.5 -31t-40.5 -82q-3 -18 -3 -41v-259h-86v334zM79 641h223v-55h-223v55zM80 -156.5q-14 14.5 -14 35.5t14.5 35.5t35.5 14.5q20 0 33.5 -14.5t13.5 -35.5
t-13.5 -35.5t-34.5 -14.5t-35 14.5z" />
    <glyph glyph-name="Rlinebelow" unicode="&#x1e5e;" horiz-adv-x="530" 
d="M75 0zM75 665q73 14 163 14q106 0 175.5 -42t69.5 -141q0 -61 -34.5 -107t-92.5 -66v-2q75 -26 100 -137q34 -154 51 -184h-90q-16 30 -44 162q-15 70 -45.5 100.5t-87.5 30.5h-79v-293h-86v665zM246 358q69 0 109.5 35t40.5 93q0 127 -152 127q-53 0 -83 -8v-247h85z
M166 -89h238v-55h-238v55z" />
    <glyph glyph-name="rlinebelow" unicode="&#x1e5f;" horiz-adv-x="322" 
d="M38 0zM72 334q0 91 -4 151h77l3 -95h3q16 48 52.5 76.5t81.5 28.5q11 0 23 -3v-82q-13 3 -29 3q-46 0 -77.5 -31t-40.5 -82q-3 -18 -3 -41v-259h-86v334zM38 -90h223v-55h-223v55z" />
    <glyph glyph-name="Sdotaccent" unicode="&#x1e60;" horiz-adv-x="484" 
d="M41 0zM41 32l22 72q67 -43 152 -43q63 0 102 31.5t39 83.5q0 47 -30 78.5t-97 56.5q-175 66 -175 192q0 52 27.5 93.5t77 65t111.5 23.5q89 0 145 -32l-24 -71q-53 32 -124 32q-55 0 -91 -28t-36 -73q0 -44 28.5 -72t104.5 -59q88 -36 128.5 -82.5t40.5 -116.5
q0 -58 -28.5 -101.5t-81 -67.5t-123.5 -24q-105 0 -168 42zM227 735.5q-15 15.5 -15 36.5q0 22 15 37t37 15q21 0 35 -15t14 -37t-14 -37t-36 -15q-21 0 -36 15.5z" />
    <glyph glyph-name="sdotaccent" unicode="&#x1e61;" horiz-adv-x="388" 
d="M38 0zM38 22l21 67q53 -34 114 -34q93 0 93 72q0 31 -20 51t-68 38q-127 48 -127 138q0 63 46 102t119 39q68 0 117 -29l-22 -64q-43 28 -97 28q-36 0 -57.5 -18t-21.5 -48q0 -31 23 -48t67 -35q125 -51 125 -146q0 -66 -48 -105.5t-131 -39.5q-77 0 -133 32zM179 587.5
q-14 14.5 -14 35.5t14.5 35.5t35.5 14.5q20 0 33.5 -14.5t13.5 -35.5t-13.5 -35.5t-34.5 -14.5t-35 14.5z" />
    <glyph glyph-name="Sdotbelow" unicode="&#x1e62;" horiz-adv-x="484" 
d="M41 0zM41 32l22 72q67 -43 152 -43q63 0 102 31.5t39 83.5q0 47 -30 78.5t-97 56.5q-175 66 -175 192q0 52 27.5 93.5t77 65t111.5 23.5q89 0 145 -32l-24 -71q-53 32 -124 32q-55 0 -91 -28t-36 -73q0 -44 28.5 -72t104.5 -59q88 -36 128.5 -82.5t40.5 -116.5
q0 -58 -28.5 -101.5t-81 -67.5t-123.5 -24q-105 0 -168 42zM189 -159.5q-15 15.5 -15 36.5q0 22 15 37t37 15q21 0 35 -15t14 -37t-14 -37t-36 -15q-21 0 -36 15.5z" />
    <glyph glyph-name="sdotbelow" unicode="&#x1e63;" horiz-adv-x="388" 
d="M38 0zM38 22l21 67q53 -34 114 -34q93 0 93 72q0 31 -20 51t-68 38q-127 48 -127 138q0 63 46 102t119 39q68 0 117 -29l-22 -64q-43 28 -97 28q-36 0 -57.5 -18t-21.5 -48q0 -31 23 -48t67 -35q125 -51 125 -146q0 -66 -48 -105.5t-131 -39.5q-77 0 -133 32zM154 -156.5
q-14 14.5 -14 35.5t14.5 35.5t35.5 14.5q20 0 33.5 -14.5t13.5 -35.5t-13.5 -35.5t-34.5 -14.5t-35 14.5z" />
    <glyph glyph-name="Sacutedotaccent" unicode="&#x1e64;" horiz-adv-x="484" 
d="M41 0zM41 32l22 72q67 -43 152 -43q63 0 102 31.5t39 83.5q0 47 -30 78.5t-97 56.5q-175 66 -175 192q0 52 27.5 93.5t77 65t111.5 23.5q89 0 145 -32l-24 -71q-53 32 -124 32q-55 0 -91 -28t-36 -73q0 -44 28.5 -72t104.5 -59q88 -36 128.5 -82.5t40.5 -116.5
q0 -58 -28.5 -101.5t-81 -67.5t-123.5 -24q-105 0 -168 42zM247 875.5q-13 14.5 -13 35.5t14 35.5t34 14.5q21 0 34.5 -14.5t13.5 -35.5q0 -22 -13.5 -36t-35.5 -14q-21 0 -34 14.5zM298 835h103l-129 -117h-68z" />
    <glyph glyph-name="sacutedotaccent" unicode="&#x1e65;" horiz-adv-x="388" 
d="M38 0zM38 22l21 67q53 -34 114 -34q93 0 93 72q0 31 -20 51t-68 38q-127 48 -127 138q0 63 46 102t119 39q68 0 117 -29l-22 -64q-43 28 -97 28q-36 0 -57.5 -18t-21.5 -48q0 -31 23 -48t67 -35q125 -51 125 -146q0 -66 -48 -105.5t-131 -39.5q-77 0 -133 32z
M195.5 737.5q-13.5 14.5 -13.5 35.5t14.5 35.5t34.5 14.5q21 0 34.5 -14.5t13.5 -35.5t-14 -35.5t-35 -14.5t-34.5 14.5zM244 693h95l-121 -143h-61z" />
    <glyph glyph-name="Scarondotaccent" unicode="&#x1e66;" horiz-adv-x="484" 
d="M41 0zM41 32l22 72q67 -43 152 -43q63 0 102 31.5t39 83.5q0 47 -30 78.5t-97 56.5q-175 66 -175 192q0 52 27.5 93.5t77 65t111.5 23.5q89 0 145 -32l-24 -71q-53 32 -124 32q-55 0 -91 -28t-36 -73q0 -44 28.5 -72t104.5 -59q88 -36 128.5 -82.5t40.5 -116.5
q0 -58 -28.5 -101.5t-81 -67.5t-123.5 -24q-105 0 -168 42zM222 860.5q-13 14.5 -13 35.5t14 35.5t34 14.5q21 0 34.5 -14.5t13.5 -35.5q0 -22 -13.5 -36t-35.5 -14q-21 0 -34 14.5zM120 832h72l64 -69h2l63 69h69l-102 -114h-63z" />
    <glyph glyph-name="scarondotaccent" unicode="&#x1e67;" horiz-adv-x="388" 
d="M38 0zM38 22l21 67q53 -34 114 -34q93 0 93 72q0 31 -20 51t-68 38q-127 48 -127 138q0 63 46 102t119 39q68 0 117 -29l-22 -64q-43 28 -97 28q-36 0 -57.5 -18t-21.5 -48q0 -31 23 -48t67 -35q125 -51 125 -146q0 -66 -48 -105.5t-131 -39.5q-77 0 -133 32z
M170.5 727.5q-13.5 14.5 -13.5 35.5t14.5 35.5t34.5 14.5q21 0 34.5 -14.5t13.5 -35.5t-14 -35.5t-35 -14.5t-34.5 14.5zM83 693h65l57 -94h2l57 94h63l-92 -143h-58z" />
    <glyph glyph-name="Sdotbelowdotaccent" unicode="&#x1e68;" horiz-adv-x="484" 
d="M41 0zM41 32l22 72q67 -43 152 -43q63 0 102 31.5t39 83.5q0 47 -30 78.5t-97 56.5q-175 66 -175 192q0 52 27.5 93.5t77 65t111.5 23.5q89 0 145 -32l-24 -71q-53 32 -124 32q-55 0 -91 -28t-36 -73q0 -44 28.5 -72t104.5 -59q88 -36 128.5 -82.5t40.5 -116.5
q0 -58 -28.5 -101.5t-81 -67.5t-123.5 -24q-105 0 -168 42zM227 735.5q-15 15.5 -15 36.5q0 22 15 37t37 15q21 0 35 -15t14 -37t-14 -37t-36 -15q-21 0 -36 15.5zM189 -159.5q-15 15.5 -15 36.5q0 22 15 37t37 15q21 0 35 -15t14 -37t-14 -37t-36 -15q-21 0 -36 15.5z" />
    <glyph glyph-name="sdotbelowdotaccent" unicode="&#x1e69;" horiz-adv-x="388" 
d="M38 0zM38 22l21 67q53 -34 114 -34q93 0 93 72q0 31 -20 51t-68 38q-127 48 -127 138q0 63 46 102t119 39q68 0 117 -29l-22 -64q-43 28 -97 28q-36 0 -57.5 -18t-21.5 -48q0 -31 23 -48t67 -35q125 -51 125 -146q0 -66 -48 -105.5t-131 -39.5q-77 0 -133 32zM179 587.5
q-14 14.5 -14 35.5t14.5 35.5t35.5 14.5q20 0 33.5 -14.5t13.5 -35.5t-13.5 -35.5t-34.5 -14.5t-35 14.5zM154 -156.5q-14 14.5 -14 35.5t14.5 35.5t35.5 14.5q20 0 33.5 -14.5t13.5 -35.5t-13.5 -35.5t-34.5 -14.5t-35 14.5z" />
    <glyph glyph-name="Tdotaccent" unicode="&#x1e6a;" horiz-adv-x="487" 
d="M0 0zM200 602h-201v72h489v-72h-202v-602h-86v602zM207 735.5q-15 15.5 -15 36.5q0 22 15 37t37 15q21 0 35 -15t14 -37t-14 -37t-36 -15q-21 0 -36 15.5z" />
    <glyph glyph-name="tdotaccent" unicode="&#x1e6b;" horiz-adv-x="326" 
d="M17 0zM123.5 28q-32.5 38 -32.5 123v268h-74v66h74v115l86 23v-138h124v-66h-124v-265q0 -93 65 -93q29 0 50 6l4 -66q-31 -11 -77 -11q-63 0 -95.5 38zM103 670.5q-14 14.5 -14 35.5t14.5 35.5t35.5 14.5q20 0 33.5 -14.5t13.5 -35.5t-13.5 -35.5t-34.5 -14.5t-35 14.5z
" />
    <glyph glyph-name="Tdotbelow" unicode="&#x1e6c;" horiz-adv-x="487" 
d="M0 0zM200 602h-201v72h489v-72h-202v-602h-86v602zM207 -159.5q-15 15.5 -15 36.5q0 22 15 37t37 15q21 0 35 -15t14 -37t-14 -37t-36 -15q-21 0 -36 15.5z" />
    <glyph glyph-name="tdotbelow" unicode="&#x1e6d;" horiz-adv-x="326" 
d="M17 0zM123.5 28q-32.5 38 -32.5 123v268h-74v66h74v115l86 23v-138h124v-66h-124v-265q0 -93 65 -93q29 0 50 6l4 -66q-31 -11 -77 -11q-63 0 -95.5 38zM157 -156.5q-14 14.5 -14 35.5t14.5 35.5t35.5 14.5q20 0 33.5 -14.5t13.5 -35.5t-13.5 -35.5t-34.5 -14.5t-35 14.5
z" />
    <glyph glyph-name="Tlinebelow" unicode="&#x1e6e;" horiz-adv-x="487" 
d="M0 0zM200 602h-201v72h489v-72h-202v-602h-86v602zM125 -89h238v-55h-238v55z" />
    <glyph glyph-name="tlinebelow" unicode="&#x1e6f;" horiz-adv-x="326" 
d="M17 0zM123.5 28q-32.5 38 -32.5 123v268h-74v66h74v115l86 23v-138h124v-66h-124v-265q0 -93 65 -93q29 0 50 6l4 -66q-31 -11 -77 -11q-63 0 -95.5 38zM89 -90h223v-55h-223v55z" />
    <glyph glyph-name="Tcircumflexbelow" unicode="&#x1e70;" horiz-adv-x="487" 
d="M0 0zM200 602h-201v72h489v-72h-202v-602h-86v602zM211 -55h63l105 -114h-72l-64 69h-2l-63 -69h-69z" />
    <glyph glyph-name="tcircumflexbelow" unicode="&#x1e71;" horiz-adv-x="326" 
d="M17 0zM123.5 28q-32.5 38 -32.5 123v268h-74v66h74v115l86 23v-138h124v-66h-124v-265q0 -93 65 -93q29 0 50 6l4 -66q-31 -11 -77 -11q-63 0 -95.5 38zM161 -55h58l94 -143h-65l-57 94h-2l-57 -94h-63z" />
    <glyph glyph-name="Udieresisbelow" unicode="&#x1e72;" horiz-adv-x="635" 
d="M75 0zM135 62q-60 73 -60 212v400h86v-403q0 -100 40 -156t113 -56q79 0 119.5 54.5t40.5 157.5v403h86v-396q0 -139 -65 -214t-184 -75q-116 0 -176 73zM190 -156.5q-13 14.5 -13 35.5t14 35.5t34 14.5q21 0 34.5 -14.5t13.5 -35.5q0 -22 -13.5 -36t-35.5 -14
q-21 0 -34 14.5zM370.5 -156.5q-13.5 14.5 -13.5 35.5t14 35.5t35 14.5q20 0 33.5 -14.5t13.5 -35.5q0 -22 -13.5 -36t-35.5 -14q-20 0 -33.5 14.5z" />
    <glyph glyph-name="udieresisbelow" unicode="&#x1e73;" horiz-adv-x="540" 
d="M69 0zM112.5 43q-43.5 53 -43.5 156v286h86v-270q0 -154 106 -154q37 0 68.5 22.5t44.5 57.5q8 21 8 45v299h86v-353q0 -72 4 -132h-76l-5 77h-2q-51 -87 -157 -87q-76 0 -119.5 53zM140.5 -156.5q-13.5 14.5 -13.5 35.5t14.5 35.5t34.5 14.5q21 0 34.5 -14.5t13.5 -35.5
t-14 -35.5t-35 -14.5t-34.5 14.5zM315.5 -156.5q-13.5 14.5 -13.5 35.5t14 35.5t35 14.5t34.5 -14.5t13.5 -35.5t-14 -35.5t-35 -14.5t-34.5 14.5z" />
    <glyph glyph-name="Utildebelow" unicode="&#x1e74;" horiz-adv-x="635" 
d="M75 0zM135 62q-60 73 -60 212v400h86v-403q0 -100 40 -156t113 -56q79 0 119.5 54.5t40.5 157.5v403h86v-396q0 -139 -65 -214t-184 -75q-116 0 -176 73zM213 -98q17 28 49 28q15 0 29.5 -6t33.5 -18q12 -7 23.5 -12.5t20.5 -5.5q12 0 19.5 12t9.5 33h44q0 -99 -67 -99
q-17 0 -32 6.5t-35 18.5q-28 17 -41 17q-20 0 -27 -48h-44q0 46 17 74z" />
    <glyph glyph-name="utildebelow" unicode="&#x1e75;" horiz-adv-x="540" 
d="M69 0zM112.5 43q-43.5 53 -43.5 156v286h86v-270q0 -154 106 -154q37 0 68.5 22.5t44.5 57.5q8 21 8 45v299h86v-353q0 -72 4 -132h-76l-5 77h-2q-51 -87 -157 -87q-76 0 -119.5 53zM162 -99q17 29 48 29q13 0 26.5 -5.5t35.5 -17.5q32 -19 46 -19q11 0 17.5 12t8.5 33
h43q0 -100 -66 -100q-21 0 -63 23q-12 7 -23.5 12t-18.5 5q-23 0 -26 -46h-45q0 45 17 74z" />
    <glyph glyph-name="Ucircumflexbelow" unicode="&#x1e76;" horiz-adv-x="635" 
d="M75 0zM135 62q-60 73 -60 212v400h86v-403q0 -100 40 -156t113 -56q79 0 119.5 54.5t40.5 157.5v403h86v-396q0 -139 -65 -214t-184 -75q-116 0 -176 73zM286 -55h63l105 -114h-72l-64 69h-2l-63 -69h-69z" />
    <glyph glyph-name="ucircumflexbelow" unicode="&#x1e77;" horiz-adv-x="540" 
d="M69 0zM112.5 43q-43.5 53 -43.5 156v286h86v-270q0 -154 106 -154q37 0 68.5 22.5t44.5 57.5q8 21 8 45v299h86v-353q0 -72 4 -132h-76l-5 77h-2q-51 -87 -157 -87q-76 0 -119.5 53zM233 -55h58l94 -143h-65l-57 94h-2l-57 -94h-63z" />
    <glyph glyph-name="Utildeacute" unicode="&#x1e78;" horiz-adv-x="635" 
d="M75 0zM135 62q-60 73 -60 212v400h86v-403q0 -100 40 -156t113 -56q79 0 119.5 54.5t40.5 157.5v403h86v-396q0 -139 -65 -214t-184 -75q-116 0 -176 73zM367 942h97l-130 -95h-61zM217 792q17 28 49 28q15 0 29.5 -6t33.5 -18q12 -7 23.5 -12.5t20.5 -5.5q12 0 19.5 12
t9.5 33h44q0 -99 -67 -99q-17 0 -32 6.5t-35 18.5q-28 17 -41 17q-20 0 -27 -48h-44q0 46 17 74z" />
    <glyph glyph-name="utildeacute" unicode="&#x1e79;" horiz-adv-x="540" 
d="M69 0zM112.5 43q-43.5 53 -43.5 156v286h86v-270q0 -154 106 -154q37 0 68.5 22.5t44.5 57.5q8 21 8 45v299h86v-353q0 -72 4 -132h-76l-5 77h-2q-51 -87 -157 -87q-76 0 -119.5 53zM301 770h97l-120 -95h-61zM175 610q17 29 48 29q13 0 26.5 -5.5t35.5 -17.5
q32 -19 46 -19q11 0 17.5 12t8.5 33h43q0 -100 -66 -100q-21 0 -63 23q-12 7 -23.5 12t-18.5 5q-23 0 -26 -46h-45q0 45 17 74z" />
    <glyph glyph-name="Umacrondieresis" unicode="&#x1e7a;" horiz-adv-x="635" 
d="M75 0zM135 62q-60 73 -60 212v400h86v-403q0 -100 40 -156t113 -56q79 0 119.5 54.5t40.5 157.5v403h86v-396q0 -139 -65 -214t-184 -75q-116 0 -176 73zM193 840.5q-13 14.5 -13 35.5t14 35.5t34 14.5q21 0 34.5 -14.5t13.5 -35.5q0 -22 -13.5 -36t-35.5 -14
q-21 0 -34 14.5zM373.5 840.5q-13.5 14.5 -13.5 35.5t14 35.5t35 14.5q20 0 33.5 -14.5t13.5 -35.5q0 -22 -13.5 -36t-35.5 -14q-20 0 -33.5 14.5zM199 788h238v-55h-238v55z" />
    <glyph glyph-name="umacrondieresis" unicode="&#x1e7b;" horiz-adv-x="540" 
d="M69 0zM112.5 43q-43.5 53 -43.5 156v286h86v-270q0 -154 106 -154q37 0 68.5 22.5t44.5 57.5q8 21 8 45v299h86v-353q0 -72 4 -132h-76l-5 77h-2q-51 -87 -157 -87q-76 0 -119.5 53zM145.5 669.5q-13.5 14.5 -13.5 35.5t14.5 35.5t34.5 14.5q21 0 34.5 -14.5t13.5 -35.5
t-14 -35.5t-35 -14.5t-34.5 14.5zM320.5 669.5q-13.5 14.5 -13.5 35.5t14 35.5t35 14.5t34.5 -14.5t13.5 -35.5t-14 -35.5t-35 -14.5t-34.5 14.5zM157 611h223v-55h-223v55z" />
    <glyph glyph-name="Vtilde" unicode="&#x1e7c;" horiz-adv-x="549" 
d="M4 0zM4 674h94l102 -331q40 -126 71 -252h2q21 92 75 251l111 332h92l-235 -674h-95zM179 792q17 28 49 28q15 0 29.5 -6t33.5 -18q12 -7 23.5 -12.5t20.5 -5.5q12 0 19.5 12t9.5 33h44q0 -99 -67 -99q-17 0 -32 6.5t-35 18.5q-28 17 -41 17q-20 0 -27 -48h-44
q0 46 17 74z" />
    <glyph glyph-name="vtilde" unicode="&#x1e7d;" horiz-adv-x="472" 
d="M13 0zM13 485h93l93 -273q23 -66 37 -124h4q7 28 39 124l92 273h91l-186 -485h-83zM141 640q17 29 48 29q13 0 26.5 -5.5t35.5 -17.5q32 -19 46 -19q11 0 17.5 12t8.5 33h43q0 -100 -66 -100q-21 0 -63 23q-12 7 -23.5 12t-18.5 5q-23 0 -26 -46h-45q0 45 17 74z" />
    <glyph glyph-name="Vdotbelow" unicode="&#x1e7e;" horiz-adv-x="549" 
d="M4 0zM4 674h94l102 -331q40 -126 71 -252h2q21 92 75 251l111 332h92l-235 -674h-95zM233 -159.5q-15 15.5 -15 36.5q0 22 15 37t37 15q21 0 35 -15t14 -37t-14 -37t-36 -15q-21 0 -36 15.5z" />
    <glyph glyph-name="vdotbelow" unicode="&#x1e7f;" horiz-adv-x="472" 
d="M13 0zM13 485h93l93 -273q23 -66 37 -124h4q7 28 39 124l92 273h91l-186 -485h-83zM200 -156.5q-14 14.5 -14 35.5t14.5 35.5t35.5 14.5q20 0 33.5 -14.5t13.5 -35.5t-13.5 -35.5t-34.5 -14.5t-35 14.5z" />
    <glyph glyph-name="Wgrave" unicode="&#x1e80;" horiz-adv-x="832" 
d="M15 0zM15 674h92l78 -340q28 -118 49 -234h2q12 72 54 235l89 339h88l80 -340q37 -160 48 -232h2q16 91 53 233l86 339h88l-187 -674h-90l-83 349q-34 142 -44 221h-2q-14 -86 -50 -221l-94 -349h-91zM281 835h104l92 -117h-70z" />
    <glyph glyph-name="wgrave" unicode="&#x1e81;" horiz-adv-x="725" 
d="M18 0zM18 485h89l63 -246q22 -83 36 -155h2q14 64 43 154l77 247h73l74 -243q26 -85 42 -158h2q13 74 37 158l68 243h86l-154 -485h-79l-72 231q-28 87 -42 160h-2q-17 -78 -44 -161l-76 -230h-79zM227 693h96l87 -143h-62z" />
    <glyph glyph-name="Wacute" unicode="&#x1e82;" horiz-adv-x="832" 
d="M15 0zM15 674h92l78 -340q28 -118 49 -234h2q12 72 54 235l89 339h88l80 -340q37 -160 48 -232h2q16 91 53 233l86 339h88l-187 -674h-90l-83 349q-34 142 -44 221h-2q-14 -86 -50 -221l-94 -349h-91zM463 835h103l-129 -117h-68z" />
    <glyph glyph-name="wacute" unicode="&#x1e83;" horiz-adv-x="725" 
d="M18 0zM18 485h89l63 -246q22 -83 36 -155h2q14 64 43 154l77 247h73l74 -243q26 -85 42 -158h2q13 74 37 158l68 243h86l-154 -485h-79l-72 231q-28 87 -42 160h-2q-17 -78 -44 -161l-76 -230h-79zM406 693h95l-121 -143h-61z" />
    <glyph glyph-name="Wdieresis" unicode="&#x1e84;" horiz-adv-x="832" 
d="M15 0zM15 674h92l78 -340q28 -118 49 -234h2q12 72 54 235l89 339h88l80 -340q37 -160 48 -232h2q16 91 53 233l86 339h88l-187 -674h-90l-83 349q-34 142 -44 221h-2q-14 -86 -50 -221l-94 -349h-91zM299 734.5q-13 14.5 -13 35.5t14 35.5t34 14.5q21 0 34.5 -14.5
t13.5 -35.5q0 -22 -13.5 -36t-35.5 -14q-21 0 -34 14.5zM479.5 734.5q-13.5 14.5 -13.5 35.5t14 35.5t35 14.5q20 0 33.5 -14.5t13.5 -35.5q0 -22 -13.5 -36t-35.5 -14q-20 0 -33.5 14.5z" />
    <glyph glyph-name="wdieresis" unicode="&#x1e85;" horiz-adv-x="725" 
d="M18 0zM18 485h89l63 -246q22 -83 36 -155h2q14 64 43 154l77 247h73l74 -243q26 -85 42 -158h2q13 74 37 158l68 243h86l-154 -485h-79l-72 231q-28 87 -42 160h-2q-17 -78 -44 -161l-76 -230h-79zM241.5 587.5q-13.5 14.5 -13.5 35.5t14.5 35.5t34.5 14.5
q21 0 34.5 -14.5t13.5 -35.5t-14 -35.5t-35 -14.5t-34.5 14.5zM416.5 587.5q-13.5 14.5 -13.5 35.5t14 35.5t35 14.5t34.5 -14.5t13.5 -35.5t-14 -35.5t-35 -14.5t-34.5 14.5z" />
    <glyph glyph-name="Wdotaccent" unicode="&#x1e86;" horiz-adv-x="832" 
d="M15 0zM15 674h92l78 -340q28 -118 49 -234h2q12 72 54 235l89 339h88l80 -340q37 -160 48 -232h2q16 91 53 233l86 339h88l-187 -674h-90l-83 349q-34 142 -44 221h-2q-14 -86 -50 -221l-94 -349h-91zM389 735.5q-15 15.5 -15 36.5q0 22 15 37t37 15q21 0 35 -15t14 -37
t-14 -37t-36 -15q-21 0 -36 15.5z" />
    <glyph glyph-name="wdotaccent" unicode="&#x1e87;" horiz-adv-x="725" 
d="M18 0zM18 485h89l63 -246q22 -83 36 -155h2q14 64 43 154l77 247h73l74 -243q26 -85 42 -158h2q13 74 37 158l68 243h86l-154 -485h-79l-72 231q-28 87 -42 160h-2q-17 -78 -44 -161l-76 -230h-79zM330 587.5q-14 14.5 -14 35.5t14.5 35.5t35.5 14.5q20 0 33.5 -14.5
t13.5 -35.5t-13.5 -35.5t-34.5 -14.5t-35 14.5z" />
    <glyph glyph-name="Wdotbelow" unicode="&#x1e88;" horiz-adv-x="832" 
d="M15 0zM15 674h92l78 -340q28 -118 49 -234h2q12 72 54 235l89 339h88l80 -340q37 -160 48 -232h2q16 91 53 233l86 339h88l-187 -674h-90l-83 349q-34 142 -44 221h-2q-14 -86 -50 -221l-94 -349h-91zM375 -159.5q-15 15.5 -15 36.5q0 22 15 37t37 15q21 0 35 -15t14 -37
t-14 -37t-36 -15q-21 0 -36 15.5z" />
    <glyph glyph-name="wdotbelow" unicode="&#x1e89;" horiz-adv-x="725" 
d="M18 0zM18 485h89l63 -246q22 -83 36 -155h2q14 64 43 154l77 247h73l74 -243q26 -85 42 -158h2q13 74 37 158l68 243h86l-154 -485h-79l-72 231q-28 87 -42 160h-2q-17 -78 -44 -161l-76 -230h-79zM330 -156.5q-14 14.5 -14 35.5t14.5 35.5t35.5 14.5q20 0 33.5 -14.5
t13.5 -35.5t-13.5 -35.5t-34.5 -14.5t-35 14.5z" />
    <glyph glyph-name="Xdotaccent" unicode="&#x1e8a;" horiz-adv-x="559" 
d="M24 0zM226 342l-194 332h99l88 -158q48 -88 61 -114h2q21 45 60 114l89 158h99l-201 -328l206 -346h-100l-84 150l-27 47q-41 70 -49 85h-2q-30 -62 -69 -133l-81 -149h-99zM246 735.5q-15 15.5 -15 36.5q0 22 15 37t37 15q21 0 35 -15t14 -37t-14 -37t-36 -15
q-21 0 -36 15.5z" />
    <glyph glyph-name="xdotaccent" unicode="&#x1e8b;" horiz-adv-x="455" 
d="M8 0zM176 247l-160 238h97l67 -105q22 -33 49 -81l16 27q7 11 15 25l18 30l66 104h95l-162 -235l166 -250h-99l-69 109l-52 85l-51 -85l-68 -109h-96zM194 587.5q-14 14.5 -14 35.5t14.5 35.5t35.5 14.5q20 0 33.5 -14.5t13.5 -35.5t-13.5 -35.5t-34.5 -14.5t-35 14.5z
" />
    <glyph glyph-name="Xdieresis" unicode="&#x1e8c;" horiz-adv-x="559" 
d="M24 0zM226 342l-194 332h99l88 -158q48 -88 61 -114h2q21 45 60 114l89 158h99l-201 -328l206 -346h-100l-84 150l-27 47q-41 70 -49 85h-2q-30 -62 -69 -133l-81 -149h-99zM156 734.5q-13 14.5 -13 35.5t14 35.5t34 14.5q21 0 34.5 -14.5t13.5 -35.5q0 -22 -13.5 -36
t-35.5 -14q-21 0 -34 14.5zM336.5 734.5q-13.5 14.5 -13.5 35.5t14 35.5t35 14.5q20 0 33.5 -14.5t13.5 -35.5q0 -22 -13.5 -36t-35.5 -14q-20 0 -33.5 14.5z" />
    <glyph glyph-name="xdieresis" unicode="&#x1e8d;" horiz-adv-x="455" 
d="M8 0zM176 247l-160 238h97l67 -105q22 -33 49 -81l16 27q7 11 15 25l18 30l66 104h95l-162 -235l166 -250h-99l-69 109l-52 85l-51 -85l-68 -109h-96zM105.5 587.5q-13.5 14.5 -13.5 35.5t14.5 35.5t34.5 14.5q21 0 34.5 -14.5t13.5 -35.5t-14 -35.5t-35 -14.5
t-34.5 14.5zM280.5 587.5q-13.5 14.5 -13.5 35.5t14 35.5t35 14.5t34.5 -14.5t13.5 -35.5t-14 -35.5t-35 -14.5t-34.5 14.5z" />
    <glyph glyph-name="Ydotaccent" unicode="&#x1e8e;" horiz-adv-x="531" 
d="M13 0zM223 286l-210 388h98l92 -185q40 -81 66 -140h2q25 59 67 141l94 184h98l-221 -387v-287h-86v286zM235 735.5q-15 15.5 -15 36.5q0 22 15 37t37 15q21 0 35 -15t14 -37t-14 -37t-36 -15q-21 0 -36 15.5z" />
    <glyph glyph-name="ydotaccent" unicode="&#x1e8f;" horiz-adv-x="461" 
d="M9 0zM34 -147q96 32 148 142q6 14 6 21t-5 22l-174 447h94l103 -287q16 -43 30 -98h3q18 65 30 100l93 285h92l-128 -344q-44 -117 -78.5 -186.5t-84.5 -116.5q-23 -22 -51 -37t-55 -21zM202 587.5q-14 14.5 -14 35.5t14.5 35.5t35.5 14.5q20 0 33.5 -14.5t13.5 -35.5
t-13.5 -35.5t-34.5 -14.5t-35 14.5z" />
    <glyph glyph-name="Zcircumflex" unicode="&#x1e90;" horiz-adv-x="540" 
d="M30 0zM30 51l365 549v2h-335v72h445v-53l-363 -547v-2h367v-72h-479v51zM253 832h63l105 -114h-72l-64 69h-2l-63 -69h-69z" />
    <glyph glyph-name="zcircumflex" unicode="&#x1e91;" horiz-adv-x="418" 
d="M17 0zM17 51l215 285q35 47 63 79v2h-259v68h362v-55l-212 -283q-27 -37 -62 -77v-2h278v-68h-385v51zM183 693h58l94 -143h-65l-57 94h-2l-57 -94h-63z" />
    <glyph glyph-name="Zdotbelow" unicode="&#x1e92;" horiz-adv-x="540" 
d="M30 0zM30 51l365 549v2h-335v72h445v-53l-363 -547v-2h367v-72h-479v51zM242 -159.5q-15 15.5 -15 36.5q0 22 15 37t37 15q21 0 35 -15t14 -37t-14 -37t-36 -15q-21 0 -36 15.5z" />
    <glyph glyph-name="zdotbelow" unicode="&#x1e93;" horiz-adv-x="418" 
d="M17 0zM17 51l215 285q35 47 63 79v2h-259v68h362v-55l-212 -283q-27 -37 -62 -77v-2h278v-68h-385v51zM182 -156.5q-14 14.5 -14 35.5t14.5 35.5t35.5 14.5q20 0 33.5 -14.5t13.5 -35.5t-13.5 -35.5t-34.5 -14.5t-35 14.5z" />
    <glyph glyph-name="Zlinebelow" unicode="&#x1e94;" horiz-adv-x="540" 
d="M30 0zM30 51l365 549v2h-335v72h445v-53l-363 -547v-2h367v-72h-479v51zM161 -89h238v-55h-238v55z" />
    <glyph glyph-name="zlinebelow" unicode="&#x1e95;" horiz-adv-x="418" 
d="M17 0zM17 51l215 285q35 47 63 79v2h-259v68h362v-55l-212 -283q-27 -37 -62 -77v-2h278v-68h-385v51zM99 -90h223v-55h-223v55z" />
    <glyph glyph-name="hlinebelow" unicode="&#x1e96;" horiz-adv-x="543" 
d="M72 0zM72 709h86v-298h2q23 39 63.5 61.5t86.5 22.5q80 0 122 -56.5t42 -147.5v-291h-86v283q0 141 -109 141q-39 0 -71 -24t-45 -63q-5 -18 -5 -41v-296h-86v709zM162 -90h223v-55h-223v55z" />
    <glyph glyph-name="tdieresis" unicode="&#x1e97;" horiz-adv-x="326" 
d="M17 0zM123.5 28q-32.5 38 -32.5 123v268h-74v66h74v115l86 23v-138h124v-66h-124v-265q0 -93 65 -93q29 0 50 6l4 -66q-31 -11 -77 -11q-63 0 -95.5 38zM31.5 670.5q-13.5 14.5 -13.5 35.5t14.5 35.5t34.5 14.5q21 0 34.5 -14.5t13.5 -35.5t-14 -35.5t-35 -14.5
t-34.5 14.5zM206.5 670.5q-13.5 14.5 -13.5 35.5t14 35.5t35 14.5t34.5 -14.5t13.5 -35.5t-14 -35.5t-35 -14.5t-34.5 14.5z" />
    <glyph glyph-name="wring" unicode="&#x1e98;" horiz-adv-x="725" 
d="M18 0zM18 485h89l63 -246q22 -83 36 -155h2q14 64 43 154l77 247h73l74 -243q26 -85 42 -158h2q13 74 37 158l68 243h86l-154 -485h-79l-72 231q-28 87 -42 160h-2q-17 -78 -44 -161l-76 -230h-79zM292 561q-28 26 -28 65q0 41 27.5 68t73.5 27q44 0 71.5 -27t27.5 -67
t-28.5 -66t-71.5 -26q-44 0 -72 26zM399.5 589q14.5 16 14.5 39t-14.5 39t-37.5 16q-22 0 -35 -16.5t-13 -40.5q0 -21 13.5 -37t34.5 -16q23 0 37.5 16z" />
    <glyph glyph-name="yring" unicode="&#x1e99;" horiz-adv-x="461" 
d="M9 0zM34 -147q96 32 148 142q6 14 6 21t-5 22l-174 447h94l103 -287q16 -43 30 -98h3q18 65 30 100l93 285h92l-128 -344q-44 -117 -78.5 -186.5t-84.5 -116.5q-23 -22 -51 -37t-55 -21zM163 561q-28 26 -28 65q0 41 27.5 68t73.5 27q44 0 71.5 -27t27.5 -67t-28.5 -66
t-71.5 -26q-44 0 -72 26zM270.5 589q14.5 16 14.5 39t-14.5 39t-37.5 16q-22 0 -35 -16.5t-13 -40.5q0 -21 13.5 -37t34.5 -16q23 0 37.5 16z" />
    <glyph glyph-name="arighthalfring" unicode="&#x1e9a;" horiz-adv-x="474" 
d="M35 0zM76 28q-41 38 -41 100q0 88 74 134.5t211 45.5v10q0 113 -108 113q-70 0 -123 -35l-20 58q65 41 157 41q180 0 180 -197v-183q0 -69 8 -115h-79l-8 60h-2q-49 -70 -145 -70q-63 0 -104 38zM247.5 61.5q19.5 7.5 38.5 24.5q35 32 35 76v85q-199 4 -199 -109
q0 -40 22.5 -62t58.5 -22q25 0 44.5 7.5zM183 573q28 0 45 15t17 40t-17 40t-45 15v38q57 0 85.5 -25t28.5 -68q0 -41 -31.5 -67t-82.5 -26v38z" />
    <glyph glyph-name="longsdotaccent" unicode="&#x1e9b;" horiz-adv-x="288" 
d="M15 0zM82 419h-67v66h67v30q0 91 43.5 148t126.5 57q42 0 75 -14l-12 -67q-24 10 -56 10q-46 0 -68.5 -34.5t-22.5 -104.5v-510h-86v419zM193 772.5q-14 14.5 -14 35.5t14.5 35.5t35.5 14.5q20 0 33.5 -14.5t13.5 -35.5t-13.5 -35.5t-34.5 -14.5t-35 14.5z" />
    <glyph glyph-name="longsdiagonalstroke" unicode="&#x1e9c;" horiz-adv-x="288" 
d="M82 214l-68 -58v69l68 59v135h-67v66h67v30q0 91 43.5 148t126.5 57q42 0 75 -14l-12 -67q-24 10 -56 10q-46 0 -68.5 -34.5t-22.5 -104.5v-159l71 61v-70l-71 -61v-281h-86v214z" />
    <glyph glyph-name="longshighstroke" unicode="&#x1e9d;" horiz-adv-x="288" 
d="M82 419h-67v66h67v18q0 20 1 30h-74v52h80q14 62 55.5 98.5t107.5 36.5q42 0 75 -14l-12 -67q-24 10 -56 10q-63 0 -82 -64h114v-52h-122q-1 -10 -1 -30v-503h-86v419z" />
    <glyph glyph-name="deltalatin" unicode="&#x1e9f;" horiz-adv-x="533" 
d="M38 0zM152 17.5q-52 28.5 -83 84t-31 130.5q0 87 49.5 150.5t129.5 103.5v3q-41 33 -62 59t-21 59q0 28 18.5 54t56 42.5t89.5 16.5q48 0 90 -14.5t66 -33.5l-24 -57q-19 14 -55.5 27t-72.5 13q-40 0 -60.5 -13.5t-20.5 -32.5q0 -18 20.5 -38.5t88.5 -74.5l40 -33
q64 -52 94.5 -105t30.5 -122q0 -73 -30 -129.5t-82 -87t-116 -30.5q-63 0 -115 28.5zM340 75.5q31 21.5 49 61.5t18 93q0 41 -12 72.5t-41.5 64t-86.5 79.5q-141 -78 -141 -213q0 -55 20.5 -95.5t54.5 -62t71 -21.5t68 21.5z" />
    <glyph glyph-name="Adotbelow" unicode="&#x1ea0;" horiz-adv-x="600" 
d="M25 0zM249 674h104l224 -674h-92l-70 211h-233l-68 -211h-89zM398 279l-62 192q-9 26 -18 57.5l-13 46.5l-6 21h-2q-15 -64 -35 -124l-63 -193h199zM265 -159.5q-15 15.5 -15 36.5q0 22 15 37t37 15q21 0 35 -15t14 -37t-14 -37t-36 -15q-21 0 -36 15.5z" />
    <glyph glyph-name="adotbelow" unicode="&#x1ea1;" horiz-adv-x="474" 
d="M35 0zM76 28q-41 38 -41 100q0 88 74 134.5t211 45.5v10q0 113 -108 113q-70 0 -123 -35l-20 58q65 41 157 41q180 0 180 -197v-183q0 -69 8 -115h-79l-8 60h-2q-49 -70 -145 -70q-63 0 -104 38zM247.5 61.5q19.5 7.5 38.5 24.5q35 32 35 76v85q-199 4 -199 -109
q0 -40 22.5 -62t58.5 -22q25 0 44.5 7.5zM176 -156.5q-14 14.5 -14 35.5t14.5 35.5t35.5 14.5q20 0 33.5 -14.5t13.5 -35.5t-13.5 -35.5t-34.5 -14.5t-35 14.5z" />
    <glyph glyph-name="Ahookabove" unicode="&#x1ea2;" horiz-adv-x="600" 
d="M25 0zM249 674h104l224 -674h-92l-70 211h-233l-68 -211h-89zM398 279l-62 192q-9 26 -18 57.5l-13 46.5l-6 21h-2q-15 -64 -35 -124l-63 -193h199zM275 721q9 22 31 44q11 11 16.5 19.5t5.5 20.5q0 15 -9.5 24t-24.5 9q-25 0 -49 -37l-34 20q35 67 99 67
q35 0 58.5 -20.5t23.5 -51.5q0 -21 -8.5 -34.5t-27.5 -32.5q-21 -20 -34 -41z" />
    <glyph glyph-name="ahookabove" unicode="&#x1ea3;" horiz-adv-x="474" 
d="M35 0zM76 28q-41 38 -41 100q0 88 74 134.5t211 45.5v10q0 113 -108 113q-70 0 -123 -35l-20 58q65 41 157 41q180 0 180 -197v-183q0 -69 8 -115h-79l-8 60h-2q-49 -70 -145 -70q-63 0 -104 38zM247.5 61.5q19.5 7.5 38.5 24.5q35 32 35 76v85q-199 4 -199 -109
q0 -40 22.5 -62t58.5 -22q25 0 44.5 7.5zM199 542q4 14 12 24.5t21 23.5q14 15 20 24t6 22q0 16 -11 26t-27 10q-25 0 -48 -37l-34 20q32 67 97 67q36 0 60.5 -21t24.5 -54q0 -23 -10 -38.5t-30 -35.5q-24 -21 -36 -43z" />
    <glyph glyph-name="Acircumflexacute" unicode="&#x1ea4;" horiz-adv-x="600" 
d="M25 0zM249 674h104l224 -674h-92l-70 211h-233l-68 -211h-89zM398 279l-62 192q-9 26 -18 57.5l-13 46.5l-6 21h-2q-15 -64 -35 -124l-63 -193h199zM465 908h89l-121 -105h-52zM272 832h63l102 -114h-72l-61 69h-2l-60 -69h-69z" />
    <glyph glyph-name="acircumflexacute" unicode="&#x1ea5;" horiz-adv-x="474" 
d="M35 0zM76 28q-41 38 -41 100q0 88 74 134.5t211 45.5v10q0 113 -108 113q-70 0 -123 -35l-20 58q65 41 157 41q180 0 180 -197v-183q0 -69 8 -115h-79l-8 60h-2q-49 -70 -145 -70q-63 0 -104 38zM247.5 61.5q19.5 7.5 38.5 24.5q35 32 35 76v85q-199 4 -199 -109
q0 -40 22.5 -62t58.5 -22q25 0 44.5 7.5zM386 775h80l-99 -132h-50zM203 693h58l89 -143h-65l-52 94h-2l-52 -94h-63z" />
    <glyph glyph-name="Acircumflexgrave" unicode="&#x1ea6;" horiz-adv-x="600" 
d="M25 0zM249 674h104l224 -674h-92l-70 211h-233l-68 -211h-89zM398 279l-62 192q-9 26 -18 57.5l-13 46.5l-6 21h-2q-15 -64 -35 -124l-63 -193h199zM300 908h89l84 -105h-52zM272 832h63l102 -114h-72l-61 69h-2l-60 -69h-69z" />
    <glyph glyph-name="acircumflexgrave" unicode="&#x1ea7;" horiz-adv-x="474" 
d="M35 0zM76 28q-41 38 -41 100q0 88 74 134.5t211 45.5v10q0 113 -108 113q-70 0 -123 -35l-20 58q65 41 157 41q180 0 180 -197v-183q0 -69 8 -115h-79l-8 60h-2q-49 -70 -145 -70q-63 0 -104 38zM247.5 61.5q19.5 7.5 38.5 24.5q35 32 35 76v85q-199 4 -199 -109
q0 -40 22.5 -62t58.5 -22q25 0 44.5 7.5zM255 775h79l64 -132h-50zM203 693h58l89 -143h-65l-52 94h-2l-52 -94h-63z" />
    <glyph glyph-name="Acircumflexhookabove" unicode="&#x1ea8;" horiz-adv-x="600" 
d="M25 0zM249 674h104l224 -674h-92l-70 211h-233l-68 -211h-89zM398 279l-62 192q-9 26 -18 57.5l-13 46.5l-6 21h-2q-15 -64 -35 -124l-63 -193h199zM387 800q7 18 29 42q11 11 16.5 19.5t5.5 20.5q0 14 -9.5 23t-23.5 9q-25 0 -48 -35l-32 19q31 63 95 63q34 0 56.5 -20
t22.5 -49q0 -20 -8.5 -33.5t-26.5 -29.5q-3 -4 -14.5 -15.5t-19.5 -25.5zM272 832h63l102 -114h-72l-61 69h-2l-60 -69h-69z" />
    <glyph glyph-name="acircumflexhookabove" unicode="&#x1ea9;" horiz-adv-x="474" 
d="M35 0zM76 28q-41 38 -41 100q0 88 74 134.5t211 45.5v10q0 113 -108 113q-70 0 -123 -35l-20 58q65 41 157 41q180 0 180 -197v-183q0 -69 8 -115h-79l-8 60h-2q-49 -70 -145 -70q-63 0 -104 38zM247.5 61.5q19.5 7.5 38.5 24.5q35 32 35 76v85q-199 4 -199 -109
q0 -40 22.5 -62t58.5 -22q25 0 44.5 7.5zM320 653q7 18 29 42q11 11 16.5 19.5t5.5 20.5q0 14 -9.5 23t-23.5 9q-25 0 -48 -35l-32 19q31 63 95 63q34 0 56.5 -20t22.5 -49q0 -20 -8.5 -33.5t-26.5 -29.5q-3 -4 -14.5 -15.5t-19.5 -25.5zM203 693h58l89 -143h-65l-52 94h-2
l-52 -94h-63z" />
    <glyph glyph-name="Acircumflextilde" unicode="&#x1eaa;" horiz-adv-x="600" 
d="M25 0zM249 674h104l224 -674h-92l-70 211h-233l-68 -211h-89zM398 279l-62 192q-9 26 -18 57.5l-13 46.5l-6 21h-2q-15 -64 -35 -124l-63 -193h199zM200 908q17 27 49 27q15 0 29.5 -6t33.5 -18q12 -7 23.5 -12.5t20.5 -5.5q12 0 19.5 12t9.5 33h44q0 -49 -16 -73
t-51 -24q-17 0 -32 6.5t-35 18.5q-28 17 -41 17q-20 0 -27 -48h-44q0 46 17 73zM272 826h63l102 -108h-72l-61 69h-2l-60 -69h-69z" />
    <glyph glyph-name="acircumflextilde" unicode="&#x1eab;" horiz-adv-x="474" 
d="M35 0zM76 28q-41 38 -41 100q0 88 74 134.5t211 45.5v10q0 113 -108 113q-70 0 -123 -35l-20 58q65 41 157 41q180 0 180 -197v-183q0 -69 8 -115h-79l-8 60h-2q-49 -70 -145 -70q-63 0 -104 38zM247.5 61.5q19.5 7.5 38.5 24.5q35 32 35 76v85q-199 4 -199 -109
q0 -40 22.5 -62t58.5 -22q25 0 44.5 7.5zM128 755q17 27 49 27q15 0 29.5 -6t33.5 -18q12 -7 23.5 -12.5t20.5 -5.5q12 0 19.5 12t9.5 33h44q0 -49 -16 -73t-51 -24q-17 0 -32 6.5t-35 18.5q-28 17 -41 17q-20 0 -27 -48h-44q0 46 17 73zM200 664h63l105 -114h-72l-64 69h-2
l-63 -69h-69z" />
    <glyph glyph-name="Acircumflexdotbelow" unicode="&#x1eac;" horiz-adv-x="600" 
d="M25 0zM249 674h104l224 -674h-92l-70 211h-233l-68 -211h-89zM398 279l-62 192q-9 26 -18 57.5l-13 46.5l-6 21h-2q-15 -64 -35 -124l-63 -193h199zM272 832h63l105 -114h-72l-64 69h-2l-63 -69h-69zM265 -159.5q-15 15.5 -15 36.5q0 22 15 37t37 15q21 0 35 -15t14 -37
t-14 -37t-36 -15q-21 0 -36 15.5z" />
    <glyph glyph-name="acircumflexdotbelow" unicode="&#x1ead;" horiz-adv-x="474" 
d="M35 0zM76 28q-41 38 -41 100q0 88 74 134.5t211 45.5v10q0 113 -108 113q-70 0 -123 -35l-20 58q65 41 157 41q180 0 180 -197v-183q0 -69 8 -115h-79l-8 60h-2q-49 -70 -145 -70q-63 0 -104 38zM247.5 61.5q19.5 7.5 38.5 24.5q35 32 35 76v85q-199 4 -199 -109
q0 -40 22.5 -62t58.5 -22q25 0 44.5 7.5zM203 693h58l94 -143h-65l-57 94h-2l-57 -94h-63zM176 -156.5q-14 14.5 -14 35.5t14.5 35.5t35.5 14.5q20 0 33.5 -14.5t13.5 -35.5t-13.5 -35.5t-34.5 -14.5t-35 14.5z" />
    <glyph glyph-name="Abreveacute" unicode="&#x1eae;" horiz-adv-x="600" 
d="M25 0zM249 674h104l224 -674h-92l-70 211h-233l-68 -211h-89zM398 279l-62 192q-9 26 -18 57.5l-13 46.5l-6 21h-2q-15 -64 -35 -124l-63 -193h199zM344 908h89l-121 -105h-52zM212.5 736.5q-30.5 27.5 -32.5 71.5h52q5 -19 22 -33.5t50 -14.5q34 0 51.5 14t21.5 34h49
q-2 -43 -32.5 -71t-90.5 -28t-90.5 27.5z" />
    <glyph glyph-name="abreveacute" unicode="&#x1eaf;" horiz-adv-x="474" 
d="M35 0zM76 28q-41 38 -41 100q0 88 74 134.5t211 45.5v10q0 113 -108 113q-70 0 -123 -35l-20 58q65 41 157 41q180 0 180 -197v-183q0 -69 8 -115h-79l-8 60h-2q-49 -70 -145 -70q-63 0 -104 38zM247.5 61.5q19.5 7.5 38.5 24.5q35 32 35 76v85q-199 4 -199 -109
q0 -40 22.5 -62t58.5 -22q25 0 44.5 7.5zM268 775h80l-99 -132h-50zM150.5 565q-31.5 30 -33.5 81h50q11 -59 69 -59q33 0 51 15t20 44h50q-1 -50 -33.5 -80.5t-86.5 -30.5q-55 0 -86.5 30z" />
    <glyph glyph-name="Abrevegrave" unicode="&#x1eb0;" horiz-adv-x="600" 
d="M25 0zM249 674h104l224 -674h-92l-70 211h-233l-68 -211h-89zM398 279l-62 192q-9 26 -18 57.5l-13 46.5l-6 21h-2q-15 -64 -35 -124l-63 -193h199zM176 908h89l84 -105h-52zM212.5 736.5q-30.5 27.5 -32.5 71.5h52q5 -19 22 -33.5t50 -14.5q34 0 51.5 14t21.5 34h49
q-2 -43 -32.5 -71t-90.5 -28t-90.5 27.5z" />
    <glyph glyph-name="abrevegrave" unicode="&#x1eb1;" horiz-adv-x="474" 
d="M35 0zM76 28q-41 38 -41 100q0 88 74 134.5t211 45.5v10q0 113 -108 113q-70 0 -123 -35l-20 58q65 41 157 41q180 0 180 -197v-183q0 -69 8 -115h-79l-8 60h-2q-49 -70 -145 -70q-63 0 -104 38zM247.5 61.5q19.5 7.5 38.5 24.5q35 32 35 76v85q-199 4 -199 -109
q0 -40 22.5 -62t58.5 -22q25 0 44.5 7.5zM130 775h79l64 -132h-50zM150.5 565q-31.5 30 -33.5 81h50q11 -59 69 -59q33 0 51 15t20 44h50q-1 -50 -33.5 -80.5t-86.5 -30.5q-55 0 -86.5 30z" />
    <glyph glyph-name="Abrevehookabove" unicode="&#x1eb2;" horiz-adv-x="600" 
d="M25 0zM249 674h104l224 -674h-92l-70 211h-233l-68 -211h-89zM398 279l-62 192q-9 26 -18 57.5l-13 46.5l-6 21h-2q-15 -64 -35 -124l-63 -193h199zM275 800q7 18 29 42q11 11 16.5 19.5t5.5 20.5q0 14 -9.5 23t-23.5 9q-25 0 -48 -35l-32 19q31 63 95 63q34 0 56.5 -20
t22.5 -49q0 -20 -8.5 -33.5t-26.5 -29.5q-3 -4 -14.5 -15.5t-19.5 -25.5zM212.5 736.5q-30.5 27.5 -32.5 71.5h52q5 -19 22 -33.5t50 -14.5q34 0 51.5 14t21.5 34h49q-2 -43 -32.5 -71t-90.5 -28t-90.5 27.5z" />
    <glyph glyph-name="abrevehookabove" unicode="&#x1eb3;" horiz-adv-x="474" 
d="M35 0zM76 28q-41 38 -41 100q0 88 74 134.5t211 45.5v10q0 113 -108 113q-70 0 -123 -35l-20 58q65 41 157 41q180 0 180 -197v-183q0 -69 8 -115h-79l-8 60h-2q-49 -70 -145 -70q-63 0 -104 38zM247.5 61.5q19.5 7.5 38.5 24.5q35 32 35 76v85q-199 4 -199 -109
q0 -40 22.5 -62t58.5 -22q25 0 44.5 7.5zM203 653q7 18 29 42q11 11 16.5 19.5t5.5 20.5q0 14 -9.5 23t-23.5 9q-25 0 -48 -35l-32 19q31 63 95 63q34 0 56.5 -20t22.5 -49q0 -20 -8.5 -33.5t-26.5 -29.5q-3 -4 -14.5 -15.5t-19.5 -25.5zM150.5 565q-31.5 30 -33.5 81h50
q11 -59 69 -59q33 0 51 15t20 44h50q-1 -50 -33.5 -80.5t-86.5 -30.5q-55 0 -86.5 30z" />
    <glyph glyph-name="Abrevetilde" unicode="&#x1eb4;" horiz-adv-x="600" 
d="M25 0zM249 674h104l224 -674h-92l-70 211h-233l-68 -211h-89zM398 279l-62 192q-9 26 -18 57.5l-13 46.5l-6 21h-2q-15 -64 -35 -124l-63 -193h199zM199 908q17 27 49 27q15 0 29.5 -6t33.5 -18q12 -7 23.5 -12.5t20.5 -5.5q12 0 19.5 12t9.5 33h44q0 -49 -16 -73
t-51 -24q-17 0 -32 6.5t-35 18.5q-28 17 -41 17q-20 0 -27 -48h-44q0 46 17 73zM212.5 736.5q-30.5 27.5 -32.5 71.5h52q5 -19 22 -33.5t50 -14.5q34 0 51.5 14t21.5 34h49q-2 -43 -32.5 -71t-90.5 -28t-90.5 27.5z" />
    <glyph glyph-name="abrevetilde" unicode="&#x1eb5;" horiz-adv-x="474" 
d="M35 0zM76 28q-41 38 -41 100q0 88 74 134.5t211 45.5v10q0 113 -108 113q-70 0 -123 -35l-20 58q65 41 157 41q180 0 180 -197v-183q0 -69 8 -115h-79l-8 60h-2q-49 -70 -145 -70q-63 0 -104 38zM247.5 61.5q19.5 7.5 38.5 24.5q35 32 35 76v85q-199 4 -199 -109
q0 -40 22.5 -62t58.5 -22q25 0 44.5 7.5zM132 755q17 27 49 27q15 0 29.5 -6t33.5 -18q12 -7 23.5 -12.5t20.5 -5.5q12 0 19.5 12t9.5 33h44q0 -49 -16 -73t-51 -24q-17 0 -32 6.5t-35 18.5q-28 17 -41 17q-20 0 -27 -48h-44q0 46 17 73zM150.5 565q-31.5 30 -33.5 81h50
q11 -59 69 -59q33 0 51 15t20 44h50q-1 -50 -33.5 -80.5t-86.5 -30.5q-55 0 -86.5 30z" />
    <glyph glyph-name="Abrevedotbelow" unicode="&#x1eb6;" horiz-adv-x="600" 
d="M25 0zM249 674h104l224 -674h-92l-70 211h-233l-68 -211h-89zM398 279l-62 192q-9 26 -18 57.5l-13 46.5l-6 21h-2q-15 -64 -35 -124l-63 -193h199zM212 752q-30 29 -32 77h52q5 -22 22 -37t50 -15q64 0 73 52h49q-2 -48 -32.5 -77t-90.5 -29q-61 0 -91 29zM265 -159.5
q-15 15.5 -15 36.5q0 22 15 37t37 15q21 0 35 -15t14 -37t-14 -37t-36 -15q-21 0 -36 15.5z" />
    <glyph glyph-name="abrevedotbelow" unicode="&#x1eb7;" horiz-adv-x="474" 
d="M35 0zM76 28q-41 38 -41 100q0 88 74 134.5t211 45.5v10q0 113 -108 113q-70 0 -123 -35l-20 58q65 41 157 41q180 0 180 -197v-183q0 -69 8 -115h-79l-8 60h-2q-49 -70 -145 -70q-63 0 -104 38zM247.5 61.5q19.5 7.5 38.5 24.5q35 32 35 76v85q-199 4 -199 -109
q0 -40 22.5 -62t58.5 -22q25 0 44.5 7.5zM147.5 587.5q-31.5 32.5 -33.5 88.5h50q11 -69 69 -69q66 0 71 69h50q-1 -54 -33.5 -87.5t-86.5 -33.5q-55 0 -86.5 32.5zM176 -156.5q-14 14.5 -14 35.5t14.5 35.5t35.5 14.5q20 0 33.5 -14.5t13.5 -35.5t-13.5 -35.5t-34.5 -14.5
t-35 14.5z" />
    <glyph glyph-name="Edotbelow" unicode="&#x1eb8;" horiz-adv-x="482" 
d="M75 0zM75 674h357v-72h-271v-214h256v-72h-256v-244h286v-72h-372v674zM224 -159.5q-15 15.5 -15 36.5q0 22 15 37t37 15q21 0 35 -15t14 -37t-14 -37t-36 -15q-21 0 -36 15.5z" />
    <glyph glyph-name="edotbelow" unicode="&#x1eb9;" horiz-adv-x="492" 
d="M38 0zM100.5 56q-62.5 66 -62.5 178q0 71 26 130.5t76.5 95t120.5 35.5q91 0 143 -62.5t52 -163.5q0 -26 -3 -43h-332q2 -79 44.5 -124t118.5 -45q72 0 130 24l15 -62q-66 -29 -158 -29q-108 0 -170.5 66zM372 289v5q0 59 -29.5 98.5t-88.5 39.5q-55 0 -89 -40.5
t-43 -102.5h250zM225 -156.5q-14 14.5 -14 35.5t14.5 35.5t35.5 14.5q20 0 33.5 -14.5t13.5 -35.5t-13.5 -35.5t-34.5 -14.5t-35 14.5z" />
    <glyph glyph-name="Ehookabove" unicode="&#x1eba;" horiz-adv-x="482" 
d="M75 0zM75 674h357v-72h-271v-214h256v-72h-256v-244h286v-72h-372v674zM234 721q9 22 31 44q11 11 16.5 19.5t5.5 20.5q0 15 -9.5 24t-24.5 9q-25 0 -49 -37l-34 20q35 67 99 67q35 0 58.5 -20.5t23.5 -51.5q0 -21 -8.5 -34.5t-27.5 -32.5q-21 -20 -34 -41z" />
    <glyph glyph-name="ehookabove" unicode="&#x1ebb;" horiz-adv-x="492" 
d="M38 0zM100.5 56q-62.5 66 -62.5 178q0 71 26 130.5t76.5 95t120.5 35.5q91 0 143 -62.5t52 -163.5q0 -26 -3 -43h-332q2 -79 44.5 -124t118.5 -45q72 0 130 24l15 -62q-66 -29 -158 -29q-108 0 -170.5 66zM372 289v5q0 59 -29.5 98.5t-88.5 39.5q-55 0 -89 -40.5
t-43 -102.5h250zM234 542q4 14 12 24.5t21 23.5q14 15 20 24t6 22q0 16 -11 26t-27 10q-25 0 -48 -37l-34 20q32 67 97 67q36 0 60.5 -21t24.5 -54q0 -23 -10 -38.5t-30 -35.5q-24 -21 -36 -43z" />
    <glyph glyph-name="Etilde" unicode="&#x1ebc;" horiz-adv-x="482" 
d="M75 0zM75 674h357v-72h-271v-214h256v-72h-256v-244h286v-72h-372v674zM159 792q17 28 49 28q15 0 29.5 -6t33.5 -18q12 -7 23.5 -12.5t20.5 -5.5q12 0 19.5 12t9.5 33h44q0 -99 -67 -99q-17 0 -32 6.5t-35 18.5q-28 17 -41 17q-20 0 -27 -48h-44q0 46 17 74z" />
    <glyph glyph-name="etilde" unicode="&#x1ebd;" horiz-adv-x="492" 
d="M38 0zM100.5 56q-62.5 66 -62.5 178q0 71 26 130.5t76.5 95t120.5 35.5q91 0 143 -62.5t52 -163.5q0 -26 -3 -43h-332q2 -79 44.5 -124t118.5 -45q72 0 130 24l15 -62q-66 -29 -158 -29q-108 0 -170.5 66zM372 289v5q0 59 -29.5 98.5t-88.5 39.5q-55 0 -89 -40.5
t-43 -102.5h250zM163 640q17 29 48 29q13 0 26.5 -5.5t35.5 -17.5q32 -19 46 -19q11 0 17.5 12t8.5 33h43q0 -100 -66 -100q-21 0 -63 23q-12 7 -23.5 12t-18.5 5q-23 0 -26 -46h-45q0 45 17 74z" />
    <glyph glyph-name="Ecircumflexacute" unicode="&#x1ebe;" horiz-adv-x="482" 
d="M75 0zM75 674h357v-72h-271v-214h256v-72h-256v-244h286v-72h-372v674zM423 908h89l-121 -105h-52zM230 832h63l102 -114h-72l-61 69h-2l-60 -69h-69z" />
    <glyph glyph-name="ecircumflexacute" unicode="&#x1ebf;" horiz-adv-x="492" 
d="M38 0zM100.5 56q-62.5 66 -62.5 178q0 71 26 130.5t76.5 95t120.5 35.5q91 0 143 -62.5t52 -163.5q0 -26 -3 -43h-332q2 -79 44.5 -124t118.5 -45q72 0 130 24l15 -62q-66 -29 -158 -29q-108 0 -170.5 66zM372 289v5q0 59 -29.5 98.5t-88.5 39.5q-55 0 -89 -40.5
t-43 -102.5h250zM418 775h80l-99 -132h-50zM235 693h58l89 -143h-65l-52 94h-2l-52 -94h-63z" />
    <glyph glyph-name="Ecircumflexgrave" unicode="&#x1ec0;" horiz-adv-x="482" 
d="M75 0zM75 674h357v-72h-271v-214h256v-72h-256v-244h286v-72h-372v674zM258 908h89l84 -105h-52zM230 832h63l102 -114h-72l-61 69h-2l-60 -69h-69z" />
    <glyph glyph-name="ecircumflexgrave" unicode="&#x1ec1;" horiz-adv-x="492" 
d="M38 0zM100.5 56q-62.5 66 -62.5 178q0 71 26 130.5t76.5 95t120.5 35.5q91 0 143 -62.5t52 -163.5q0 -26 -3 -43h-332q2 -79 44.5 -124t118.5 -45q72 0 130 24l15 -62q-66 -29 -158 -29q-108 0 -170.5 66zM372 289v5q0 59 -29.5 98.5t-88.5 39.5q-55 0 -89 -40.5
t-43 -102.5h250zM287 775h79l64 -132h-50zM235 693h58l89 -143h-65l-52 94h-2l-52 -94h-63z" />
    <glyph glyph-name="Ecircumflexhookabove" unicode="&#x1ec2;" horiz-adv-x="482" 
d="M75 0zM75 674h357v-72h-271v-214h256v-72h-256v-244h286v-72h-372v674zM345 800q7 18 29 42q11 11 16.5 19.5t5.5 20.5q0 14 -9.5 23t-23.5 9q-25 0 -48 -35l-32 19q31 63 95 63q34 0 56.5 -20t22.5 -49q0 -20 -8.5 -33.5t-26.5 -29.5q-3 -4 -14.5 -15.5t-19.5 -25.5z
M230 832h63l102 -114h-72l-61 69h-2l-60 -69h-69z" />
    <glyph glyph-name="ecircumflexhookabove" unicode="&#x1ec3;" horiz-adv-x="492" 
d="M38 0zM100.5 56q-62.5 66 -62.5 178q0 71 26 130.5t76.5 95t120.5 35.5q91 0 143 -62.5t52 -163.5q0 -26 -3 -43h-332q2 -79 44.5 -124t118.5 -45q72 0 130 24l15 -62q-66 -29 -158 -29q-108 0 -170.5 66zM372 289v5q0 59 -29.5 98.5t-88.5 39.5q-55 0 -89 -40.5
t-43 -102.5h250zM352 653q7 18 29 42q11 11 16.5 19.5t5.5 20.5q0 14 -9.5 23t-23.5 9q-25 0 -48 -35l-32 19q31 63 95 63q34 0 56.5 -20t22.5 -49q0 -20 -8.5 -33.5t-26.5 -29.5q-3 -4 -14.5 -15.5t-19.5 -25.5zM235 693h58l89 -143h-65l-52 94h-2l-52 -94h-63z" />
    <glyph glyph-name="Ecircumflextilde" unicode="&#x1ec4;" horiz-adv-x="482" 
d="M75 0zM75 674h357v-72h-271v-214h256v-72h-256v-244h286v-72h-372v674zM158 908q17 27 49 27q15 0 29.5 -6t33.5 -18q12 -7 23.5 -12.5t20.5 -5.5q12 0 19.5 12t9.5 33h44q0 -49 -16 -73t-51 -24q-17 0 -32 6.5t-35 18.5q-28 17 -41 17q-20 0 -27 -48h-44q0 46 17 73z
M230 826h63l102 -108h-72l-61 69h-2l-60 -69h-69z" />
    <glyph glyph-name="ecircumflextilde" unicode="&#x1ec5;" horiz-adv-x="492" 
d="M38 0zM100.5 56q-62.5 66 -62.5 178q0 71 26 130.5t76.5 95t120.5 35.5q91 0 143 -62.5t52 -163.5q0 -26 -3 -43h-332q2 -79 44.5 -124t118.5 -45q72 0 130 24l15 -62q-66 -29 -158 -29q-108 0 -170.5 66zM372 289v5q0 59 -29.5 98.5t-88.5 39.5q-55 0 -89 -40.5
t-43 -102.5h250zM160 755q17 27 49 27q15 0 29.5 -6t33.5 -18q12 -7 23.5 -12.5t20.5 -5.5q12 0 19.5 12t9.5 33h44q0 -49 -16 -73t-51 -24q-17 0 -32 6.5t-35 18.5q-28 17 -41 17q-20 0 -27 -48h-44q0 46 17 73zM232 664h63l105 -114h-72l-64 69h-2l-63 -69h-69z" />
    <glyph glyph-name="Ecircumflexdotbelow" unicode="&#x1ec6;" horiz-adv-x="482" 
d="M75 0zM75 674h357v-72h-271v-214h256v-72h-256v-244h286v-72h-372v674zM230 832h63l105 -114h-72l-64 69h-2l-63 -69h-69zM224 -159.5q-15 15.5 -15 36.5q0 22 15 37t37 15q21 0 35 -15t14 -37t-14 -37t-36 -15q-21 0 -36 15.5z" />
    <glyph glyph-name="ecircumflexdotbelow" unicode="&#x1ec7;" horiz-adv-x="492" 
d="M38 0zM100.5 56q-62.5 66 -62.5 178q0 71 26 130.5t76.5 95t120.5 35.5q91 0 143 -62.5t52 -163.5q0 -26 -3 -43h-332q2 -79 44.5 -124t118.5 -45q72 0 130 24l15 -62q-66 -29 -158 -29q-108 0 -170.5 66zM372 289v5q0 59 -29.5 98.5t-88.5 39.5q-55 0 -89 -40.5
t-43 -102.5h250zM235 693h58l94 -143h-65l-57 94h-2l-57 -94h-63zM225 -156.5q-14 14.5 -14 35.5t14.5 35.5t35.5 14.5q20 0 33.5 -14.5t13.5 -35.5t-13.5 -35.5t-34.5 -14.5t-35 14.5z" />
    <glyph glyph-name="Ihookabove" unicode="&#x1ec8;" horiz-adv-x="236" 
d="M27 0zM75 674h86v-674h-86v674zM91 721q9 22 31 44q11 11 16.5 19.5t5.5 20.5q0 15 -9.5 24t-24.5 9q-25 0 -49 -37l-34 20q35 67 99 67q35 0 58.5 -20.5t23.5 -51.5q0 -21 -8.5 -34.5t-27.5 -32.5q-21 -20 -34 -41z" />
    <glyph glyph-name="ihookabove" unicode="&#x1ec9;" horiz-adv-x="230" 
d="M22 0zM72 485h86v-485h-86v485zM83 542q4 14 12 24.5t21 23.5q14 15 20 24t6 22q0 16 -11 26t-27 10q-25 0 -48 -37l-34 20q32 67 97 67q36 0 60.5 -21t24.5 -54q0 -23 -10 -38.5t-30 -35.5q-24 -21 -36 -43z" />
    <glyph glyph-name="Idotbelow" unicode="&#x1eca;" horiz-adv-x="236" 
d="M67 0zM75 674h86v-674h-86v674zM82 -159.5q-15 15.5 -15 36.5q0 22 15 37t37 15q21 0 35 -15t14 -37t-14 -37t-36 -15q-21 0 -36 15.5z" />
    <glyph glyph-name="idotbelow" unicode="&#x1ecb;" horiz-adv-x="230" 
d="M59 0zM74.5 584q-15.5 16 -15.5 40t16 40t40 16q25 0 40.5 -15.5t15.5 -40.5t-16 -40.5t-41 -15.5q-24 0 -39.5 16zM72 485h86v-485h-86v485zM80 -156.5q-14 14.5 -14 35.5t14.5 35.5t35.5 14.5q20 0 33.5 -14.5t13.5 -35.5t-13.5 -35.5t-34.5 -14.5t-35 14.5z" />
    <glyph glyph-name="Odotbelow" unicode="&#x1ecc;" horiz-adv-x="672" 
d="M36 0zM176 32.5q-67 43.5 -103.5 121.5t-36.5 177q0 103 38.5 183.5t107.5 125.5t159 45q87 0 154 -43t104 -121t37 -178q0 -105 -37.5 -185t-106.5 -124.5t-161 -44.5q-88 0 -155 43.5zM445 95q48 36 74 100t26 144q0 79 -26.5 142t-74 98.5t-108.5 35.5
q-62 0 -109.5 -36.5t-73.5 -100.5t-26 -145q0 -78 26 -140.5t73.5 -98t108.5 -35.5q62 0 110 36zM301 -159.5q-15 15.5 -15 36.5q0 22 15 37t37 15q21 0 35 -15t14 -37t-14 -37t-36 -15q-21 0 -36 15.5z" />
    <glyph glyph-name="odotbelow" unicode="&#x1ecd;" horiz-adv-x="538" 
d="M38 0zM145.5 21.5q-51.5 31.5 -79.5 88t-28 128.5q0 75 29 133.5t82.5 91t123.5 32.5q67 0 118.5 -31.5t80 -88.5t28.5 -129q0 -75 -29 -133t-82.5 -90.5t-123.5 -32.5q-68 0 -119.5 31.5zM343 80.5q33 25.5 51 68.5t18 94q0 82 -39.5 134.5t-103.5 52.5q-65 0 -104 -53
t-39 -136q0 -52 17.5 -94.5t50 -67t74.5 -24.5t75 25.5zM232 -156.5q-14 14.5 -14 35.5t14.5 35.5t35.5 14.5q20 0 33.5 -14.5t13.5 -35.5t-13.5 -35.5t-34.5 -14.5t-35 14.5z" />
    <glyph glyph-name="Ohookabove" unicode="&#x1ece;" horiz-adv-x="672" 
d="M36 0zM176 32.5q-67 43.5 -103.5 121.5t-36.5 177q0 103 38.5 183.5t107.5 125.5t159 45q87 0 154 -43t104 -121t37 -178q0 -105 -37.5 -185t-106.5 -124.5t-161 -44.5q-88 0 -155 43.5zM445 95q48 36 74 100t26 144q0 79 -26.5 142t-74 98.5t-108.5 35.5
q-62 0 -109.5 -36.5t-73.5 -100.5t-26 -145q0 -78 26 -140.5t73.5 -98t108.5 -35.5q62 0 110 36zM317 721q9 22 31 44q11 11 16.5 19.5t5.5 20.5q0 15 -9.5 24t-24.5 9q-25 0 -49 -37l-34 20q35 67 99 67q35 0 58.5 -20.5t23.5 -51.5q0 -21 -8.5 -34.5t-27.5 -32.5
q-21 -20 -34 -41z" />
    <glyph glyph-name="ohookabove" unicode="&#x1ecf;" horiz-adv-x="538" 
d="M38 0zM145.5 21.5q-51.5 31.5 -79.5 88t-28 128.5q0 75 29 133.5t82.5 91t123.5 32.5q67 0 118.5 -31.5t80 -88.5t28.5 -129q0 -75 -29 -133t-82.5 -90.5t-123.5 -32.5q-68 0 -119.5 31.5zM343 80.5q33 25.5 51 68.5t18 94q0 82 -39.5 134.5t-103.5 52.5q-65 0 -104 -53
t-39 -136q0 -52 17.5 -94.5t50 -67t74.5 -24.5t75 25.5zM250 542q4 14 12 24.5t21 23.5q14 15 20 24t6 22q0 16 -11 26t-27 10q-25 0 -48 -37l-34 20q32 67 97 67q36 0 60.5 -21t24.5 -54q0 -23 -10 -38.5t-30 -35.5q-24 -21 -36 -43z" />
    <glyph glyph-name="Ocircumflexacute" unicode="&#x1ed0;" horiz-adv-x="672" 
d="M36 0zM176 32.5q-67 43.5 -103.5 121.5t-36.5 177q0 103 38.5 183.5t107.5 125.5t159 45q87 0 154 -43t104 -121t37 -178q0 -105 -37.5 -185t-106.5 -124.5t-161 -44.5q-88 0 -155 43.5zM445 95q48 36 74 100t26 144q0 79 -26.5 142t-74 98.5t-108.5 35.5
q-62 0 -109.5 -36.5t-73.5 -100.5t-26 -145q0 -78 26 -140.5t73.5 -98t108.5 -35.5q62 0 110 36zM506 908h89l-121 -105h-52zM313 832h63l102 -114h-72l-61 69h-2l-60 -69h-69z" />
    <glyph glyph-name="ocircumflexacute" unicode="&#x1ed1;" horiz-adv-x="538" 
d="M38 0zM145.5 21.5q-51.5 31.5 -79.5 88t-28 128.5q0 75 29 133.5t82.5 91t123.5 32.5q67 0 118.5 -31.5t80 -88.5t28.5 -129q0 -75 -29 -133t-82.5 -90.5t-123.5 -32.5q-68 0 -119.5 31.5zM343 80.5q33 25.5 51 68.5t18 94q0 82 -39.5 134.5t-103.5 52.5q-65 0 -104 -53
t-39 -136q0 -52 17.5 -94.5t50 -67t74.5 -24.5t75 25.5zM429 775h80l-99 -132h-50zM246 693h58l89 -143h-65l-52 94h-2l-52 -94h-63z" />
    <glyph glyph-name="Ocircumflexgrave" unicode="&#x1ed2;" horiz-adv-x="672" 
d="M36 0zM176 32.5q-67 43.5 -103.5 121.5t-36.5 177q0 103 38.5 183.5t107.5 125.5t159 45q87 0 154 -43t104 -121t37 -178q0 -105 -37.5 -185t-106.5 -124.5t-161 -44.5q-88 0 -155 43.5zM445 95q48 36 74 100t26 144q0 79 -26.5 142t-74 98.5t-108.5 35.5
q-62 0 -109.5 -36.5t-73.5 -100.5t-26 -145q0 -78 26 -140.5t73.5 -98t108.5 -35.5q62 0 110 36zM341 908h89l84 -105h-52zM313 832h63l102 -114h-72l-61 69h-2l-60 -69h-69z" />
    <glyph glyph-name="ocircumflexgrave" unicode="&#x1ed3;" horiz-adv-x="538" 
d="M38 0zM145.5 21.5q-51.5 31.5 -79.5 88t-28 128.5q0 75 29 133.5t82.5 91t123.5 32.5q67 0 118.5 -31.5t80 -88.5t28.5 -129q0 -75 -29 -133t-82.5 -90.5t-123.5 -32.5q-68 0 -119.5 31.5zM343 80.5q33 25.5 51 68.5t18 94q0 82 -39.5 134.5t-103.5 52.5q-65 0 -104 -53
t-39 -136q0 -52 17.5 -94.5t50 -67t74.5 -24.5t75 25.5zM298 775h79l64 -132h-50zM246 693h58l89 -143h-65l-52 94h-2l-52 -94h-63z" />
    <glyph glyph-name="Ocircumflexhookabove" unicode="&#x1ed4;" horiz-adv-x="672" 
d="M36 0zM176 32.5q-67 43.5 -103.5 121.5t-36.5 177q0 103 38.5 183.5t107.5 125.5t159 45q87 0 154 -43t104 -121t37 -178q0 -105 -37.5 -185t-106.5 -124.5t-161 -44.5q-88 0 -155 43.5zM445 95q48 36 74 100t26 144q0 79 -26.5 142t-74 98.5t-108.5 35.5
q-62 0 -109.5 -36.5t-73.5 -100.5t-26 -145q0 -78 26 -140.5t73.5 -98t108.5 -35.5q62 0 110 36zM428 800q7 18 29 42q11 11 16.5 19.5t5.5 20.5q0 14 -9.5 23t-23.5 9q-25 0 -48 -35l-32 19q31 63 95 63q34 0 56.5 -20t22.5 -49q0 -20 -8.5 -33.5t-26.5 -29.5
q-3 -4 -14.5 -15.5t-19.5 -25.5zM313 832h63l102 -114h-72l-61 69h-2l-60 -69h-69z" />
    <glyph glyph-name="ocircumflexhookabove" unicode="&#x1ed5;" horiz-adv-x="538" 
d="M38 0zM145.5 21.5q-51.5 31.5 -79.5 88t-28 128.5q0 75 29 133.5t82.5 91t123.5 32.5q67 0 118.5 -31.5t80 -88.5t28.5 -129q0 -75 -29 -133t-82.5 -90.5t-123.5 -32.5q-68 0 -119.5 31.5zM343 80.5q33 25.5 51 68.5t18 94q0 82 -39.5 134.5t-103.5 52.5q-65 0 -104 -53
t-39 -136q0 -52 17.5 -94.5t50 -67t74.5 -24.5t75 25.5zM363 653q7 18 29 42q11 11 16.5 19.5t5.5 20.5q0 14 -9.5 23t-23.5 9q-25 0 -48 -35l-32 19q31 63 95 63q34 0 56.5 -20t22.5 -49q0 -20 -8.5 -33.5t-26.5 -29.5q-3 -4 -14.5 -15.5t-19.5 -25.5zM246 693h58l89 -143
h-65l-52 94h-2l-52 -94h-63z" />
    <glyph glyph-name="Ocircumflextilde" unicode="&#x1ed6;" horiz-adv-x="672" 
d="M36 0zM176 32.5q-67 43.5 -103.5 121.5t-36.5 177q0 103 38.5 183.5t107.5 125.5t159 45q87 0 154 -43t104 -121t37 -178q0 -105 -37.5 -185t-106.5 -124.5t-161 -44.5q-88 0 -155 43.5zM445 95q48 36 74 100t26 144q0 79 -26.5 142t-74 98.5t-108.5 35.5
q-62 0 -109.5 -36.5t-73.5 -100.5t-26 -145q0 -78 26 -140.5t73.5 -98t108.5 -35.5q62 0 110 36zM241 908q17 27 49 27q15 0 29.5 -6t33.5 -18q12 -7 23.5 -12.5t20.5 -5.5q12 0 19.5 12t9.5 33h44q0 -49 -16 -73t-51 -24q-17 0 -32 6.5t-35 18.5q-28 17 -41 17
q-20 0 -27 -48h-44q0 46 17 73zM313 826h63l102 -108h-72l-61 69h-2l-60 -69h-69z" />
    <glyph glyph-name="ocircumflextilde" unicode="&#x1ed7;" horiz-adv-x="538" 
d="M38 0zM145.5 21.5q-51.5 31.5 -79.5 88t-28 128.5q0 75 29 133.5t82.5 91t123.5 32.5q67 0 118.5 -31.5t80 -88.5t28.5 -129q0 -75 -29 -133t-82.5 -90.5t-123.5 -32.5q-68 0 -119.5 31.5zM343 80.5q33 25.5 51 68.5t18 94q0 82 -39.5 134.5t-103.5 52.5q-65 0 -104 -53
t-39 -136q0 -52 17.5 -94.5t50 -67t74.5 -24.5t75 25.5zM171 755q17 27 49 27q15 0 29.5 -6t33.5 -18q12 -7 23.5 -12.5t20.5 -5.5q12 0 19.5 12t9.5 33h44q0 -49 -16 -73t-51 -24q-17 0 -32 6.5t-35 18.5q-28 17 -41 17q-20 0 -27 -48h-44q0 46 17 73zM243 664h63l105 -114
h-72l-64 69h-2l-63 -69h-69z" />
    <glyph glyph-name="Ocircumflexdotbelow" unicode="&#x1ed8;" horiz-adv-x="672" 
d="M36 0zM176 32.5q-67 43.5 -103.5 121.5t-36.5 177q0 103 38.5 183.5t107.5 125.5t159 45q87 0 154 -43t104 -121t37 -178q0 -105 -37.5 -185t-106.5 -124.5t-161 -44.5q-88 0 -155 43.5zM445 95q48 36 74 100t26 144q0 79 -26.5 142t-74 98.5t-108.5 35.5
q-62 0 -109.5 -36.5t-73.5 -100.5t-26 -145q0 -78 26 -140.5t73.5 -98t108.5 -35.5q62 0 110 36zM313 832h63l105 -114h-72l-64 69h-2l-63 -69h-69zM304 -159.5q-15 15.5 -15 36.5q0 22 15 37t37 15q21 0 35 -15t14 -37t-14 -37t-36 -15q-21 0 -36 15.5z" />
    <glyph glyph-name="ocircumflexdotbelow" unicode="&#x1ed9;" horiz-adv-x="538" 
d="M38 0zM145.5 21.5q-51.5 31.5 -79.5 88t-28 128.5q0 75 29 133.5t82.5 91t123.5 32.5q67 0 118.5 -31.5t80 -88.5t28.5 -129q0 -75 -29 -133t-82.5 -90.5t-123.5 -32.5q-68 0 -119.5 31.5zM343 80.5q33 25.5 51 68.5t18 94q0 82 -39.5 134.5t-103.5 52.5q-65 0 -104 -53
t-39 -136q0 -52 17.5 -94.5t50 -67t74.5 -24.5t75 25.5zM246 693h58l94 -143h-65l-57 94h-2l-57 -94h-63zM232 -156.5q-14 14.5 -14 35.5t14.5 35.5t35.5 14.5q20 0 33.5 -14.5t13.5 -35.5t-13.5 -35.5t-34.5 -14.5t-35 14.5z" />
    <glyph glyph-name="Ohornacute" unicode="&#x1eda;" horiz-adv-x="672" 
d="M36 0zM176 32.5q-67 43.5 -103.5 121.5t-36.5 177q0 103 38.5 183.5t107.5 125.5t159 45q53 0 101 -17q16 -6 28 -12q28 -12 45.5 -18t32.5 -6q24 0 34.5 11t10.5 33q0 30 -16 64l67 13q18 -38 18 -82q0 -39 -21.5 -64t-59.5 -25q-15 0 -21 2l-2 -2q37 -43 57.5 -105.5
t20.5 -133.5q0 -105 -37.5 -185t-106.5 -124.5t-161 -44.5q-88 0 -155 43.5zM445 95q48 36 74 100t26 144q0 79 -26.5 142t-74 98.5t-108.5 35.5q-62 0 -109.5 -36.5t-73.5 -100.5t-26 -145q0 -78 26 -140.5t73.5 -98t108.5 -35.5q62 0 110 36zM386 835h103l-129 -117h-68z
" />
    <glyph glyph-name="ohornacute" unicode="&#x1edb;" horiz-adv-x="538" 
d="M38 0zM145.5 21.5q-51.5 31.5 -79.5 88t-28 128.5q0 75 29 133.5t82.5 91t123.5 32.5q39 0 78 -13q6 -2 11.5 -4.5t10.5 -4.5q3 -1 23.5 -9.5t39.5 -8.5q40 0 40 40q0 29 -16 59l66 12q17 -32 17 -73t-23.5 -64.5t-66.5 -22.5l-1 -2q48 -63 48 -158q0 -75 -29 -133
t-82.5 -90.5t-123.5 -32.5q-68 0 -119.5 31.5zM343 80.5q33 25.5 51 68.5t18 94q0 82 -39.5 134.5t-103.5 52.5q-65 0 -104 -53t-39 -136q0 -52 17.5 -94.5t50 -67t74.5 -24.5t75 25.5zM306 693h95l-121 -143h-61z" />
    <glyph glyph-name="Ohorngrave" unicode="&#x1edc;" horiz-adv-x="672" 
d="M36 0zM176 32.5q-67 43.5 -103.5 121.5t-36.5 177q0 103 38.5 183.5t107.5 125.5t159 45q53 0 101 -17q16 -6 28 -12q28 -12 45.5 -18t32.5 -6q24 0 34.5 11t10.5 33q0 30 -16 64l67 13q18 -38 18 -82q0 -39 -21.5 -64t-59.5 -25q-15 0 -21 2l-2 -2q37 -43 57.5 -105.5
t20.5 -133.5q0 -105 -37.5 -185t-106.5 -124.5t-161 -44.5q-88 0 -155 43.5zM445 95q48 36 74 100t26 144q0 79 -26.5 142t-74 98.5t-108.5 35.5q-62 0 -109.5 -36.5t-73.5 -100.5t-26 -145q0 -78 26 -140.5t73.5 -98t108.5 -35.5q62 0 110 36zM204 835h104l92 -117h-70z
" />
    <glyph glyph-name="ohorngrave" unicode="&#x1edd;" horiz-adv-x="538" 
d="M38 0zM145.5 21.5q-51.5 31.5 -79.5 88t-28 128.5q0 75 29 133.5t82.5 91t123.5 32.5q39 0 78 -13q6 -2 11.5 -4.5t10.5 -4.5q3 -1 23.5 -9.5t39.5 -8.5q40 0 40 40q0 29 -16 59l66 12q17 -32 17 -73t-23.5 -64.5t-66.5 -22.5l-1 -2q48 -63 48 -158q0 -75 -29 -133
t-82.5 -90.5t-123.5 -32.5q-68 0 -119.5 31.5zM343 80.5q33 25.5 51 68.5t18 94q0 82 -39.5 134.5t-103.5 52.5q-65 0 -104 -53t-39 -136q0 -52 17.5 -94.5t50 -67t74.5 -24.5t75 25.5zM156 693h96l87 -143h-62z" />
    <glyph glyph-name="Ohornhookabove" unicode="&#x1ede;" horiz-adv-x="672" 
d="M36 0zM176 32.5q-67 43.5 -103.5 121.5t-36.5 177q0 103 38.5 183.5t107.5 125.5t159 45q53 0 101 -17q16 -6 28 -12q28 -12 45.5 -18t32.5 -6q24 0 34.5 11t10.5 33q0 30 -16 64l67 13q18 -38 18 -82q0 -39 -21.5 -64t-59.5 -25q-15 0 -21 2l-2 -2q37 -43 57.5 -105.5
t20.5 -133.5q0 -105 -37.5 -185t-106.5 -124.5t-161 -44.5q-88 0 -155 43.5zM445 95q48 36 74 100t26 144q0 79 -26.5 142t-74 98.5t-108.5 35.5q-62 0 -109.5 -36.5t-73.5 -100.5t-26 -145q0 -78 26 -140.5t73.5 -98t108.5 -35.5q62 0 110 36zM317 721q9 22 31 44
q11 11 16.5 19.5t5.5 20.5q0 15 -9.5 24t-24.5 9q-25 0 -49 -37l-34 20q35 67 99 67q35 0 58.5 -20.5t23.5 -51.5q0 -21 -8.5 -34.5t-27.5 -32.5q-21 -20 -34 -41z" />
    <glyph glyph-name="ohornhookabove" unicode="&#x1edf;" horiz-adv-x="538" 
d="M38 0zM145.5 21.5q-51.5 31.5 -79.5 88t-28 128.5q0 75 29 133.5t82.5 91t123.5 32.5q39 0 78 -13q6 -2 11.5 -4.5t10.5 -4.5q3 -1 23.5 -9.5t39.5 -8.5q40 0 40 40q0 29 -16 59l66 12q17 -32 17 -73t-23.5 -64.5t-66.5 -22.5l-1 -2q48 -63 48 -158q0 -75 -29 -133
t-82.5 -90.5t-123.5 -32.5q-68 0 -119.5 31.5zM343 80.5q33 25.5 51 68.5t18 94q0 82 -39.5 134.5t-103.5 52.5q-65 0 -104 -53t-39 -136q0 -52 17.5 -94.5t50 -67t74.5 -24.5t75 25.5zM250 542q4 14 12 24.5t21 23.5q14 15 20 24t6 22q0 16 -11 26t-27 10q-25 0 -48 -37
l-34 20q32 67 97 67q36 0 60.5 -21t24.5 -54q0 -23 -10 -38.5t-30 -35.5q-24 -21 -36 -43z" />
    <glyph glyph-name="Ohorntilde" unicode="&#x1ee0;" horiz-adv-x="672" 
d="M36 0zM176 32.5q-67 43.5 -103.5 121.5t-36.5 177q0 103 38.5 183.5t107.5 125.5t159 45q53 0 101 -17q16 -6 28 -12q28 -12 45.5 -18t32.5 -6q24 0 34.5 11t10.5 33q0 30 -16 64l67 13q18 -38 18 -82q0 -39 -21.5 -64t-59.5 -25q-15 0 -21 2l-2 -2q37 -43 57.5 -105.5
t20.5 -133.5q0 -105 -37.5 -185t-106.5 -124.5t-161 -44.5q-88 0 -155 43.5zM445 95q48 36 74 100t26 144q0 79 -26.5 142t-74 98.5t-108.5 35.5q-62 0 -109.5 -36.5t-73.5 -100.5t-26 -145q0 -78 26 -140.5t73.5 -98t108.5 -35.5q62 0 110 36zM240 792q17 28 49 28
q15 0 29.5 -6t33.5 -18q12 -7 23.5 -12.5t20.5 -5.5q12 0 19.5 12t9.5 33h44q0 -99 -67 -99q-17 0 -32 6.5t-35 18.5q-28 17 -41 17q-20 0 -27 -48h-44q0 46 17 74z" />
    <glyph glyph-name="ohorntilde" unicode="&#x1ee1;" horiz-adv-x="538" 
d="M38 0zM145.5 21.5q-51.5 31.5 -79.5 88t-28 128.5q0 75 29 133.5t82.5 91t123.5 32.5q39 0 78 -13q6 -2 11.5 -4.5t10.5 -4.5q3 -1 23.5 -9.5t39.5 -8.5q40 0 40 40q0 29 -16 59l66 12q17 -32 17 -73t-23.5 -64.5t-66.5 -22.5l-1 -2q48 -63 48 -158q0 -75 -29 -133
t-82.5 -90.5t-123.5 -32.5q-68 0 -119.5 31.5zM343 80.5q33 25.5 51 68.5t18 94q0 82 -39.5 134.5t-103.5 52.5q-65 0 -104 -53t-39 -136q0 -52 17.5 -94.5t50 -67t74.5 -24.5t75 25.5zM172 640q17 29 48 29q13 0 26.5 -5.5t35.5 -17.5q32 -19 46 -19q11 0 17.5 12t8.5 33
h43q0 -100 -66 -100q-21 0 -63 23q-12 7 -23.5 12t-18.5 5q-23 0 -26 -46h-45q0 45 17 74z" />
    <glyph glyph-name="Ohorndotbelow" unicode="&#x1ee2;" horiz-adv-x="672" 
d="M36 0zM176 32.5q-67 43.5 -103.5 121.5t-36.5 177q0 103 38.5 183.5t107.5 125.5t159 45q53 0 101 -17q16 -6 28 -12q28 -12 45.5 -18t32.5 -6q24 0 34.5 11t10.5 33q0 30 -16 64l67 13q18 -38 18 -82q0 -39 -21.5 -64t-59.5 -25q-15 0 -21 2l-2 -2q37 -43 57.5 -105.5
t20.5 -133.5q0 -105 -37.5 -185t-106.5 -124.5t-161 -44.5q-88 0 -155 43.5zM445 95q48 36 74 100t26 144q0 79 -26.5 142t-74 98.5t-108.5 35.5q-62 0 -109.5 -36.5t-73.5 -100.5t-26 -145q0 -78 26 -140.5t73.5 -98t108.5 -35.5q62 0 110 36zM301 -159.5
q-15 15.5 -15 36.5q0 22 15 37t37 15q21 0 35 -15t14 -37t-14 -37t-36 -15q-21 0 -36 15.5z" />
    <glyph glyph-name="ohorndotbelow" unicode="&#x1ee3;" horiz-adv-x="538" 
d="M38 0zM145.5 21.5q-51.5 31.5 -79.5 88t-28 128.5q0 75 29 133.5t82.5 91t123.5 32.5q39 0 78 -13q6 -2 11.5 -4.5t10.5 -4.5q3 -1 23.5 -9.5t39.5 -8.5q40 0 40 40q0 29 -16 59l66 12q17 -32 17 -73t-23.5 -64.5t-66.5 -22.5l-1 -2q48 -63 48 -158q0 -75 -29 -133
t-82.5 -90.5t-123.5 -32.5q-68 0 -119.5 31.5zM343 80.5q33 25.5 51 68.5t18 94q0 82 -39.5 134.5t-103.5 52.5q-65 0 -104 -53t-39 -136q0 -52 17.5 -94.5t50 -67t74.5 -24.5t75 25.5zM232 -156.5q-14 14.5 -14 35.5t14.5 35.5t35.5 14.5q20 0 33.5 -14.5t13.5 -35.5
t-13.5 -35.5t-34.5 -14.5t-35 14.5z" />
    <glyph glyph-name="Udotbelow" unicode="&#x1ee4;" horiz-adv-x="635" 
d="M75 0zM135 62q-60 73 -60 212v400h86v-403q0 -100 40 -156t113 -56q79 0 119.5 54.5t40.5 157.5v403h86v-396q0 -139 -65 -214t-184 -75q-116 0 -176 73zM282 -159.5q-15 15.5 -15 36.5q0 22 15 37t37 15q21 0 35 -15t14 -37t-14 -37t-36 -15q-21 0 -36 15.5z" />
    <glyph glyph-name="udotbelow" unicode="&#x1ee5;" horiz-adv-x="540" 
d="M69 0zM112.5 43q-43.5 53 -43.5 156v286h86v-270q0 -154 106 -154q37 0 68.5 22.5t44.5 57.5q8 21 8 45v299h86v-353q0 -72 4 -132h-76l-5 77h-2q-51 -87 -157 -87q-76 0 -119.5 53zM225 -156.5q-14 14.5 -14 35.5t14.5 35.5t35.5 14.5q20 0 33.5 -14.5t13.5 -35.5
t-13.5 -35.5t-34.5 -14.5t-35 14.5z" />
    <glyph glyph-name="Uhookabove" unicode="&#x1ee6;" horiz-adv-x="635" 
d="M75 0zM135 62q-60 73 -60 212v400h86v-403q0 -100 40 -156t113 -56q79 0 119.5 54.5t40.5 157.5v403h86v-396q0 -139 -65 -214t-184 -75q-116 0 -176 73zM289 721q9 22 31 44q11 11 16.5 19.5t5.5 20.5q0 15 -9.5 24t-24.5 9q-25 0 -49 -37l-34 20q35 67 99 67
q35 0 58.5 -20.5t23.5 -51.5q0 -21 -8.5 -34.5t-27.5 -32.5q-21 -20 -34 -41z" />
    <glyph glyph-name="uhookabove" unicode="&#x1ee7;" horiz-adv-x="540" 
d="M69 0zM112.5 43q-43.5 53 -43.5 156v286h86v-270q0 -154 106 -154q37 0 68.5 22.5t44.5 57.5q8 21 8 45v299h86v-353q0 -72 4 -132h-76l-5 77h-2q-51 -87 -157 -87q-76 0 -119.5 53zM237 542q4 14 12 24.5t21 23.5q14 15 20 24t6 22q0 16 -11 26t-27 10q-25 0 -48 -37
l-34 20q32 67 97 67q36 0 60.5 -21t24.5 -54q0 -23 -10 -38.5t-30 -35.5q-24 -21 -36 -43z" />
    <glyph glyph-name="Uhornacute" unicode="&#x1ee8;" horiz-adv-x="650" 
d="M75 0zM135 62q-60 73 -60 212v400h86v-403q0 -100 40 -156t113 -56q79 0 119.5 54.5t40.5 157.5v403h78q26 0 36 8.5t10 29.5q0 30 -16 58l66 12q17 -36 17 -75q0 -86 -105 -86v-343q0 -139 -65 -214t-184 -75q-116 0 -176 73zM366 835h103l-129 -117h-68z" />
    <glyph glyph-name="uhornacute" unicode="&#x1ee9;" horiz-adv-x="540" 
d="M69 0zM112.5 43q-43.5 53 -43.5 156v286h86v-270q0 -154 106 -154q37 0 68.5 22.5t44.5 57.5q8 21 8 45v299h68q25 0 36 9.5t11 29.5q0 29 -17 58l66 11q18 -33 18 -72q0 -40 -26.5 -62.5t-67.5 -22.5h-2v-304q0 -72 4 -132h-76l-5 77h-2q-51 -87 -157 -87
q-76 0 -119.5 53zM316 693h95l-121 -143h-61z" />
    <glyph glyph-name="Uhorngrave" unicode="&#x1eea;" horiz-adv-x="650" 
d="M75 0zM135 62q-60 73 -60 212v400h86v-403q0 -100 40 -156t113 -56q79 0 119.5 54.5t40.5 157.5v403h78q26 0 36 8.5t10 29.5q0 30 -16 58l66 12q17 -36 17 -75q0 -86 -105 -86v-343q0 -139 -65 -214t-184 -75q-116 0 -176 73zM181 835h104l92 -117h-70z" />
    <glyph glyph-name="uhorngrave" unicode="&#x1eeb;" horiz-adv-x="540" 
d="M69 0zM112.5 43q-43.5 53 -43.5 156v286h86v-270q0 -154 106 -154q37 0 68.5 22.5t44.5 57.5q8 21 8 45v299h68q25 0 36 9.5t11 29.5q0 29 -17 58l66 11q18 -33 18 -72q0 -40 -26.5 -62.5t-67.5 -22.5h-2v-304q0 -72 4 -132h-76l-5 77h-2q-51 -87 -157 -87
q-76 0 -119.5 53zM145 693h96l87 -143h-62z" />
    <glyph glyph-name="Uhornhookabove" unicode="&#x1eec;" horiz-adv-x="650" 
d="M75 0zM135 62q-60 73 -60 212v400h86v-403q0 -100 40 -156t113 -56q79 0 119.5 54.5t40.5 157.5v403h78q26 0 36 8.5t10 29.5q0 30 -16 58l66 12q17 -36 17 -75q0 -86 -105 -86v-343q0 -139 -65 -214t-184 -75q-116 0 -176 73zM289 721q9 22 31 44q11 11 16.5 19.5
t5.5 20.5q0 15 -9.5 24t-24.5 9q-25 0 -49 -37l-34 20q35 67 99 67q35 0 58.5 -20.5t23.5 -51.5q0 -21 -8.5 -34.5t-27.5 -32.5q-21 -20 -34 -41z" />
    <glyph glyph-name="uhornhookabove" unicode="&#x1eed;" horiz-adv-x="540" 
d="M69 0zM112.5 43q-43.5 53 -43.5 156v286h86v-270q0 -154 106 -154q37 0 68.5 22.5t44.5 57.5q8 21 8 45v299h68q25 0 36 9.5t11 29.5q0 29 -17 58l66 11q18 -33 18 -72q0 -40 -26.5 -62.5t-67.5 -22.5h-2v-304q0 -72 4 -132h-76l-5 77h-2q-51 -87 -157 -87
q-76 0 -119.5 53zM237 542q4 14 12 24.5t21 23.5q14 15 20 24t6 22q0 16 -11 26t-27 10q-25 0 -48 -37l-34 20q32 67 97 67q36 0 60.5 -21t24.5 -54q0 -23 -10 -38.5t-30 -35.5q-24 -21 -36 -43z" />
    <glyph glyph-name="Uhorntilde" unicode="&#x1eee;" horiz-adv-x="650" 
d="M75 0zM135 62q-60 73 -60 212v400h86v-403q0 -100 40 -156t113 -56q79 0 119.5 54.5t40.5 157.5v403h78q26 0 36 8.5t10 29.5q0 30 -16 58l66 12q17 -36 17 -75q0 -86 -105 -86v-343q0 -139 -65 -214t-184 -75q-116 0 -176 73zM217 792q17 28 49 28q15 0 29.5 -6
t33.5 -18q12 -7 23.5 -12.5t20.5 -5.5q12 0 19.5 12t9.5 33h44q0 -99 -67 -99q-17 0 -32 6.5t-35 18.5q-28 17 -41 17q-20 0 -27 -48h-44q0 46 17 74z" />
    <glyph glyph-name="uhorntilde" unicode="&#x1eef;" horiz-adv-x="540" 
d="M69 0zM112.5 43q-43.5 53 -43.5 156v286h86v-270q0 -154 106 -154q37 0 68.5 22.5t44.5 57.5q8 21 8 45v299h68q25 0 36 9.5t11 29.5q0 29 -17 58l66 11q18 -33 18 -72q0 -40 -26.5 -62.5t-67.5 -22.5h-2v-304q0 -72 4 -132h-76l-5 77h-2q-51 -87 -157 -87
q-76 0 -119.5 53zM175 640q17 29 48 29q13 0 26.5 -5.5t35.5 -17.5q32 -19 46 -19q11 0 17.5 12t8.5 33h43q0 -100 -66 -100q-21 0 -63 23q-12 7 -23.5 12t-18.5 5q-23 0 -26 -46h-45q0 45 17 74z" />
    <glyph glyph-name="Uhorndotbelow" unicode="&#x1ef0;" horiz-adv-x="650" 
d="M75 0zM135 62q-60 73 -60 212v400h86v-403q0 -100 40 -156t113 -56q79 0 119.5 54.5t40.5 157.5v403h78q26 0 36 8.5t10 29.5q0 30 -16 58l66 12q17 -36 17 -75q0 -86 -105 -86v-343q0 -139 -65 -214t-184 -75q-116 0 -176 73zM282 -159.5q-15 15.5 -15 36.5q0 22 15 37
t37 15q21 0 35 -15t14 -37t-14 -37t-36 -15q-21 0 -36 15.5z" />
    <glyph glyph-name="uhorndotbelow" unicode="&#x1ef1;" horiz-adv-x="540" 
d="M69 0zM112.5 43q-43.5 53 -43.5 156v286h86v-270q0 -154 106 -154q37 0 68.5 22.5t44.5 57.5q8 21 8 45v299h68q25 0 36 9.5t11 29.5q0 29 -17 58l66 11q18 -33 18 -72q0 -40 -26.5 -62.5t-67.5 -22.5h-2v-304q0 -72 4 -132h-76l-5 77h-2q-51 -87 -157 -87
q-76 0 -119.5 53zM225 -156.5q-14 14.5 -14 35.5t14.5 35.5t35.5 14.5q20 0 33.5 -14.5t13.5 -35.5t-13.5 -35.5t-34.5 -14.5t-35 14.5z" />
    <glyph glyph-name="Ygrave" unicode="&#x1ef2;" horiz-adv-x="531" 
d="M13 0zM223 286l-210 388h98l92 -185q40 -81 66 -140h2q25 59 67 141l94 184h98l-221 -387v-287h-86v286zM126 835h104l92 -117h-70z" />
    <glyph glyph-name="ygrave" unicode="&#x1ef3;" horiz-adv-x="461" 
d="M9 0zM34 -147q96 32 148 142q6 14 6 21t-5 22l-174 447h94l103 -287q16 -43 30 -98h3q18 65 30 100l93 285h92l-128 -344q-44 -117 -78.5 -186.5t-84.5 -116.5q-23 -22 -51 -37t-55 -21zM101 693h96l87 -143h-62z" />
    <glyph glyph-name="Ydotbelow" unicode="&#x1ef4;" horiz-adv-x="531" 
d="M13 0zM223 286l-210 388h98l92 -185q40 -81 66 -140h2q25 59 67 141l94 184h98l-221 -387v-287h-86v286zM230 -159.5q-15 15.5 -15 36.5q0 22 15 37t37 15q21 0 35 -15t14 -37t-14 -37t-36 -15q-21 0 -36 15.5z" />
    <glyph glyph-name="ydotbelow" unicode="&#x1ef5;" horiz-adv-x="461" 
d="M9 0zM34 -147q96 32 148 142q6 14 6 21t-5 22l-174 447h94l103 -287q16 -43 30 -98h3q18 65 30 100l93 285h92l-128 -344q-44 -117 -78.5 -186.5t-84.5 -116.5q-23 -22 -51 -37t-55 -21zM330 -156.5q-14 14.5 -14 35.5t14.5 35.5t35.5 14.5q20 0 33.5 -14.5t13.5 -35.5
t-13.5 -35.5t-34.5 -14.5t-35 14.5z" />
    <glyph glyph-name="Yhookabove" unicode="&#x1ef6;" horiz-adv-x="531" 
d="M13 0zM223 286l-210 388h98l92 -185q40 -81 66 -140h2q25 59 67 141l94 184h98l-221 -387v-287h-86v286zM249 721q9 22 31 44q11 11 16.5 19.5t5.5 20.5q0 15 -9.5 24t-24.5 9q-25 0 -49 -37l-34 20q35 67 99 67q35 0 58.5 -20.5t23.5 -51.5q0 -21 -8.5 -34.5
t-27.5 -32.5q-21 -20 -34 -41z" />
    <glyph glyph-name="yhookabove" unicode="&#x1ef7;" horiz-adv-x="461" 
d="M9 0zM34 -147q96 32 148 142q6 14 6 21t-5 22l-174 447h94l103 -287q16 -43 30 -98h3q18 65 30 100l93 285h92l-128 -344q-44 -117 -78.5 -186.5t-84.5 -116.5q-23 -22 -51 -37t-55 -21zM203 542q4 14 12 24.5t21 23.5q14 15 20 24t6 22q0 16 -11 26t-27 10
q-25 0 -48 -37l-34 20q32 67 97 67q36 0 60.5 -21t24.5 -54q0 -23 -10 -38.5t-30 -35.5q-24 -21 -36 -43z" />
    <glyph glyph-name="Ytilde" unicode="&#x1ef8;" horiz-adv-x="531" 
d="M13 0zM223 286l-210 388h98l92 -185q40 -81 66 -140h2q25 59 67 141l94 184h98l-221 -387v-287h-86v286zM170 792q17 28 49 28q15 0 29.5 -6t33.5 -18q12 -7 23.5 -12.5t20.5 -5.5q12 0 19.5 12t9.5 33h44q0 -99 -67 -99q-17 0 -32 6.5t-35 18.5q-28 17 -41 17
q-20 0 -27 -48h-44q0 46 17 74z" />
    <glyph glyph-name="ytilde" unicode="&#x1ef9;" horiz-adv-x="461" 
d="M9 0zM34 -147q96 32 148 142q6 14 6 21t-5 22l-174 447h94l103 -287q16 -43 30 -98h3q18 65 30 100l93 285h92l-128 -344q-44 -117 -78.5 -186.5t-84.5 -116.5q-23 -22 -51 -37t-55 -21zM133 640q17 29 48 29q13 0 26.5 -5.5t35.5 -17.5q32 -19 46 -19q11 0 17.5 12
t8.5 33h43q0 -100 -66 -100q-21 0 -63 23q-12 7 -23.5 12t-18.5 5q-23 0 -26 -46h-45q0 45 17 74z" />
    <glyph glyph-name="LLmiddleWelsh" unicode="&#x1efa;" horiz-adv-x="763" 
d="M75 674h86v-602h214v602h86v-602h282v-72h-668v674z" />
    <glyph glyph-name="llmiddleWelsh" unicode="&#x1efb;" horiz-adv-x="460" 
d="M72 578h-75v56h75v75h86v-75h144v75h86v-75h75v-56h-75v-578h-86v578h-144v-578h-86v578z" />
    <glyph glyph-name="Ereversed" unicode="&#x18e;" horiz-adv-x="482" 
d="M35 72h286v244h-256v72h256v214h-271v72h357v-674h-372v72z" />
    <glyph glyph-name="Fhook" unicode="&#x191;" horiz-adv-x="477" 
d="M-51 -140q64 4 93 37q33 37 33 179v598h356v-72h-270v-225h249v-72h-249v-261q0 -140 -57 -197q-52 -54 -146 -55z" />
    <glyph glyph-name="florin" unicode="&#x192;" horiz-adv-x="505" 
d="M13 -66l15 63q28 -11 55 -11q43 0 65 35.5t32 119.5l22 198h-90v63h98l6 46q14 108 59.5 160.5t126.5 52.5q44 0 70 -15l-16 -63q-24 10 -52 10q-88 0 -104 -139l-6 -52h118v-63h-126l-25 -207q-14 -115 -55 -165t-117 -50q-47 0 -76 17z" />
    <glyph glyph-name="Nhookleft" unicode="&#x19d;" horiz-adv-x="645" 
d="M-53 -140q66 5 95 37q33 37 33 179v598h94l208 -339q72 -117 119 -220h2q-9 95 -9 279v280h81v-674h-87l-207 340q-82 134 -124 226l-2 -1q6 -106 6 -280v-241q0 -141 -56 -197q-52 -54 -144 -55z" />
    <glyph glyph-name="Ohorn" unicode="&#x1a0;" horiz-adv-x="672" 
d="M176 32.5q-67 43.5 -103.5 121.5t-36.5 177q0 103 38.5 183.5t107.5 125.5t159 45q53 0 101 -17q16 -6 28 -12q28 -12 45.5 -18t32.5 -6q24 0 34.5 11t10.5 33q0 30 -16 64l67 13q18 -38 18 -82q0 -39 -21.5 -64t-59.5 -25q-15 0 -21 2l-2 -2q37 -43 57.5 -105.5
t20.5 -133.5q0 -105 -37.5 -185t-106.5 -124.5t-161 -44.5q-88 0 -155 43.5zM445 95q48 36 74 100t26 144q0 79 -26.5 142t-74 98.5t-108.5 35.5q-62 0 -109.5 -36.5t-73.5 -100.5t-26 -145q0 -78 26 -140.5t73.5 -98t108.5 -35.5q62 0 110 36z" />
    <glyph glyph-name="ohorn" unicode="&#x1a1;" horiz-adv-x="538" 
d="M145.5 21.5q-51.5 31.5 -79.5 88t-28 128.5q0 75 29 133.5t82.5 91t123.5 32.5q39 0 78 -13q6 -2 11.5 -4.5t10.5 -4.5q3 -1 23.5 -9.5t39.5 -8.5q40 0 40 40q0 29 -16 59l66 12q17 -32 17 -73t-23.5 -64.5t-66.5 -22.5l-1 -2q48 -63 48 -158q0 -75 -29 -133t-82.5 -90.5
t-123.5 -32.5q-68 0 -119.5 31.5zM343 80.5q33 25.5 51 68.5t18 94q0 82 -39.5 134.5t-103.5 52.5q-65 0 -104 -53t-39 -136q0 -52 17.5 -94.5t50 -67t74.5 -24.5t75 25.5z" />
    <glyph glyph-name="Tonetwo" unicode="&#x1a7;" horiz-adv-x="484" 
d="M97 36q-59 46 -59 132q0 73 39.5 119.5t132.5 91.5q76 36 106 65.5t30 71.5q0 47 -32 72.5t-86 25.5q-76 0 -132 -36l-22 70q67 37 156 37q88 0 145 -43t57 -124q0 -64 -44 -114t-135 -90q-68 -30 -98.5 -62t-30.5 -78q0 -51 35 -82t96 -31q86 0 160 49l21 -71
q-76 -49 -182 -49q-98 0 -157 46z" />
    <glyph glyph-name="tonetwo" unicode="&#x1a8;" horiz-adv-x="388" 
d="M83.5 25.5q-44.5 35.5 -44.5 98.5q0 51 32 86t96 68q46 24 68.5 43.5t22.5 45.5q0 30 -20.5 46.5t-57.5 16.5q-53 0 -96 -28l-22 64q23 14 57.5 21.5t69.5 7.5q70 0 111.5 -35t41.5 -96q0 -45 -31 -79.5t-98 -65.5q-48 -23 -69 -45.5t-21 -50.5q0 -32 23.5 -50t68.5 -18
q60 0 113 34l21 -67q-56 -32 -142 -32q-79 0 -123.5 35.5z" />
    <glyph glyph-name="Uhorn" unicode="&#x1af;" horiz-adv-x="650" 
d="M135 62q-60 73 -60 212v400h86v-403q0 -100 40 -156t113 -56q79 0 119.5 54.5t40.5 157.5v403h78q26 0 36 8.5t10 29.5q0 30 -16 58l66 12q17 -36 17 -75q0 -86 -105 -86v-343q0 -139 -65 -214t-184 -75q-116 0 -176 73z" />
    </font>
</defs>
</svg>
